M48
;DRILL file {KiCad (5.0.2)-1} date 12/13/2019 5:07:53 PM
;FORMAT={-:-/ absolute / inch / decimal}
FMAT,2
INCH,TZ
T1C0.0157
T2C0.0350
T3C0.0354
T4C0.0660
T5C0.1598
%
G90
G05
T1
X5.6Y-4.3
X5.6Y-4.4
X5.6Y-4.5
X5.6Y-4.6
X5.6Y-4.7
X5.6Y-4.8
X5.7Y-4.3
X5.7Y-4.4
X5.7Y-4.5
X5.7Y-4.6
X5.7Y-4.7
X5.7Y-4.8
X5.8Y-4.3
X5.8Y-4.4
X5.8Y-4.5
X5.8Y-4.6
X5.8Y-4.7
X5.8Y-4.8
X5.9Y-4.3
X5.9Y-4.4
X5.9Y-4.5
X5.9Y-4.6
X5.9Y-4.7
X5.9Y-4.8
X6.Y-4.3
X6.Y-4.4
X6.Y-4.5
X6.Y-4.6
X6.Y-4.7
X6.Y-4.8
X6.47Y-4.01
X6.53Y-3.9
X6.91Y-4.8
X6.91Y-4.84
X6.91Y-4.88
X6.91Y-4.92
X6.91Y-4.96
X6.91Y-5.
X6.91Y-5.04
X6.91Y-5.08
X6.91Y-5.12
X6.95Y-4.8
X6.95Y-4.84
X6.95Y-4.88
X6.95Y-4.92
X6.95Y-4.96
X6.95Y-5.
X6.95Y-5.04
X6.95Y-5.08
X6.95Y-5.12
X6.98Y-4.43
X6.98Y-4.47
X6.99Y-4.8
X6.99Y-4.84
X6.99Y-4.88
X6.99Y-4.92
X6.99Y-4.96
X6.99Y-5.
X6.99Y-5.04
X6.99Y-5.08
X6.99Y-5.12
X7.02Y-4.43
X7.02Y-4.47
X7.03Y-4.8
X7.03Y-4.84
X7.03Y-4.88
X7.03Y-4.92
X7.03Y-4.96
X7.03Y-5.
X7.03Y-5.04
X7.03Y-5.08
X7.03Y-5.12
X7.07Y-4.8
X7.07Y-4.84
X7.07Y-4.88
X7.07Y-4.92
X7.07Y-4.96
X7.07Y-5.
X7.07Y-5.04
X7.07Y-5.08
X7.07Y-5.12
X7.11Y-4.8
X7.11Y-4.84
X7.11Y-4.88
X7.11Y-4.92
X7.11Y-4.96
X7.11Y-5.
X7.11Y-5.04
X7.11Y-5.08
X7.11Y-5.12
X7.15Y-4.8
X7.15Y-4.84
X7.15Y-4.88
X7.15Y-4.92
X7.15Y-4.96
X7.15Y-5.
X7.15Y-5.04
X7.15Y-5.08
X7.15Y-5.12
X7.19Y-4.8
X7.19Y-4.84
X7.19Y-4.88
X7.19Y-4.92
X7.19Y-4.96
X7.19Y-5.
X7.19Y-5.04
X7.19Y-5.08
X7.19Y-5.12
X7.23Y-4.8
X7.23Y-4.84
X7.23Y-4.88
X7.23Y-4.92
X7.23Y-4.96
X7.23Y-5.
X7.23Y-5.04
X7.23Y-5.08
X7.23Y-5.12
X7.27Y-4.8
X7.27Y-4.84
X7.27Y-4.88
X7.27Y-4.92
X7.27Y-4.96
X7.27Y-5.
X7.27Y-5.04
X7.27Y-5.08
X7.27Y-5.12
X7.4Y-3.5
X7.4Y-3.6
X7.4Y-3.7
X7.41Y-4.8
X7.41Y-4.84
X7.41Y-4.88
X7.41Y-4.92
X7.41Y-4.96
X7.41Y-5.
X7.41Y-5.04
X7.41Y-5.08
X7.41Y-5.12
X7.45Y-4.8
X7.45Y-4.84
X7.45Y-4.88
X7.45Y-4.92
X7.45Y-4.96
X7.45Y-5.
X7.45Y-5.04
X7.45Y-5.08
X7.45Y-5.12
X7.48Y-4.19
X7.48Y-4.23
X7.48Y-4.27
X7.48Y-4.31
X7.48Y-4.35
X7.48Y-4.39
X7.48Y-4.43
X7.48Y-4.47
X7.49Y-4.8
X7.49Y-4.84
X7.49Y-4.88
X7.49Y-4.92
X7.49Y-4.96
X7.49Y-5.
X7.49Y-5.04
X7.49Y-5.08
X7.49Y-5.12
X7.5Y-3.5
X7.5Y-3.6
X7.5Y-3.7
X7.52Y-4.19
X7.52Y-4.23
X7.52Y-4.27
X7.52Y-4.31
X7.52Y-4.35
X7.52Y-4.39
X7.52Y-4.43
X7.52Y-4.47
X7.53Y-4.8
X7.53Y-4.84
X7.53Y-4.88
X7.53Y-4.92
X7.53Y-4.96
X7.53Y-5.
X7.53Y-5.04
X7.53Y-5.08
X7.53Y-5.12
X7.57Y-4.8
X7.57Y-4.84
X7.57Y-4.88
X7.57Y-4.92
X7.57Y-4.96
X7.57Y-5.
X7.57Y-5.04
X7.57Y-5.08
X7.57Y-5.12
X7.6Y-3.5
X7.6Y-3.6
X7.6Y-3.7
X7.61Y-4.8
X7.61Y-4.84
X7.61Y-4.88
X7.61Y-4.92
X7.61Y-4.96
X7.61Y-5.
X7.61Y-5.04
X7.61Y-5.08
X7.61Y-5.12
X7.65Y-4.8
X7.65Y-4.84
X7.65Y-4.88
X7.65Y-4.92
X7.65Y-4.96
X7.65Y-5.
X7.65Y-5.04
X7.65Y-5.08
X7.65Y-5.12
X7.69Y-4.8
X7.69Y-4.84
X7.69Y-4.88
X7.69Y-4.92
X7.69Y-4.96
X7.69Y-5.
X7.69Y-5.04
X7.69Y-5.08
X7.69Y-5.12
X7.7Y-3.5
X7.7Y-3.6
X7.7Y-3.7
X7.73Y-4.8
X7.73Y-4.84
X7.73Y-4.88
X7.73Y-4.92
X7.73Y-4.96
X7.73Y-5.
X7.73Y-5.04
X7.73Y-5.08
X7.73Y-5.12
X7.77Y-4.8
X7.77Y-4.84
X7.77Y-4.88
X7.77Y-4.92
X7.77Y-4.96
X7.77Y-5.
X7.77Y-5.04
X7.77Y-5.08
X7.77Y-5.12
X7.8Y-3.5
X7.8Y-3.6
X7.8Y-3.7
X7.9Y-3.5
X7.9Y-3.6
X7.9Y-3.7
X7.9Y-4.78
X8.Y-3.5
X8.Y-3.6
X8.Y-3.7
X8.Y-4.76
X8.1Y-3.5
X8.1Y-3.6
X8.1Y-3.7
X8.2Y-3.5
X8.2Y-3.6
X8.2Y-3.7
X8.2Y-3.9
X8.2Y-4.
X8.2Y-4.1
X8.2Y-4.2
X8.2Y-4.3
X8.2Y-4.4
X8.2Y-4.5
X8.2Y-4.6
X8.2Y-4.7
X8.29Y-4.8409
X8.3Y-3.5
X8.3Y-3.6
X8.3Y-3.7
T2
X6.4Y-4.6
X6.5Y-4.6
X6.6Y-4.6
T3
X5.9Y-4.
X6.Y-4.
X6.1Y-4.
X6.2Y-4.
X6.2Y-4.
T4
X7.2Y-4.225
X7.2Y-4.36
X7.73Y-4.225
X7.73Y-4.36
X7.2Y-3.93
X7.2Y-4.065
X7.73Y-3.93
X7.73Y-4.065
T5
X8.Y-3.99
X8.Y-4.3
X8.Y-4.61
X6.2Y-4.39
X6.2Y-4.7
T0
M30
