G04 #@! TF.GenerationSoftware,KiCad,Pcbnew,(5.0.2)-1*
G04 #@! TF.CreationDate,2019-12-13T17:07:51-06:00*
G04 #@! TF.ProjectId,Arm-EStop_Hardware,41726d2d-4553-4746-9f70-5f4861726477,rev?*
G04 #@! TF.SameCoordinates,Original*
G04 #@! TF.FileFunction,Copper,L2,Bot*
G04 #@! TF.FilePolarity,Positive*
%FSLAX46Y46*%
G04 Gerber Fmt 4.6, Leading zero omitted, Abs format (unit mm)*
G04 Created by KiCad (PCBNEW (5.0.2)-1) date 12/13/2019 5:07:51 PM*
%MOMM*%
%LPD*%
G01*
G04 APERTURE LIST*
G04 #@! TA.AperFunction,ComponentPad*
%ADD10C,5.080000*%
G04 #@! TD*
G04 #@! TA.AperFunction,ComponentPad*
%ADD11C,2.819400*%
G04 #@! TD*
G04 #@! TA.AperFunction,ComponentPad*
%ADD12C,1.524000*%
G04 #@! TD*
G04 #@! TA.AperFunction,ViaPad*
%ADD13C,0.800000*%
G04 #@! TD*
G04 #@! TA.AperFunction,Conductor*
%ADD14C,0.762000*%
G04 #@! TD*
G04 #@! TA.AperFunction,Conductor*
%ADD15C,0.381000*%
G04 #@! TD*
G04 #@! TA.AperFunction,Conductor*
%ADD16C,0.254000*%
G04 #@! TD*
G04 APERTURE END LIST*
D10*
G04 #@! TO.P,Conn1,2*
G04 #@! TO.N,+12V*
X157480000Y-119380000D03*
G04 #@! TO.P,Conn1,1*
G04 #@! TO.N,GND*
X157480000Y-111506000D03*
G04 #@! TD*
G04 #@! TO.P,Conn2,3*
G04 #@! TO.N,Net-(Conn2-Pad3)*
X203200000Y-101346000D03*
G04 #@! TO.P,Conn2,2*
G04 #@! TO.N,Net-(Conn2-Pad2)*
X203200000Y-109220000D03*
G04 #@! TO.P,Conn2,1*
G04 #@! TO.N,GND*
X203200000Y-117094000D03*
G04 #@! TD*
D11*
G04 #@! TO.P,F1,1*
G04 #@! TO.N,Net-(Conn2-Pad3)*
X196342000Y-99822000D03*
X196342000Y-103251000D03*
G04 #@! TO.P,F1,2*
G04 #@! TO.N,+12VA*
X182880000Y-103251000D03*
X182880000Y-99822000D03*
G04 #@! TD*
G04 #@! TO.P,F2,2*
G04 #@! TO.N,+12L*
X182880000Y-107315000D03*
X182880000Y-110744000D03*
G04 #@! TO.P,F2,1*
G04 #@! TO.N,Net-(Conn2-Pad2)*
X196342000Y-110744000D03*
X196342000Y-107315000D03*
G04 #@! TD*
D12*
G04 #@! TO.P,U1,1*
G04 #@! TO.N,+12V*
X162560000Y-116840000D03*
G04 #@! TO.P,U1,2*
G04 #@! TO.N,GND*
X165100000Y-116840000D03*
G04 #@! TO.P,U1,3*
G04 #@! TO.N,+3V3*
X167640000Y-116840000D03*
G04 #@! TD*
G04 #@! TO.P,U5,1*
G04 #@! TO.N,Net-(R5-Pad1)*
X149860000Y-101600000D03*
G04 #@! TO.P,U5,2*
G04 #@! TO.N,+3V3*
X152400000Y-101600000D03*
G04 #@! TO.P,U5,3*
G04 #@! TO.N,+12VA*
X154940000Y-101600000D03*
G04 #@! TO.P,U5,4*
G04 #@! TO.N,GND*
X157480000Y-101600000D03*
X157480000Y-101600000D03*
G04 #@! TD*
D13*
G04 #@! TO.N,GND*
X210820000Y-88900000D03*
X208280000Y-88900000D03*
X205740000Y-88900000D03*
X203200000Y-88900000D03*
X200660000Y-88900000D03*
X198120000Y-88900000D03*
X195580000Y-88900000D03*
X193040000Y-88900000D03*
X190500000Y-88900000D03*
X187960000Y-88900000D03*
X210820000Y-91440000D03*
X208280000Y-91440000D03*
X205740000Y-91440000D03*
X203200000Y-91440000D03*
X200660000Y-91440000D03*
X198120000Y-91440000D03*
X195580000Y-91440000D03*
X193040000Y-91440000D03*
X190500000Y-91440000D03*
X187960000Y-91440000D03*
X210820000Y-93980000D03*
X208280000Y-93980000D03*
X205740000Y-93980000D03*
X203200000Y-93980000D03*
X200660000Y-93980000D03*
X198120000Y-93980000D03*
X195580000Y-93980000D03*
X193040000Y-93980000D03*
X190500000Y-93980000D03*
X187960000Y-93980000D03*
X147320000Y-109220000D03*
X142240000Y-109220000D03*
X152400000Y-111760000D03*
X147320000Y-111760000D03*
X152400000Y-114300000D03*
X144780000Y-111760000D03*
X149860000Y-111760000D03*
X147320000Y-114300000D03*
X144780000Y-114300000D03*
X142240000Y-114300000D03*
X149860000Y-109220000D03*
X142240000Y-111760000D03*
X144780000Y-109220000D03*
X152400000Y-109220000D03*
X149860000Y-114300000D03*
X152400000Y-119380000D03*
X144780000Y-116840000D03*
X142240000Y-116840000D03*
X142240000Y-119380000D03*
X149860000Y-121920000D03*
X144780000Y-119380000D03*
X144780000Y-121920000D03*
X149860000Y-116840000D03*
X142240000Y-121920000D03*
X147320000Y-116840000D03*
X152400000Y-121920000D03*
X149860000Y-119380000D03*
X147320000Y-121920000D03*
X152400000Y-116840000D03*
X147320000Y-119380000D03*
X208280000Y-104140000D03*
X208280000Y-101600000D03*
X208280000Y-99060000D03*
X208280000Y-109220000D03*
X208280000Y-106680000D03*
X208280000Y-111760000D03*
X208280000Y-116840000D03*
X208280000Y-114300000D03*
X208280000Y-119380000D03*
G04 #@! TO.N,+3V3*
X164338000Y-101854000D03*
G04 #@! TO.N,+12V*
X175514000Y-121920000D03*
X176530000Y-121920000D03*
X177546000Y-121920000D03*
X178562000Y-121920000D03*
X179578000Y-121920000D03*
X180594000Y-121920000D03*
X181610000Y-121920000D03*
X182626000Y-121920000D03*
X183642000Y-121920000D03*
X184658000Y-121920000D03*
X175514000Y-122936000D03*
X176530000Y-122936000D03*
X177546000Y-122936000D03*
X178562000Y-122936000D03*
X179578000Y-122936000D03*
X180594000Y-122936000D03*
X181610000Y-122936000D03*
X182626000Y-122936000D03*
X183642000Y-122936000D03*
X184658000Y-122936000D03*
X175514000Y-123952000D03*
X176530000Y-123952000D03*
X177546000Y-123952000D03*
X178562000Y-123952000D03*
X179578000Y-123952000D03*
X180594000Y-123952000D03*
X181610000Y-123952000D03*
X182626000Y-123952000D03*
X183642000Y-123952000D03*
X184658000Y-123952000D03*
X175514000Y-124968000D03*
X176530000Y-124968000D03*
X177546000Y-124968000D03*
X178562000Y-124968000D03*
X179578000Y-124968000D03*
X180594000Y-124968000D03*
X181610000Y-124968000D03*
X182626000Y-124968000D03*
X183642000Y-124968000D03*
X184658000Y-124968000D03*
X175514000Y-125984000D03*
X176530000Y-125984000D03*
X177546000Y-125984000D03*
X178562000Y-125984000D03*
X179578000Y-125984000D03*
X180594000Y-125984000D03*
X181610000Y-125984000D03*
X182626000Y-125984000D03*
X183642000Y-125984000D03*
X184658000Y-125984000D03*
X175514000Y-127000000D03*
X176530000Y-127000000D03*
X177546000Y-127000000D03*
X178562000Y-127000000D03*
X179578000Y-127000000D03*
X180594000Y-127000000D03*
X181610000Y-127000000D03*
X182626000Y-127000000D03*
X183642000Y-127000000D03*
X184658000Y-127000000D03*
X175514000Y-128016000D03*
X176530000Y-128016000D03*
X177546000Y-128016000D03*
X178562000Y-128016000D03*
X179578000Y-128016000D03*
X180594000Y-128016000D03*
X181610000Y-128016000D03*
X182626000Y-128016000D03*
X183642000Y-128016000D03*
X184658000Y-128016000D03*
X175514000Y-129032000D03*
X176530000Y-129032000D03*
X177546000Y-129032000D03*
X178562000Y-129032000D03*
X179578000Y-129032000D03*
X180594000Y-129032000D03*
X181610000Y-129032000D03*
X182626000Y-129032000D03*
X183642000Y-129032000D03*
X184658000Y-129032000D03*
X175514000Y-130048000D03*
X176530000Y-130048000D03*
X177546000Y-130048000D03*
X178562000Y-130048000D03*
X179578000Y-130048000D03*
X180594000Y-130048000D03*
X181610000Y-130048000D03*
X182626000Y-130048000D03*
X183642000Y-130048000D03*
X184658000Y-130048000D03*
X188214000Y-121920000D03*
X189230000Y-121920000D03*
X190246000Y-121920000D03*
X191262000Y-121920000D03*
X192278000Y-121920000D03*
X193294000Y-121920000D03*
X194310000Y-121920000D03*
X195326000Y-121920000D03*
X196342000Y-121920000D03*
X197358000Y-121920000D03*
X188214000Y-122936000D03*
X189230000Y-122936000D03*
X190246000Y-122936000D03*
X191262000Y-122936000D03*
X192278000Y-122936000D03*
X193294000Y-122936000D03*
X194310000Y-122936000D03*
X195326000Y-122936000D03*
X196342000Y-122936000D03*
X197358000Y-122936000D03*
X188214000Y-123952000D03*
X189230000Y-123952000D03*
X190246000Y-123952000D03*
X191262000Y-123952000D03*
X192278000Y-123952000D03*
X193294000Y-123952000D03*
X194310000Y-123952000D03*
X195326000Y-123952000D03*
X196342000Y-123952000D03*
X197358000Y-123952000D03*
X188214000Y-124968000D03*
X189230000Y-124968000D03*
X190246000Y-124968000D03*
X191262000Y-124968000D03*
X192278000Y-124968000D03*
X193294000Y-124968000D03*
X194310000Y-124968000D03*
X195326000Y-124968000D03*
X196342000Y-124968000D03*
X197358000Y-124968000D03*
X188214000Y-125984000D03*
X189230000Y-125984000D03*
X190246000Y-125984000D03*
X191262000Y-125984000D03*
X192278000Y-125984000D03*
X193294000Y-125984000D03*
X194310000Y-125984000D03*
X195326000Y-125984000D03*
X196342000Y-125984000D03*
X197358000Y-125984000D03*
X188214000Y-127000000D03*
X189230000Y-127000000D03*
X190246000Y-127000000D03*
X191262000Y-127000000D03*
X192278000Y-127000000D03*
X193294000Y-127000000D03*
X194310000Y-127000000D03*
X195326000Y-127000000D03*
X196342000Y-127000000D03*
X197358000Y-127000000D03*
X188214000Y-128016000D03*
X189230000Y-128016000D03*
X190246000Y-128016000D03*
X191262000Y-128016000D03*
X192278000Y-128016000D03*
X193294000Y-128016000D03*
X194310000Y-128016000D03*
X195326000Y-128016000D03*
X196342000Y-128016000D03*
X197358000Y-128016000D03*
X188214000Y-129032000D03*
X189230000Y-129032000D03*
X190246000Y-129032000D03*
X191262000Y-129032000D03*
X192278000Y-129032000D03*
X193294000Y-129032000D03*
X194310000Y-129032000D03*
X195326000Y-129032000D03*
X196342000Y-129032000D03*
X197358000Y-129032000D03*
X188214000Y-130048000D03*
X189230000Y-130048000D03*
X190246000Y-130048000D03*
X191262000Y-130048000D03*
X192278000Y-130048000D03*
X193294000Y-130048000D03*
X194310000Y-130048000D03*
X195326000Y-130048000D03*
X196342000Y-130048000D03*
X197358000Y-130048000D03*
G04 #@! TO.N,+12VA*
X189992000Y-106426000D03*
X191008000Y-106426000D03*
X191008000Y-107442000D03*
X189992000Y-107442000D03*
X189992000Y-108458000D03*
X191008000Y-108458000D03*
X189992000Y-109474000D03*
X191008000Y-109474000D03*
X189992000Y-112522000D03*
X189992000Y-113538000D03*
X191008000Y-113538000D03*
X191008000Y-112522000D03*
X191008000Y-110490000D03*
X189992000Y-111506000D03*
X191008000Y-111506000D03*
X189992000Y-110490000D03*
X203200000Y-120904000D03*
G04 #@! TO.N,+12L*
X178308000Y-112522000D03*
X177292000Y-112522000D03*
X177292000Y-113538000D03*
X178308000Y-113538000D03*
X200660000Y-121412000D03*
G04 #@! TO.N,Net-(R4-Pad2)*
X165862000Y-99060000D03*
X210566000Y-122960000D03*
G04 #@! TD*
D14*
G04 #@! TO.N,+3V3*
X152400000Y-101600000D02*
X154178000Y-99822000D01*
X154178000Y-99822000D02*
X160830000Y-99822000D01*
X167640000Y-116840000D02*
X167640000Y-102362000D01*
X167640000Y-102362000D02*
X167132000Y-101854000D01*
X162862000Y-101854000D02*
X160830000Y-99822000D01*
X164338000Y-101854000D02*
X162862000Y-101854000D01*
X167132000Y-101854000D02*
X164338000Y-101854000D01*
D15*
G04 #@! TO.N,+12VA*
X197866000Y-119888000D02*
X200406000Y-119888000D01*
X197866000Y-119888000D02*
X199136000Y-119888000D01*
X200406000Y-119888000D02*
X201422000Y-120904000D01*
X201422000Y-120904000D02*
X203200000Y-120904000D01*
G04 #@! TO.N,+12L*
X184404000Y-112268000D02*
X184404000Y-120142000D01*
X184404000Y-120142000D02*
X184912000Y-120650000D01*
X199898000Y-120650000D02*
X199644000Y-120650000D01*
X200660000Y-121412000D02*
X199898000Y-120650000D01*
X184912000Y-120650000D02*
X199644000Y-120650000D01*
D14*
G04 #@! TO.N,Net-(R4-Pad2)*
X165862000Y-99060000D02*
X167894000Y-97028000D01*
X167894000Y-97028000D02*
X209550000Y-97028000D01*
X210566000Y-98044000D02*
X209550000Y-97028000D01*
X210566000Y-122960000D02*
X210566000Y-98044000D01*
D15*
G04 #@! TO.N,+12VA*
X193548000Y-119888000D02*
X192024000Y-119888000D01*
X193548000Y-119888000D02*
X197866000Y-119888000D01*
X193040000Y-119888000D02*
X193548000Y-119888000D01*
X192024000Y-119888000D02*
X191516000Y-119380000D01*
G04 #@! TD*
D16*
G04 #@! TO.N,+12VA*
G36*
X191897000Y-119761000D02*
X189103000Y-119761000D01*
X189103000Y-104902000D01*
X189093333Y-104853399D01*
X189065803Y-104812197D01*
X189024601Y-104784667D01*
X188976000Y-104775000D01*
X181229000Y-104775000D01*
X181229000Y-98171000D01*
X191897000Y-98171000D01*
X191897000Y-119761000D01*
X191897000Y-119761000D01*
G37*
X191897000Y-119761000D02*
X189103000Y-119761000D01*
X189103000Y-104902000D01*
X189093333Y-104853399D01*
X189065803Y-104812197D01*
X189024601Y-104784667D01*
X188976000Y-104775000D01*
X181229000Y-104775000D01*
X181229000Y-98171000D01*
X191897000Y-98171000D01*
X191897000Y-119761000D01*
G04 #@! TO.N,+12L*
G36*
X184531000Y-112395000D02*
X179324000Y-112395000D01*
X179275399Y-112404667D01*
X179234197Y-112432197D01*
X179206667Y-112473399D01*
X179197000Y-112522000D01*
X179197000Y-119761000D01*
X176403000Y-119761000D01*
X176403000Y-105791000D01*
X184531000Y-105791000D01*
X184531000Y-112395000D01*
X184531000Y-112395000D01*
G37*
X184531000Y-112395000D02*
X179324000Y-112395000D01*
X179275399Y-112404667D01*
X179234197Y-112432197D01*
X179206667Y-112473399D01*
X179197000Y-112522000D01*
X179197000Y-119761000D01*
X176403000Y-119761000D01*
X176403000Y-105791000D01*
X184531000Y-105791000D01*
X184531000Y-112395000D01*
G04 #@! TO.N,Net-(Conn2-Pad2)*
G36*
X205867000Y-112395000D02*
X194691000Y-112395000D01*
X194691000Y-105791000D01*
X205867000Y-105791000D01*
X205867000Y-112395000D01*
X205867000Y-112395000D01*
G37*
X205867000Y-112395000D02*
X194691000Y-112395000D01*
X194691000Y-105791000D01*
X205867000Y-105791000D01*
X205867000Y-112395000D01*
G04 #@! TO.N,Net-(Conn2-Pad3)*
G36*
X205824557Y-104775000D02*
X194648557Y-104775000D01*
X194648557Y-98171000D01*
X205824557Y-98171000D01*
X205824557Y-104775000D01*
X205824557Y-104775000D01*
G37*
X205824557Y-104775000D02*
X194648557Y-104775000D01*
X194648557Y-98171000D01*
X205824557Y-98171000D01*
X205824557Y-104775000D01*
G04 #@! TO.N,GND*
G36*
X214964018Y-89117423D02*
X214339800Y-90624419D01*
X214339800Y-92255581D01*
X214964018Y-93762577D01*
X216117423Y-94915982D01*
X217624419Y-95540200D01*
X219255581Y-95540200D01*
X220762577Y-94915982D01*
X221819001Y-93859558D01*
X221819000Y-127120441D01*
X220762577Y-126064018D01*
X219255581Y-125439800D01*
X217624419Y-125439800D01*
X216117423Y-126064018D01*
X214964018Y-127217423D01*
X214339800Y-128724419D01*
X214339800Y-130355581D01*
X214964018Y-131862577D01*
X216020441Y-132919000D01*
X144659559Y-132919000D01*
X145715982Y-131862577D01*
X146340200Y-130355581D01*
X146340200Y-128724419D01*
X145715982Y-127217423D01*
X144562577Y-126064018D01*
X143055581Y-125439800D01*
X141424419Y-125439800D01*
X139917423Y-126064018D01*
X138861000Y-127120441D01*
X138861000Y-116332000D01*
X153797000Y-116332000D01*
X153797000Y-131064000D01*
X153845336Y-131307004D01*
X153982987Y-131513013D01*
X154188996Y-131650664D01*
X154432000Y-131699000D01*
X198628000Y-131699000D01*
X198871004Y-131650664D01*
X199077013Y-131513013D01*
X199214664Y-131307004D01*
X199263000Y-131064000D01*
X199263000Y-121475500D01*
X199556068Y-121475500D01*
X199625000Y-121544432D01*
X199625000Y-121617874D01*
X199782569Y-121998280D01*
X200073720Y-122289431D01*
X200454126Y-122447000D01*
X200865874Y-122447000D01*
X201246280Y-122289431D01*
X201537431Y-121998280D01*
X201648763Y-121729500D01*
X202561789Y-121729500D01*
X202613720Y-121781431D01*
X202994126Y-121939000D01*
X203405874Y-121939000D01*
X203786280Y-121781431D01*
X204077431Y-121490280D01*
X204235000Y-121109874D01*
X204235000Y-120698126D01*
X204077431Y-120317720D01*
X203786280Y-120026569D01*
X203405874Y-119869000D01*
X202994126Y-119869000D01*
X202613720Y-120026569D01*
X202561789Y-120078500D01*
X201763933Y-120078500D01*
X201047209Y-119361777D01*
X201001152Y-119292848D01*
X200728094Y-119110396D01*
X200487303Y-119062500D01*
X200487301Y-119062500D01*
X200406000Y-119046328D01*
X200324699Y-119062500D01*
X192659000Y-119062500D01*
X192659000Y-98044000D01*
X193886557Y-98044000D01*
X193886557Y-104902000D01*
X193934893Y-105145004D01*
X194048321Y-105314760D01*
X193977336Y-105420996D01*
X193929000Y-105664000D01*
X193929000Y-112522000D01*
X193977336Y-112765004D01*
X194114987Y-112971013D01*
X194320996Y-113108664D01*
X194564000Y-113157000D01*
X205994000Y-113157000D01*
X206237004Y-113108664D01*
X206443013Y-112971013D01*
X206580664Y-112765004D01*
X206629000Y-112522000D01*
X206629000Y-105664000D01*
X206580664Y-105420996D01*
X206467236Y-105251240D01*
X206538221Y-105145004D01*
X206586557Y-104902000D01*
X206586557Y-98044000D01*
X209129160Y-98044000D01*
X209550001Y-98464842D01*
X209550000Y-122708256D01*
X209531000Y-122754126D01*
X209531000Y-123165874D01*
X209608045Y-123351878D01*
X209608949Y-123356422D01*
X209611523Y-123360275D01*
X209688569Y-123546280D01*
X209830930Y-123688641D01*
X209833505Y-123692495D01*
X209837359Y-123695070D01*
X209979720Y-123837431D01*
X210165723Y-123914476D01*
X210169577Y-123917051D01*
X210174123Y-123917955D01*
X210360126Y-123995000D01*
X210561455Y-123995000D01*
X210566000Y-123995904D01*
X210570545Y-123995000D01*
X210771874Y-123995000D01*
X210957878Y-123917955D01*
X210962422Y-123917051D01*
X210966275Y-123914477D01*
X211152280Y-123837431D01*
X211294641Y-123695070D01*
X211298495Y-123692495D01*
X211301070Y-123688641D01*
X211443431Y-123546280D01*
X211520476Y-123360277D01*
X211523051Y-123356423D01*
X211523955Y-123351877D01*
X211601000Y-123165874D01*
X211601000Y-122754126D01*
X211582000Y-122708256D01*
X211582000Y-98144063D01*
X211601904Y-98044000D01*
X211582000Y-97943935D01*
X211523051Y-97647577D01*
X211298495Y-97311505D01*
X211213663Y-97254822D01*
X210339179Y-96380339D01*
X210282495Y-96295505D01*
X209946423Y-96070949D01*
X209650065Y-96012000D01*
X209650063Y-96012000D01*
X209550000Y-95992096D01*
X209449937Y-96012000D01*
X167994063Y-96012000D01*
X167894000Y-95992096D01*
X167793936Y-96012000D01*
X167793935Y-96012000D01*
X167497577Y-96070949D01*
X167161505Y-96295505D01*
X167104822Y-96380337D01*
X165321591Y-98163568D01*
X165275720Y-98182569D01*
X164984569Y-98473720D01*
X164907523Y-98659727D01*
X164904950Y-98663577D01*
X164904047Y-98668119D01*
X164827000Y-98854126D01*
X164827000Y-99055455D01*
X164826096Y-99060000D01*
X164827000Y-99064545D01*
X164827000Y-99265874D01*
X164904047Y-99451881D01*
X164904950Y-99456423D01*
X164907523Y-99460273D01*
X164984569Y-99646280D01*
X165126935Y-99788646D01*
X165129506Y-99792494D01*
X165133354Y-99795065D01*
X165275720Y-99937431D01*
X165461727Y-100014477D01*
X165465577Y-100017050D01*
X165470119Y-100017953D01*
X165656126Y-100095000D01*
X165857455Y-100095000D01*
X165862000Y-100095904D01*
X165866545Y-100095000D01*
X166067874Y-100095000D01*
X166253881Y-100017953D01*
X166258423Y-100017050D01*
X166262273Y-100014477D01*
X166448280Y-99937431D01*
X166739431Y-99646280D01*
X166758432Y-99600409D01*
X168314841Y-98044000D01*
X180467000Y-98044000D01*
X180467000Y-104902000D01*
X180492262Y-105029000D01*
X176276000Y-105029000D01*
X176032996Y-105077336D01*
X175826987Y-105214987D01*
X175689336Y-105420996D01*
X175641000Y-105664000D01*
X175641000Y-119888000D01*
X175689336Y-120131004D01*
X175781542Y-120269000D01*
X161163000Y-120269000D01*
X161163000Y-117117881D01*
X161375680Y-117631337D01*
X161768663Y-118024320D01*
X162282119Y-118237000D01*
X162837881Y-118237000D01*
X163351337Y-118024320D01*
X163744320Y-117631337D01*
X163957000Y-117117881D01*
X163957000Y-116562119D01*
X163744320Y-116048663D01*
X163351337Y-115655680D01*
X162837881Y-115443000D01*
X162282119Y-115443000D01*
X161768663Y-115655680D01*
X161375680Y-116048663D01*
X161163000Y-116562119D01*
X161163000Y-116332000D01*
X161114664Y-116088996D01*
X160977013Y-115882987D01*
X160771004Y-115745336D01*
X160528000Y-115697000D01*
X154432000Y-115697000D01*
X154188996Y-115745336D01*
X153982987Y-115882987D01*
X153845336Y-116088996D01*
X153797000Y-116332000D01*
X138861000Y-116332000D01*
X138861000Y-101322119D01*
X148463000Y-101322119D01*
X148463000Y-101877881D01*
X148675680Y-102391337D01*
X149068663Y-102784320D01*
X149582119Y-102997000D01*
X150137881Y-102997000D01*
X150651337Y-102784320D01*
X151044320Y-102391337D01*
X151130000Y-102184487D01*
X151215680Y-102391337D01*
X151608663Y-102784320D01*
X152122119Y-102997000D01*
X152677881Y-102997000D01*
X153191337Y-102784320D01*
X153584320Y-102391337D01*
X153670000Y-102184487D01*
X153755680Y-102391337D01*
X154148663Y-102784320D01*
X154662119Y-102997000D01*
X155217881Y-102997000D01*
X155731337Y-102784320D01*
X156124320Y-102391337D01*
X156337000Y-101877881D01*
X156337000Y-101322119D01*
X156136472Y-100838000D01*
X160409160Y-100838000D01*
X162072822Y-102501663D01*
X162129505Y-102586495D01*
X162465577Y-102811051D01*
X162761935Y-102870000D01*
X162761936Y-102870000D01*
X162862000Y-102889904D01*
X162962063Y-102870000D01*
X164086256Y-102870000D01*
X164132126Y-102889000D01*
X164543874Y-102889000D01*
X164589744Y-102870000D01*
X166624001Y-102870000D01*
X166624000Y-115880343D01*
X166455680Y-116048663D01*
X166243000Y-116562119D01*
X166243000Y-117117881D01*
X166455680Y-117631337D01*
X166848663Y-118024320D01*
X167362119Y-118237000D01*
X167917881Y-118237000D01*
X168431337Y-118024320D01*
X168824320Y-117631337D01*
X169037000Y-117117881D01*
X169037000Y-116562119D01*
X168824320Y-116048663D01*
X168656000Y-115880343D01*
X168656000Y-102462063D01*
X168675904Y-102361999D01*
X168622351Y-102092771D01*
X168597051Y-101965577D01*
X168372495Y-101629505D01*
X168287660Y-101572820D01*
X167921180Y-101206340D01*
X167864495Y-101121505D01*
X167528423Y-100896949D01*
X167232065Y-100838000D01*
X167232063Y-100838000D01*
X167132000Y-100818096D01*
X167031937Y-100838000D01*
X164589744Y-100838000D01*
X164543874Y-100819000D01*
X164132126Y-100819000D01*
X164086256Y-100838000D01*
X163282841Y-100838000D01*
X161619180Y-99174340D01*
X161562495Y-99089505D01*
X161226423Y-98864949D01*
X160930065Y-98806000D01*
X160930063Y-98806000D01*
X160830000Y-98786096D01*
X160729937Y-98806000D01*
X154278064Y-98806000D01*
X154178000Y-98786096D01*
X154077936Y-98806000D01*
X154077935Y-98806000D01*
X153781577Y-98864949D01*
X153445505Y-99089505D01*
X153388822Y-99174337D01*
X152360160Y-100203000D01*
X152122119Y-100203000D01*
X151608663Y-100415680D01*
X151215680Y-100808663D01*
X151130000Y-101015513D01*
X151044320Y-100808663D01*
X150651337Y-100415680D01*
X150137881Y-100203000D01*
X149582119Y-100203000D01*
X149068663Y-100415680D01*
X148675680Y-100808663D01*
X148463000Y-101322119D01*
X138861000Y-101322119D01*
X138861000Y-93859559D01*
X139917423Y-94915982D01*
X141424419Y-95540200D01*
X143055581Y-95540200D01*
X144562577Y-94915982D01*
X145715982Y-93762577D01*
X146340200Y-92255581D01*
X146340200Y-90624419D01*
X145715982Y-89117423D01*
X144659559Y-88061000D01*
X216020441Y-88061000D01*
X214964018Y-89117423D01*
X214964018Y-89117423D01*
G37*
X214964018Y-89117423D02*
X214339800Y-90624419D01*
X214339800Y-92255581D01*
X214964018Y-93762577D01*
X216117423Y-94915982D01*
X217624419Y-95540200D01*
X219255581Y-95540200D01*
X220762577Y-94915982D01*
X221819001Y-93859558D01*
X221819000Y-127120441D01*
X220762577Y-126064018D01*
X219255581Y-125439800D01*
X217624419Y-125439800D01*
X216117423Y-126064018D01*
X214964018Y-127217423D01*
X214339800Y-128724419D01*
X214339800Y-130355581D01*
X214964018Y-131862577D01*
X216020441Y-132919000D01*
X144659559Y-132919000D01*
X145715982Y-131862577D01*
X146340200Y-130355581D01*
X146340200Y-128724419D01*
X145715982Y-127217423D01*
X144562577Y-126064018D01*
X143055581Y-125439800D01*
X141424419Y-125439800D01*
X139917423Y-126064018D01*
X138861000Y-127120441D01*
X138861000Y-116332000D01*
X153797000Y-116332000D01*
X153797000Y-131064000D01*
X153845336Y-131307004D01*
X153982987Y-131513013D01*
X154188996Y-131650664D01*
X154432000Y-131699000D01*
X198628000Y-131699000D01*
X198871004Y-131650664D01*
X199077013Y-131513013D01*
X199214664Y-131307004D01*
X199263000Y-131064000D01*
X199263000Y-121475500D01*
X199556068Y-121475500D01*
X199625000Y-121544432D01*
X199625000Y-121617874D01*
X199782569Y-121998280D01*
X200073720Y-122289431D01*
X200454126Y-122447000D01*
X200865874Y-122447000D01*
X201246280Y-122289431D01*
X201537431Y-121998280D01*
X201648763Y-121729500D01*
X202561789Y-121729500D01*
X202613720Y-121781431D01*
X202994126Y-121939000D01*
X203405874Y-121939000D01*
X203786280Y-121781431D01*
X204077431Y-121490280D01*
X204235000Y-121109874D01*
X204235000Y-120698126D01*
X204077431Y-120317720D01*
X203786280Y-120026569D01*
X203405874Y-119869000D01*
X202994126Y-119869000D01*
X202613720Y-120026569D01*
X202561789Y-120078500D01*
X201763933Y-120078500D01*
X201047209Y-119361777D01*
X201001152Y-119292848D01*
X200728094Y-119110396D01*
X200487303Y-119062500D01*
X200487301Y-119062500D01*
X200406000Y-119046328D01*
X200324699Y-119062500D01*
X192659000Y-119062500D01*
X192659000Y-98044000D01*
X193886557Y-98044000D01*
X193886557Y-104902000D01*
X193934893Y-105145004D01*
X194048321Y-105314760D01*
X193977336Y-105420996D01*
X193929000Y-105664000D01*
X193929000Y-112522000D01*
X193977336Y-112765004D01*
X194114987Y-112971013D01*
X194320996Y-113108664D01*
X194564000Y-113157000D01*
X205994000Y-113157000D01*
X206237004Y-113108664D01*
X206443013Y-112971013D01*
X206580664Y-112765004D01*
X206629000Y-112522000D01*
X206629000Y-105664000D01*
X206580664Y-105420996D01*
X206467236Y-105251240D01*
X206538221Y-105145004D01*
X206586557Y-104902000D01*
X206586557Y-98044000D01*
X209129160Y-98044000D01*
X209550001Y-98464842D01*
X209550000Y-122708256D01*
X209531000Y-122754126D01*
X209531000Y-123165874D01*
X209608045Y-123351878D01*
X209608949Y-123356422D01*
X209611523Y-123360275D01*
X209688569Y-123546280D01*
X209830930Y-123688641D01*
X209833505Y-123692495D01*
X209837359Y-123695070D01*
X209979720Y-123837431D01*
X210165723Y-123914476D01*
X210169577Y-123917051D01*
X210174123Y-123917955D01*
X210360126Y-123995000D01*
X210561455Y-123995000D01*
X210566000Y-123995904D01*
X210570545Y-123995000D01*
X210771874Y-123995000D01*
X210957878Y-123917955D01*
X210962422Y-123917051D01*
X210966275Y-123914477D01*
X211152280Y-123837431D01*
X211294641Y-123695070D01*
X211298495Y-123692495D01*
X211301070Y-123688641D01*
X211443431Y-123546280D01*
X211520476Y-123360277D01*
X211523051Y-123356423D01*
X211523955Y-123351877D01*
X211601000Y-123165874D01*
X211601000Y-122754126D01*
X211582000Y-122708256D01*
X211582000Y-98144063D01*
X211601904Y-98044000D01*
X211582000Y-97943935D01*
X211523051Y-97647577D01*
X211298495Y-97311505D01*
X211213663Y-97254822D01*
X210339179Y-96380339D01*
X210282495Y-96295505D01*
X209946423Y-96070949D01*
X209650065Y-96012000D01*
X209650063Y-96012000D01*
X209550000Y-95992096D01*
X209449937Y-96012000D01*
X167994063Y-96012000D01*
X167894000Y-95992096D01*
X167793936Y-96012000D01*
X167793935Y-96012000D01*
X167497577Y-96070949D01*
X167161505Y-96295505D01*
X167104822Y-96380337D01*
X165321591Y-98163568D01*
X165275720Y-98182569D01*
X164984569Y-98473720D01*
X164907523Y-98659727D01*
X164904950Y-98663577D01*
X164904047Y-98668119D01*
X164827000Y-98854126D01*
X164827000Y-99055455D01*
X164826096Y-99060000D01*
X164827000Y-99064545D01*
X164827000Y-99265874D01*
X164904047Y-99451881D01*
X164904950Y-99456423D01*
X164907523Y-99460273D01*
X164984569Y-99646280D01*
X165126935Y-99788646D01*
X165129506Y-99792494D01*
X165133354Y-99795065D01*
X165275720Y-99937431D01*
X165461727Y-100014477D01*
X165465577Y-100017050D01*
X165470119Y-100017953D01*
X165656126Y-100095000D01*
X165857455Y-100095000D01*
X165862000Y-100095904D01*
X165866545Y-100095000D01*
X166067874Y-100095000D01*
X166253881Y-100017953D01*
X166258423Y-100017050D01*
X166262273Y-100014477D01*
X166448280Y-99937431D01*
X166739431Y-99646280D01*
X166758432Y-99600409D01*
X168314841Y-98044000D01*
X180467000Y-98044000D01*
X180467000Y-104902000D01*
X180492262Y-105029000D01*
X176276000Y-105029000D01*
X176032996Y-105077336D01*
X175826987Y-105214987D01*
X175689336Y-105420996D01*
X175641000Y-105664000D01*
X175641000Y-119888000D01*
X175689336Y-120131004D01*
X175781542Y-120269000D01*
X161163000Y-120269000D01*
X161163000Y-117117881D01*
X161375680Y-117631337D01*
X161768663Y-118024320D01*
X162282119Y-118237000D01*
X162837881Y-118237000D01*
X163351337Y-118024320D01*
X163744320Y-117631337D01*
X163957000Y-117117881D01*
X163957000Y-116562119D01*
X163744320Y-116048663D01*
X163351337Y-115655680D01*
X162837881Y-115443000D01*
X162282119Y-115443000D01*
X161768663Y-115655680D01*
X161375680Y-116048663D01*
X161163000Y-116562119D01*
X161163000Y-116332000D01*
X161114664Y-116088996D01*
X160977013Y-115882987D01*
X160771004Y-115745336D01*
X160528000Y-115697000D01*
X154432000Y-115697000D01*
X154188996Y-115745336D01*
X153982987Y-115882987D01*
X153845336Y-116088996D01*
X153797000Y-116332000D01*
X138861000Y-116332000D01*
X138861000Y-101322119D01*
X148463000Y-101322119D01*
X148463000Y-101877881D01*
X148675680Y-102391337D01*
X149068663Y-102784320D01*
X149582119Y-102997000D01*
X150137881Y-102997000D01*
X150651337Y-102784320D01*
X151044320Y-102391337D01*
X151130000Y-102184487D01*
X151215680Y-102391337D01*
X151608663Y-102784320D01*
X152122119Y-102997000D01*
X152677881Y-102997000D01*
X153191337Y-102784320D01*
X153584320Y-102391337D01*
X153670000Y-102184487D01*
X153755680Y-102391337D01*
X154148663Y-102784320D01*
X154662119Y-102997000D01*
X155217881Y-102997000D01*
X155731337Y-102784320D01*
X156124320Y-102391337D01*
X156337000Y-101877881D01*
X156337000Y-101322119D01*
X156136472Y-100838000D01*
X160409160Y-100838000D01*
X162072822Y-102501663D01*
X162129505Y-102586495D01*
X162465577Y-102811051D01*
X162761935Y-102870000D01*
X162761936Y-102870000D01*
X162862000Y-102889904D01*
X162962063Y-102870000D01*
X164086256Y-102870000D01*
X164132126Y-102889000D01*
X164543874Y-102889000D01*
X164589744Y-102870000D01*
X166624001Y-102870000D01*
X166624000Y-115880343D01*
X166455680Y-116048663D01*
X166243000Y-116562119D01*
X166243000Y-117117881D01*
X166455680Y-117631337D01*
X166848663Y-118024320D01*
X167362119Y-118237000D01*
X167917881Y-118237000D01*
X168431337Y-118024320D01*
X168824320Y-117631337D01*
X169037000Y-117117881D01*
X169037000Y-116562119D01*
X168824320Y-116048663D01*
X168656000Y-115880343D01*
X168656000Y-102462063D01*
X168675904Y-102361999D01*
X168622351Y-102092771D01*
X168597051Y-101965577D01*
X168372495Y-101629505D01*
X168287660Y-101572820D01*
X167921180Y-101206340D01*
X167864495Y-101121505D01*
X167528423Y-100896949D01*
X167232065Y-100838000D01*
X167232063Y-100838000D01*
X167132000Y-100818096D01*
X167031937Y-100838000D01*
X164589744Y-100838000D01*
X164543874Y-100819000D01*
X164132126Y-100819000D01*
X164086256Y-100838000D01*
X163282841Y-100838000D01*
X161619180Y-99174340D01*
X161562495Y-99089505D01*
X161226423Y-98864949D01*
X160930065Y-98806000D01*
X160930063Y-98806000D01*
X160830000Y-98786096D01*
X160729937Y-98806000D01*
X154278064Y-98806000D01*
X154178000Y-98786096D01*
X154077936Y-98806000D01*
X154077935Y-98806000D01*
X153781577Y-98864949D01*
X153445505Y-99089505D01*
X153388822Y-99174337D01*
X152360160Y-100203000D01*
X152122119Y-100203000D01*
X151608663Y-100415680D01*
X151215680Y-100808663D01*
X151130000Y-101015513D01*
X151044320Y-100808663D01*
X150651337Y-100415680D01*
X150137881Y-100203000D01*
X149582119Y-100203000D01*
X149068663Y-100415680D01*
X148675680Y-100808663D01*
X148463000Y-101322119D01*
X138861000Y-101322119D01*
X138861000Y-93859559D01*
X139917423Y-94915982D01*
X141424419Y-95540200D01*
X143055581Y-95540200D01*
X144562577Y-94915982D01*
X145715982Y-93762577D01*
X146340200Y-92255581D01*
X146340200Y-90624419D01*
X145715982Y-89117423D01*
X144659559Y-88061000D01*
X216020441Y-88061000D01*
X214964018Y-89117423D01*
G04 #@! TO.N,+12V*
G36*
X160401000Y-120904000D02*
X160410667Y-120952601D01*
X160438197Y-120993803D01*
X160479399Y-121021333D01*
X160528000Y-121031000D01*
X184125568Y-121031000D01*
X184270793Y-121176225D01*
X184316848Y-121245152D01*
X184589906Y-121427604D01*
X184830697Y-121475500D01*
X184830701Y-121475500D01*
X184911999Y-121491671D01*
X184993297Y-121475500D01*
X198501000Y-121475500D01*
X198501000Y-130937000D01*
X154559000Y-130937000D01*
X154559000Y-116459000D01*
X160401000Y-116459000D01*
X160401000Y-120904000D01*
X160401000Y-120904000D01*
G37*
X160401000Y-120904000D02*
X160410667Y-120952601D01*
X160438197Y-120993803D01*
X160479399Y-121021333D01*
X160528000Y-121031000D01*
X184125568Y-121031000D01*
X184270793Y-121176225D01*
X184316848Y-121245152D01*
X184589906Y-121427604D01*
X184830697Y-121475500D01*
X184830701Y-121475500D01*
X184911999Y-121491671D01*
X184993297Y-121475500D01*
X198501000Y-121475500D01*
X198501000Y-130937000D01*
X154559000Y-130937000D01*
X154559000Y-116459000D01*
X160401000Y-116459000D01*
X160401000Y-120904000D01*
G04 #@! TD*
M02*
