G04 #@! TF.GenerationSoftware,KiCad,Pcbnew,(5.0.2)-1*
G04 #@! TF.CreationDate,2019-12-13T17:07:51-06:00*
G04 #@! TF.ProjectId,Arm-EStop_Hardware,41726d2d-4553-4746-9f70-5f4861726477,rev?*
G04 #@! TF.SameCoordinates,Original*
G04 #@! TF.FileFunction,Soldermask,Top*
G04 #@! TF.FilePolarity,Negative*
%FSLAX46Y46*%
G04 Gerber Fmt 4.6, Leading zero omitted, Abs format (unit mm)*
G04 Created by KiCad (PCBNEW (5.0.2)-1) date 12/13/2019 5:07:51 PM*
%MOMM*%
%LPD*%
G01*
G04 APERTURE LIST*
%ADD10C,0.100000*%
G04 APERTURE END LIST*
D10*
G36*
X218656253Y-128080953D02*
X218869717Y-128123414D01*
X219137822Y-128234467D01*
X219137823Y-128234468D01*
X219379113Y-128395693D01*
X219584307Y-128600887D01*
X219584309Y-128600890D01*
X219745533Y-128842178D01*
X219856586Y-129110283D01*
X219913200Y-129394902D01*
X219913200Y-129685098D01*
X219856586Y-129969717D01*
X219745533Y-130237822D01*
X219745532Y-130237823D01*
X219584307Y-130479113D01*
X219379113Y-130684307D01*
X219379110Y-130684309D01*
X219137822Y-130845533D01*
X218869717Y-130956586D01*
X218656253Y-130999047D01*
X218585099Y-131013200D01*
X218294901Y-131013200D01*
X218223747Y-130999047D01*
X218010283Y-130956586D01*
X217742178Y-130845533D01*
X217500890Y-130684309D01*
X217500887Y-130684307D01*
X217295693Y-130479113D01*
X217134468Y-130237823D01*
X217134467Y-130237822D01*
X217023414Y-129969717D01*
X216966800Y-129685098D01*
X216966800Y-129394902D01*
X217023414Y-129110283D01*
X217134467Y-128842178D01*
X217295691Y-128600890D01*
X217295693Y-128600887D01*
X217500887Y-128395693D01*
X217742177Y-128234468D01*
X217742178Y-128234467D01*
X218010283Y-128123414D01*
X218223747Y-128080953D01*
X218294901Y-128066800D01*
X218585099Y-128066800D01*
X218656253Y-128080953D01*
X218656253Y-128080953D01*
G37*
G36*
X142456253Y-128080953D02*
X142669717Y-128123414D01*
X142937822Y-128234467D01*
X142937823Y-128234468D01*
X143179113Y-128395693D01*
X143384307Y-128600887D01*
X143384309Y-128600890D01*
X143545533Y-128842178D01*
X143656586Y-129110283D01*
X143713200Y-129394902D01*
X143713200Y-129685098D01*
X143656586Y-129969717D01*
X143545533Y-130237822D01*
X143545532Y-130237823D01*
X143384307Y-130479113D01*
X143179113Y-130684307D01*
X143179110Y-130684309D01*
X142937822Y-130845533D01*
X142669717Y-130956586D01*
X142456253Y-130999047D01*
X142385099Y-131013200D01*
X142094901Y-131013200D01*
X142023747Y-130999047D01*
X141810283Y-130956586D01*
X141542178Y-130845533D01*
X141300890Y-130684309D01*
X141300887Y-130684307D01*
X141095693Y-130479113D01*
X140934468Y-130237823D01*
X140934467Y-130237822D01*
X140823414Y-129969717D01*
X140766800Y-129685098D01*
X140766800Y-129394902D01*
X140823414Y-129110283D01*
X140934467Y-128842178D01*
X141095691Y-128600890D01*
X141095693Y-128600887D01*
X141300887Y-128395693D01*
X141542177Y-128234468D01*
X141542178Y-128234467D01*
X141810283Y-128123414D01*
X142023747Y-128080953D01*
X142094901Y-128066800D01*
X142385099Y-128066800D01*
X142456253Y-128080953D01*
X142456253Y-128080953D01*
G37*
G36*
X154054024Y-129830955D02*
X154086736Y-129840879D01*
X154116890Y-129856997D01*
X154143316Y-129878684D01*
X154165003Y-129905110D01*
X154181121Y-129935264D01*
X154191045Y-129967976D01*
X154195000Y-130008138D01*
X154195000Y-130595862D01*
X154191045Y-130636024D01*
X154181121Y-130668736D01*
X154165003Y-130698890D01*
X154143316Y-130725316D01*
X154116890Y-130747003D01*
X154086736Y-130763121D01*
X154054024Y-130773045D01*
X154013862Y-130777000D01*
X153326138Y-130777000D01*
X153285976Y-130773045D01*
X153253264Y-130763121D01*
X153223110Y-130747003D01*
X153196684Y-130725316D01*
X153174997Y-130698890D01*
X153158879Y-130668736D01*
X153148955Y-130636024D01*
X153145000Y-130595862D01*
X153145000Y-130008138D01*
X153148955Y-129967976D01*
X153158879Y-129935264D01*
X153174997Y-129905110D01*
X153196684Y-129878684D01*
X153223110Y-129856997D01*
X153253264Y-129840879D01*
X153285976Y-129830955D01*
X153326138Y-129827000D01*
X154013862Y-129827000D01*
X154054024Y-129830955D01*
X154054024Y-129830955D01*
G37*
G36*
X148494024Y-129830955D02*
X148526736Y-129840879D01*
X148556890Y-129856997D01*
X148583316Y-129878684D01*
X148605003Y-129905110D01*
X148621121Y-129935264D01*
X148631045Y-129967976D01*
X148635000Y-130008138D01*
X148635000Y-130595862D01*
X148631045Y-130636024D01*
X148621121Y-130668736D01*
X148605003Y-130698890D01*
X148583316Y-130725316D01*
X148556890Y-130747003D01*
X148526736Y-130763121D01*
X148494024Y-130773045D01*
X148453862Y-130777000D01*
X147766138Y-130777000D01*
X147725976Y-130773045D01*
X147693264Y-130763121D01*
X147663110Y-130747003D01*
X147636684Y-130725316D01*
X147614997Y-130698890D01*
X147598879Y-130668736D01*
X147588955Y-130636024D01*
X147585000Y-130595862D01*
X147585000Y-130008138D01*
X147588955Y-129967976D01*
X147598879Y-129935264D01*
X147614997Y-129905110D01*
X147636684Y-129878684D01*
X147663110Y-129856997D01*
X147693264Y-129840879D01*
X147725976Y-129830955D01*
X147766138Y-129827000D01*
X148453862Y-129827000D01*
X148494024Y-129830955D01*
X148494024Y-129830955D01*
G37*
G36*
X150244024Y-129830955D02*
X150276736Y-129840879D01*
X150306890Y-129856997D01*
X150333316Y-129878684D01*
X150355003Y-129905110D01*
X150371121Y-129935264D01*
X150381045Y-129967976D01*
X150385000Y-130008138D01*
X150385000Y-130595862D01*
X150381045Y-130636024D01*
X150371121Y-130668736D01*
X150355003Y-130698890D01*
X150333316Y-130725316D01*
X150306890Y-130747003D01*
X150276736Y-130763121D01*
X150244024Y-130773045D01*
X150203862Y-130777000D01*
X149516138Y-130777000D01*
X149475976Y-130773045D01*
X149443264Y-130763121D01*
X149413110Y-130747003D01*
X149386684Y-130725316D01*
X149364997Y-130698890D01*
X149348879Y-130668736D01*
X149338955Y-130636024D01*
X149335000Y-130595862D01*
X149335000Y-130008138D01*
X149338955Y-129967976D01*
X149348879Y-129935264D01*
X149364997Y-129905110D01*
X149386684Y-129878684D01*
X149413110Y-129856997D01*
X149443264Y-129840879D01*
X149475976Y-129830955D01*
X149516138Y-129827000D01*
X150203862Y-129827000D01*
X150244024Y-129830955D01*
X150244024Y-129830955D01*
G37*
G36*
X152304024Y-129830955D02*
X152336736Y-129840879D01*
X152366890Y-129856997D01*
X152393316Y-129878684D01*
X152415003Y-129905110D01*
X152431121Y-129935264D01*
X152441045Y-129967976D01*
X152445000Y-130008138D01*
X152445000Y-130595862D01*
X152441045Y-130636024D01*
X152431121Y-130668736D01*
X152415003Y-130698890D01*
X152393316Y-130725316D01*
X152366890Y-130747003D01*
X152336736Y-130763121D01*
X152304024Y-130773045D01*
X152263862Y-130777000D01*
X151576138Y-130777000D01*
X151535976Y-130773045D01*
X151503264Y-130763121D01*
X151473110Y-130747003D01*
X151446684Y-130725316D01*
X151424997Y-130698890D01*
X151408879Y-130668736D01*
X151398955Y-130636024D01*
X151395000Y-130595862D01*
X151395000Y-130008138D01*
X151398955Y-129967976D01*
X151408879Y-129935264D01*
X151424997Y-129905110D01*
X151446684Y-129878684D01*
X151473110Y-129856997D01*
X151503264Y-129840879D01*
X151535976Y-129830955D01*
X151576138Y-129827000D01*
X152263862Y-129827000D01*
X152304024Y-129830955D01*
X152304024Y-129830955D01*
G37*
G36*
X185740000Y-130690000D02*
X174940000Y-130690000D01*
X174940000Y-121290000D01*
X185740000Y-121290000D01*
X185740000Y-130690000D01*
X185740000Y-130690000D01*
G37*
G36*
X198440000Y-130690000D02*
X187640000Y-130690000D01*
X187640000Y-121290000D01*
X198440000Y-121290000D01*
X198440000Y-130690000D01*
X198440000Y-130690000D01*
G37*
G36*
X202264024Y-126958955D02*
X202296736Y-126968879D01*
X202326890Y-126984997D01*
X202353316Y-127006684D01*
X202375003Y-127033110D01*
X202391121Y-127063264D01*
X202401045Y-127095976D01*
X202405000Y-127136138D01*
X202405000Y-127823862D01*
X202401045Y-127864024D01*
X202391121Y-127896736D01*
X202375003Y-127926890D01*
X202353316Y-127953316D01*
X202326890Y-127975003D01*
X202296736Y-127991121D01*
X202264024Y-128001045D01*
X202223862Y-128005000D01*
X201636138Y-128005000D01*
X201595976Y-128001045D01*
X201563264Y-127991121D01*
X201533110Y-127975003D01*
X201506684Y-127953316D01*
X201484997Y-127926890D01*
X201468879Y-127896736D01*
X201458955Y-127864024D01*
X201455000Y-127823862D01*
X201455000Y-127136138D01*
X201458955Y-127095976D01*
X201468879Y-127063264D01*
X201484997Y-127033110D01*
X201506684Y-127006684D01*
X201533110Y-126984997D01*
X201563264Y-126968879D01*
X201595976Y-126958955D01*
X201636138Y-126955000D01*
X202223862Y-126955000D01*
X202264024Y-126958955D01*
X202264024Y-126958955D01*
G37*
G36*
X204804024Y-126958955D02*
X204836736Y-126968879D01*
X204866890Y-126984997D01*
X204893316Y-127006684D01*
X204915003Y-127033110D01*
X204931121Y-127063264D01*
X204941045Y-127095976D01*
X204945000Y-127136138D01*
X204945000Y-127823862D01*
X204941045Y-127864024D01*
X204931121Y-127896736D01*
X204915003Y-127926890D01*
X204893316Y-127953316D01*
X204866890Y-127975003D01*
X204836736Y-127991121D01*
X204804024Y-128001045D01*
X204763862Y-128005000D01*
X204176138Y-128005000D01*
X204135976Y-128001045D01*
X204103264Y-127991121D01*
X204073110Y-127975003D01*
X204046684Y-127953316D01*
X204024997Y-127926890D01*
X204008879Y-127896736D01*
X203998955Y-127864024D01*
X203995000Y-127823862D01*
X203995000Y-127136138D01*
X203998955Y-127095976D01*
X204008879Y-127063264D01*
X204024997Y-127033110D01*
X204046684Y-127006684D01*
X204073110Y-126984997D01*
X204103264Y-126968879D01*
X204135976Y-126958955D01*
X204176138Y-126955000D01*
X204763862Y-126955000D01*
X204804024Y-126958955D01*
X204804024Y-126958955D01*
G37*
G36*
X207766000Y-126660000D02*
X206166000Y-126660000D01*
X206166000Y-125260000D01*
X207766000Y-125260000D01*
X207766000Y-126660000D01*
X207766000Y-126660000D01*
G37*
G36*
X214966000Y-126660000D02*
X213366000Y-126660000D01*
X213366000Y-125260000D01*
X214966000Y-125260000D01*
X214966000Y-126660000D01*
X214966000Y-126660000D01*
G37*
G36*
X202264024Y-125208955D02*
X202296736Y-125218879D01*
X202326890Y-125234997D01*
X202353316Y-125256684D01*
X202375003Y-125283110D01*
X202391121Y-125313264D01*
X202401045Y-125345976D01*
X202405000Y-125386138D01*
X202405000Y-126073862D01*
X202401045Y-126114024D01*
X202391121Y-126146736D01*
X202375003Y-126176890D01*
X202353316Y-126203316D01*
X202326890Y-126225003D01*
X202296736Y-126241121D01*
X202264024Y-126251045D01*
X202223862Y-126255000D01*
X201636138Y-126255000D01*
X201595976Y-126251045D01*
X201563264Y-126241121D01*
X201533110Y-126225003D01*
X201506684Y-126203316D01*
X201484997Y-126176890D01*
X201468879Y-126146736D01*
X201458955Y-126114024D01*
X201455000Y-126073862D01*
X201455000Y-125386138D01*
X201458955Y-125345976D01*
X201468879Y-125313264D01*
X201484997Y-125283110D01*
X201506684Y-125256684D01*
X201533110Y-125234997D01*
X201563264Y-125218879D01*
X201595976Y-125208955D01*
X201636138Y-125205000D01*
X202223862Y-125205000D01*
X202264024Y-125208955D01*
X202264024Y-125208955D01*
G37*
G36*
X204804024Y-125208955D02*
X204836736Y-125218879D01*
X204866890Y-125234997D01*
X204893316Y-125256684D01*
X204915003Y-125283110D01*
X204931121Y-125313264D01*
X204941045Y-125345976D01*
X204945000Y-125386138D01*
X204945000Y-126073862D01*
X204941045Y-126114024D01*
X204931121Y-126146736D01*
X204915003Y-126176890D01*
X204893316Y-126203316D01*
X204866890Y-126225003D01*
X204836736Y-126241121D01*
X204804024Y-126251045D01*
X204763862Y-126255000D01*
X204176138Y-126255000D01*
X204135976Y-126251045D01*
X204103264Y-126241121D01*
X204073110Y-126225003D01*
X204046684Y-126203316D01*
X204024997Y-126176890D01*
X204008879Y-126146736D01*
X203998955Y-126114024D01*
X203995000Y-126073862D01*
X203995000Y-125386138D01*
X203998955Y-125345976D01*
X204008879Y-125313264D01*
X204024997Y-125283110D01*
X204046684Y-125256684D01*
X204073110Y-125234997D01*
X204103264Y-125218879D01*
X204135976Y-125208955D01*
X204176138Y-125205000D01*
X204763862Y-125205000D01*
X204804024Y-125208955D01*
X204804024Y-125208955D01*
G37*
G36*
X204804024Y-123148955D02*
X204836736Y-123158879D01*
X204866890Y-123174997D01*
X204893316Y-123196684D01*
X204915003Y-123223110D01*
X204931121Y-123253264D01*
X204941045Y-123285976D01*
X204945000Y-123326138D01*
X204945000Y-124013862D01*
X204941045Y-124054024D01*
X204931121Y-124086736D01*
X204915003Y-124116890D01*
X204893316Y-124143316D01*
X204866890Y-124165003D01*
X204836736Y-124181121D01*
X204804024Y-124191045D01*
X204763862Y-124195000D01*
X204176138Y-124195000D01*
X204135976Y-124191045D01*
X204103264Y-124181121D01*
X204073110Y-124165003D01*
X204046684Y-124143316D01*
X204024997Y-124116890D01*
X204008879Y-124086736D01*
X203998955Y-124054024D01*
X203995000Y-124013862D01*
X203995000Y-123326138D01*
X203998955Y-123285976D01*
X204008879Y-123253264D01*
X204024997Y-123223110D01*
X204046684Y-123196684D01*
X204073110Y-123174997D01*
X204103264Y-123158879D01*
X204135976Y-123148955D01*
X204176138Y-123145000D01*
X204763862Y-123145000D01*
X204804024Y-123148955D01*
X204804024Y-123148955D01*
G37*
G36*
X202264024Y-123148955D02*
X202296736Y-123158879D01*
X202326890Y-123174997D01*
X202353316Y-123196684D01*
X202375003Y-123223110D01*
X202391121Y-123253264D01*
X202401045Y-123285976D01*
X202405000Y-123326138D01*
X202405000Y-124013862D01*
X202401045Y-124054024D01*
X202391121Y-124086736D01*
X202375003Y-124116890D01*
X202353316Y-124143316D01*
X202326890Y-124165003D01*
X202296736Y-124181121D01*
X202264024Y-124191045D01*
X202223862Y-124195000D01*
X201636138Y-124195000D01*
X201595976Y-124191045D01*
X201563264Y-124181121D01*
X201533110Y-124165003D01*
X201506684Y-124143316D01*
X201484997Y-124116890D01*
X201468879Y-124086736D01*
X201458955Y-124054024D01*
X201455000Y-124013862D01*
X201455000Y-123326138D01*
X201458955Y-123285976D01*
X201468879Y-123253264D01*
X201484997Y-123223110D01*
X201506684Y-123196684D01*
X201533110Y-123174997D01*
X201563264Y-123158879D01*
X201595976Y-123148955D01*
X201636138Y-123145000D01*
X202223862Y-123145000D01*
X202264024Y-123148955D01*
X202264024Y-123148955D01*
G37*
G36*
X207766000Y-123660000D02*
X206166000Y-123660000D01*
X206166000Y-122260000D01*
X207766000Y-122260000D01*
X207766000Y-123660000D01*
X207766000Y-123660000D01*
G37*
G36*
X214966000Y-123660000D02*
X213366000Y-123660000D01*
X213366000Y-122260000D01*
X214966000Y-122260000D01*
X214966000Y-123660000D01*
X214966000Y-123660000D01*
G37*
G36*
X204804024Y-121398955D02*
X204836736Y-121408879D01*
X204866890Y-121424997D01*
X204893316Y-121446684D01*
X204915003Y-121473110D01*
X204931121Y-121503264D01*
X204941045Y-121535976D01*
X204945000Y-121576138D01*
X204945000Y-122263862D01*
X204941045Y-122304024D01*
X204931121Y-122336736D01*
X204915003Y-122366890D01*
X204893316Y-122393316D01*
X204866890Y-122415003D01*
X204836736Y-122431121D01*
X204804024Y-122441045D01*
X204763862Y-122445000D01*
X204176138Y-122445000D01*
X204135976Y-122441045D01*
X204103264Y-122431121D01*
X204073110Y-122415003D01*
X204046684Y-122393316D01*
X204024997Y-122366890D01*
X204008879Y-122336736D01*
X203998955Y-122304024D01*
X203995000Y-122263862D01*
X203995000Y-121576138D01*
X203998955Y-121535976D01*
X204008879Y-121503264D01*
X204024997Y-121473110D01*
X204046684Y-121446684D01*
X204073110Y-121424997D01*
X204103264Y-121408879D01*
X204135976Y-121398955D01*
X204176138Y-121395000D01*
X204763862Y-121395000D01*
X204804024Y-121398955D01*
X204804024Y-121398955D01*
G37*
G36*
X202264024Y-121398955D02*
X202296736Y-121408879D01*
X202326890Y-121424997D01*
X202353316Y-121446684D01*
X202375003Y-121473110D01*
X202391121Y-121503264D01*
X202401045Y-121535976D01*
X202405000Y-121576138D01*
X202405000Y-122263862D01*
X202401045Y-122304024D01*
X202391121Y-122336736D01*
X202375003Y-122366890D01*
X202353316Y-122393316D01*
X202326890Y-122415003D01*
X202296736Y-122431121D01*
X202264024Y-122441045D01*
X202223862Y-122445000D01*
X201636138Y-122445000D01*
X201595976Y-122441045D01*
X201563264Y-122431121D01*
X201533110Y-122415003D01*
X201506684Y-122393316D01*
X201484997Y-122366890D01*
X201468879Y-122336736D01*
X201458955Y-122304024D01*
X201455000Y-122263862D01*
X201455000Y-121576138D01*
X201458955Y-121535976D01*
X201468879Y-121503264D01*
X201484997Y-121473110D01*
X201506684Y-121446684D01*
X201533110Y-121424997D01*
X201563264Y-121408879D01*
X201595976Y-121398955D01*
X201636138Y-121395000D01*
X202223862Y-121395000D01*
X202264024Y-121398955D01*
X202264024Y-121398955D01*
G37*
G36*
X158220890Y-116937610D02*
X158683140Y-117129080D01*
X159099159Y-117407055D01*
X159452945Y-117760841D01*
X159730920Y-118176860D01*
X159922390Y-118639110D01*
X160020000Y-119129830D01*
X160020000Y-119630170D01*
X159922390Y-120120890D01*
X159730920Y-120583140D01*
X159452945Y-120999159D01*
X159099159Y-121352945D01*
X158683140Y-121630920D01*
X158220890Y-121822390D01*
X157730170Y-121920000D01*
X157229830Y-121920000D01*
X156739110Y-121822390D01*
X156276860Y-121630920D01*
X155860841Y-121352945D01*
X155507055Y-120999159D01*
X155229080Y-120583140D01*
X155037610Y-120120890D01*
X154940000Y-119630170D01*
X154940000Y-119129830D01*
X155037610Y-118639110D01*
X155229080Y-118176860D01*
X155507055Y-117760841D01*
X155860841Y-117407055D01*
X156276860Y-117129080D01*
X156739110Y-116937610D01*
X157229830Y-116840000D01*
X157730170Y-116840000D01*
X158220890Y-116937610D01*
X158220890Y-116937610D01*
G37*
G36*
X203940890Y-114651610D02*
X204403140Y-114843080D01*
X204819159Y-115121055D01*
X205172945Y-115474841D01*
X205450920Y-115890860D01*
X205642390Y-116353110D01*
X205740000Y-116843830D01*
X205740000Y-117344170D01*
X205642390Y-117834890D01*
X205450920Y-118297140D01*
X205172945Y-118713159D01*
X204819159Y-119066945D01*
X204403140Y-119344920D01*
X203940890Y-119536390D01*
X203450170Y-119634000D01*
X202949830Y-119634000D01*
X202459110Y-119536390D01*
X201996860Y-119344920D01*
X201580841Y-119066945D01*
X201227055Y-118713159D01*
X200949080Y-118297140D01*
X200757610Y-117834890D01*
X200660000Y-117344170D01*
X200660000Y-116843830D01*
X200757610Y-116353110D01*
X200949080Y-115890860D01*
X201227055Y-115474841D01*
X201580841Y-115121055D01*
X201996860Y-114843080D01*
X202459110Y-114651610D01*
X202949830Y-114554000D01*
X203450170Y-114554000D01*
X203940890Y-114651610D01*
X203940890Y-114651610D01*
G37*
G36*
X183430000Y-119140000D02*
X182330000Y-119140000D01*
X182330000Y-114540000D01*
X183430000Y-114540000D01*
X183430000Y-119140000D01*
X183430000Y-119140000D01*
G37*
G36*
X191050000Y-119140000D02*
X189950000Y-119140000D01*
X189950000Y-114540000D01*
X191050000Y-114540000D01*
X191050000Y-119140000D01*
X191050000Y-119140000D01*
G37*
G36*
X178350000Y-119140000D02*
X177250000Y-119140000D01*
X177250000Y-114540000D01*
X178350000Y-114540000D01*
X178350000Y-119140000D01*
X178350000Y-119140000D01*
G37*
G36*
X196130000Y-119140000D02*
X195030000Y-119140000D01*
X195030000Y-114540000D01*
X196130000Y-114540000D01*
X196130000Y-119140000D01*
X196130000Y-119140000D01*
G37*
G36*
X167813195Y-116097522D02*
X167862267Y-116107283D01*
X168000942Y-116164724D01*
X168125750Y-116248118D01*
X168231882Y-116354250D01*
X168315276Y-116479058D01*
X168372717Y-116617734D01*
X168402000Y-116764948D01*
X168402000Y-116915052D01*
X168372717Y-117062266D01*
X168315276Y-117200942D01*
X168231882Y-117325750D01*
X168125750Y-117431882D01*
X168125747Y-117431884D01*
X168000942Y-117515276D01*
X167862267Y-117572717D01*
X167813195Y-117582478D01*
X167715052Y-117602000D01*
X167564948Y-117602000D01*
X167466805Y-117582478D01*
X167417733Y-117572717D01*
X167279058Y-117515276D01*
X167154253Y-117431884D01*
X167154250Y-117431882D01*
X167048118Y-117325750D01*
X166964724Y-117200942D01*
X166907283Y-117062266D01*
X166878000Y-116915052D01*
X166878000Y-116764948D01*
X166907283Y-116617734D01*
X166964724Y-116479058D01*
X167048118Y-116354250D01*
X167154250Y-116248118D01*
X167279058Y-116164724D01*
X167417733Y-116107283D01*
X167466805Y-116097522D01*
X167564948Y-116078000D01*
X167715052Y-116078000D01*
X167813195Y-116097522D01*
X167813195Y-116097522D01*
G37*
G36*
X162733195Y-116097522D02*
X162782267Y-116107283D01*
X162920942Y-116164724D01*
X163045750Y-116248118D01*
X163151882Y-116354250D01*
X163235276Y-116479058D01*
X163292717Y-116617734D01*
X163322000Y-116764948D01*
X163322000Y-116915052D01*
X163292717Y-117062266D01*
X163235276Y-117200942D01*
X163151882Y-117325750D01*
X163045750Y-117431882D01*
X163045747Y-117431884D01*
X162920942Y-117515276D01*
X162782267Y-117572717D01*
X162733195Y-117582478D01*
X162635052Y-117602000D01*
X162484948Y-117602000D01*
X162386805Y-117582478D01*
X162337733Y-117572717D01*
X162199058Y-117515276D01*
X162074253Y-117431884D01*
X162074250Y-117431882D01*
X161968118Y-117325750D01*
X161884724Y-117200942D01*
X161827283Y-117062266D01*
X161798000Y-116915052D01*
X161798000Y-116764948D01*
X161827283Y-116617734D01*
X161884724Y-116479058D01*
X161968118Y-116354250D01*
X162074250Y-116248118D01*
X162199058Y-116164724D01*
X162337733Y-116107283D01*
X162386805Y-116097522D01*
X162484948Y-116078000D01*
X162635052Y-116078000D01*
X162733195Y-116097522D01*
X162733195Y-116097522D01*
G37*
G36*
X165273195Y-116097522D02*
X165322267Y-116107283D01*
X165460942Y-116164724D01*
X165585750Y-116248118D01*
X165691882Y-116354250D01*
X165775276Y-116479058D01*
X165832717Y-116617734D01*
X165862000Y-116764948D01*
X165862000Y-116915052D01*
X165832717Y-117062266D01*
X165775276Y-117200942D01*
X165691882Y-117325750D01*
X165585750Y-117431882D01*
X165585747Y-117431884D01*
X165460942Y-117515276D01*
X165322267Y-117572717D01*
X165273195Y-117582478D01*
X165175052Y-117602000D01*
X165024948Y-117602000D01*
X164926805Y-117582478D01*
X164877733Y-117572717D01*
X164739058Y-117515276D01*
X164614253Y-117431884D01*
X164614250Y-117431882D01*
X164508118Y-117325750D01*
X164424724Y-117200942D01*
X164367283Y-117062266D01*
X164338000Y-116915052D01*
X164338000Y-116764948D01*
X164367283Y-116617734D01*
X164424724Y-116479058D01*
X164508118Y-116354250D01*
X164614250Y-116248118D01*
X164739058Y-116164724D01*
X164877733Y-116107283D01*
X164926805Y-116097522D01*
X165024948Y-116078000D01*
X165175052Y-116078000D01*
X165273195Y-116097522D01*
X165273195Y-116097522D01*
G37*
G36*
X162944024Y-113828955D02*
X162976736Y-113838879D01*
X163006890Y-113854997D01*
X163033316Y-113876684D01*
X163055003Y-113903110D01*
X163071121Y-113933264D01*
X163081045Y-113965976D01*
X163085000Y-114006138D01*
X163085000Y-114593862D01*
X163081045Y-114634024D01*
X163071121Y-114666736D01*
X163055003Y-114696890D01*
X163033316Y-114723316D01*
X163006890Y-114745003D01*
X162976736Y-114761121D01*
X162944024Y-114771045D01*
X162903862Y-114775000D01*
X162216138Y-114775000D01*
X162175976Y-114771045D01*
X162143264Y-114761121D01*
X162113110Y-114745003D01*
X162086684Y-114723316D01*
X162064997Y-114696890D01*
X162048879Y-114666736D01*
X162038955Y-114634024D01*
X162035000Y-114593862D01*
X162035000Y-114006138D01*
X162038955Y-113965976D01*
X162048879Y-113933264D01*
X162064997Y-113903110D01*
X162086684Y-113876684D01*
X162113110Y-113854997D01*
X162143264Y-113838879D01*
X162175976Y-113828955D01*
X162216138Y-113825000D01*
X162903862Y-113825000D01*
X162944024Y-113828955D01*
X162944024Y-113828955D01*
G37*
G36*
X164694024Y-113828955D02*
X164726736Y-113838879D01*
X164756890Y-113854997D01*
X164783316Y-113876684D01*
X164805003Y-113903110D01*
X164821121Y-113933264D01*
X164831045Y-113965976D01*
X164835000Y-114006138D01*
X164835000Y-114593862D01*
X164831045Y-114634024D01*
X164821121Y-114666736D01*
X164805003Y-114696890D01*
X164783316Y-114723316D01*
X164756890Y-114745003D01*
X164726736Y-114761121D01*
X164694024Y-114771045D01*
X164653862Y-114775000D01*
X163966138Y-114775000D01*
X163925976Y-114771045D01*
X163893264Y-114761121D01*
X163863110Y-114745003D01*
X163836684Y-114723316D01*
X163814997Y-114696890D01*
X163798879Y-114666736D01*
X163788955Y-114634024D01*
X163785000Y-114593862D01*
X163785000Y-114006138D01*
X163788955Y-113965976D01*
X163798879Y-113933264D01*
X163814997Y-113903110D01*
X163836684Y-113876684D01*
X163863110Y-113854997D01*
X163893264Y-113838879D01*
X163925976Y-113828955D01*
X163966138Y-113825000D01*
X164653862Y-113825000D01*
X164694024Y-113828955D01*
X164694024Y-113828955D01*
G37*
G36*
X166274024Y-113828955D02*
X166306736Y-113838879D01*
X166336890Y-113854997D01*
X166363316Y-113876684D01*
X166385003Y-113903110D01*
X166401121Y-113933264D01*
X166411045Y-113965976D01*
X166415000Y-114006138D01*
X166415000Y-114593862D01*
X166411045Y-114634024D01*
X166401121Y-114666736D01*
X166385003Y-114696890D01*
X166363316Y-114723316D01*
X166336890Y-114745003D01*
X166306736Y-114761121D01*
X166274024Y-114771045D01*
X166233862Y-114775000D01*
X165546138Y-114775000D01*
X165505976Y-114771045D01*
X165473264Y-114761121D01*
X165443110Y-114745003D01*
X165416684Y-114723316D01*
X165394997Y-114696890D01*
X165378879Y-114666736D01*
X165368955Y-114634024D01*
X165365000Y-114593862D01*
X165365000Y-114006138D01*
X165368955Y-113965976D01*
X165378879Y-113933264D01*
X165394997Y-113903110D01*
X165416684Y-113876684D01*
X165443110Y-113854997D01*
X165473264Y-113838879D01*
X165505976Y-113828955D01*
X165546138Y-113825000D01*
X166233862Y-113825000D01*
X166274024Y-113828955D01*
X166274024Y-113828955D01*
G37*
G36*
X168024024Y-113828955D02*
X168056736Y-113838879D01*
X168086890Y-113854997D01*
X168113316Y-113876684D01*
X168135003Y-113903110D01*
X168151121Y-113933264D01*
X168161045Y-113965976D01*
X168165000Y-114006138D01*
X168165000Y-114593862D01*
X168161045Y-114634024D01*
X168151121Y-114666736D01*
X168135003Y-114696890D01*
X168113316Y-114723316D01*
X168086890Y-114745003D01*
X168056736Y-114761121D01*
X168024024Y-114771045D01*
X167983862Y-114775000D01*
X167296138Y-114775000D01*
X167255976Y-114771045D01*
X167223264Y-114761121D01*
X167193110Y-114745003D01*
X167166684Y-114723316D01*
X167144997Y-114696890D01*
X167128879Y-114666736D01*
X167118955Y-114634024D01*
X167115000Y-114593862D01*
X167115000Y-114006138D01*
X167118955Y-113965976D01*
X167128879Y-113933264D01*
X167144997Y-113903110D01*
X167166684Y-113876684D01*
X167193110Y-113854997D01*
X167223264Y-113838879D01*
X167255976Y-113828955D01*
X167296138Y-113825000D01*
X167983862Y-113825000D01*
X168024024Y-113828955D01*
X168024024Y-113828955D01*
G37*
G36*
X158220890Y-109063610D02*
X158683140Y-109255080D01*
X159099159Y-109533055D01*
X159452945Y-109886841D01*
X159730920Y-110302860D01*
X159922390Y-110765110D01*
X160020000Y-111255830D01*
X160020000Y-111756170D01*
X159922390Y-112246890D01*
X159730920Y-112709140D01*
X159452945Y-113125159D01*
X159099159Y-113478945D01*
X158683140Y-113756920D01*
X158220890Y-113948390D01*
X157730170Y-114046000D01*
X157229830Y-114046000D01*
X156739110Y-113948390D01*
X156276860Y-113756920D01*
X155860841Y-113478945D01*
X155507055Y-113125159D01*
X155229080Y-112709140D01*
X155037610Y-112246890D01*
X154940000Y-111756170D01*
X154940000Y-111255830D01*
X155037610Y-110765110D01*
X155229080Y-110302860D01*
X155507055Y-109886841D01*
X155860841Y-109533055D01*
X156276860Y-109255080D01*
X156739110Y-109063610D01*
X157229830Y-108966000D01*
X157730170Y-108966000D01*
X158220890Y-109063610D01*
X158220890Y-109063610D01*
G37*
G36*
X173612024Y-113066955D02*
X173644736Y-113076879D01*
X173674890Y-113092997D01*
X173701316Y-113114684D01*
X173723003Y-113141110D01*
X173739121Y-113171264D01*
X173749045Y-113203976D01*
X173753000Y-113244138D01*
X173753000Y-113831862D01*
X173749045Y-113872024D01*
X173739121Y-113904736D01*
X173723003Y-113934890D01*
X173701316Y-113961316D01*
X173674890Y-113983003D01*
X173644736Y-113999121D01*
X173612024Y-114009045D01*
X173571862Y-114013000D01*
X172884138Y-114013000D01*
X172843976Y-114009045D01*
X172811264Y-113999121D01*
X172781110Y-113983003D01*
X172754684Y-113961316D01*
X172732997Y-113934890D01*
X172716879Y-113904736D01*
X172706955Y-113872024D01*
X172703000Y-113831862D01*
X172703000Y-113244138D01*
X172706955Y-113203976D01*
X172716879Y-113171264D01*
X172732997Y-113141110D01*
X172754684Y-113114684D01*
X172781110Y-113092997D01*
X172811264Y-113076879D01*
X172843976Y-113066955D01*
X172884138Y-113063000D01*
X173571862Y-113063000D01*
X173612024Y-113066955D01*
X173612024Y-113066955D01*
G37*
G36*
X171862024Y-113066955D02*
X171894736Y-113076879D01*
X171924890Y-113092997D01*
X171951316Y-113114684D01*
X171973003Y-113141110D01*
X171989121Y-113171264D01*
X171999045Y-113203976D01*
X172003000Y-113244138D01*
X172003000Y-113831862D01*
X171999045Y-113872024D01*
X171989121Y-113904736D01*
X171973003Y-113934890D01*
X171951316Y-113961316D01*
X171924890Y-113983003D01*
X171894736Y-113999121D01*
X171862024Y-114009045D01*
X171821862Y-114013000D01*
X171134138Y-114013000D01*
X171093976Y-114009045D01*
X171061264Y-113999121D01*
X171031110Y-113983003D01*
X171004684Y-113961316D01*
X170982997Y-113934890D01*
X170966879Y-113904736D01*
X170956955Y-113872024D01*
X170953000Y-113831862D01*
X170953000Y-113244138D01*
X170956955Y-113203976D01*
X170966879Y-113171264D01*
X170982997Y-113141110D01*
X171004684Y-113114684D01*
X171031110Y-113092997D01*
X171061264Y-113076879D01*
X171093976Y-113066955D01*
X171134138Y-113063000D01*
X171821862Y-113063000D01*
X171862024Y-113066955D01*
X171862024Y-113066955D01*
G37*
G36*
X196753193Y-109388473D02*
X197009744Y-109494740D01*
X197240634Y-109649016D01*
X197436984Y-109845366D01*
X197591260Y-110076256D01*
X197697527Y-110332807D01*
X197751700Y-110605155D01*
X197751700Y-110882845D01*
X197697527Y-111155193D01*
X197591260Y-111411744D01*
X197436984Y-111642634D01*
X197240634Y-111838984D01*
X197009744Y-111993260D01*
X196753193Y-112099527D01*
X196480845Y-112153700D01*
X196203155Y-112153700D01*
X195930807Y-112099527D01*
X195674256Y-111993260D01*
X195443366Y-111838984D01*
X195247016Y-111642634D01*
X195092740Y-111411744D01*
X194986473Y-111155193D01*
X194932300Y-110882845D01*
X194932300Y-110605155D01*
X194986473Y-110332807D01*
X195092740Y-110076256D01*
X195247016Y-109845366D01*
X195443366Y-109649016D01*
X195674256Y-109494740D01*
X195930807Y-109388473D01*
X196203155Y-109334300D01*
X196480845Y-109334300D01*
X196753193Y-109388473D01*
X196753193Y-109388473D01*
G37*
G36*
X183291193Y-109388473D02*
X183547744Y-109494740D01*
X183778634Y-109649016D01*
X183974984Y-109845366D01*
X184129260Y-110076256D01*
X184235527Y-110332807D01*
X184289700Y-110605155D01*
X184289700Y-110882845D01*
X184235527Y-111155193D01*
X184129260Y-111411744D01*
X183974984Y-111642634D01*
X183778634Y-111838984D01*
X183547744Y-111993260D01*
X183291193Y-112099527D01*
X183018845Y-112153700D01*
X182741155Y-112153700D01*
X182468807Y-112099527D01*
X182212256Y-111993260D01*
X181981366Y-111838984D01*
X181785016Y-111642634D01*
X181630740Y-111411744D01*
X181524473Y-111155193D01*
X181470300Y-110882845D01*
X181470300Y-110605155D01*
X181524473Y-110332807D01*
X181630740Y-110076256D01*
X181785016Y-109845366D01*
X181981366Y-109649016D01*
X182212256Y-109494740D01*
X182468807Y-109388473D01*
X182741155Y-109334300D01*
X183018845Y-109334300D01*
X183291193Y-109388473D01*
X183291193Y-109388473D01*
G37*
G36*
X169365000Y-112060000D02*
X167815000Y-112060000D01*
X167815000Y-111460000D01*
X169365000Y-111460000D01*
X169365000Y-112060000D01*
X169365000Y-112060000D01*
G37*
G36*
X174765000Y-112060000D02*
X173215000Y-112060000D01*
X173215000Y-111460000D01*
X174765000Y-111460000D01*
X174765000Y-112060000D01*
X174765000Y-112060000D01*
G37*
G36*
X203940890Y-106777610D02*
X204403140Y-106969080D01*
X204819159Y-107247055D01*
X205172945Y-107600841D01*
X205450920Y-108016860D01*
X205642390Y-108479110D01*
X205740000Y-108969830D01*
X205740000Y-109470170D01*
X205642390Y-109960890D01*
X205450920Y-110423140D01*
X205172945Y-110839159D01*
X204819159Y-111192945D01*
X204403140Y-111470920D01*
X203940890Y-111662390D01*
X203450170Y-111760000D01*
X202949830Y-111760000D01*
X202459110Y-111662390D01*
X201996860Y-111470920D01*
X201580841Y-111192945D01*
X201227055Y-110839159D01*
X200949080Y-110423140D01*
X200757610Y-109960890D01*
X200660000Y-109470170D01*
X200660000Y-108969830D01*
X200757610Y-108479110D01*
X200949080Y-108016860D01*
X201227055Y-107600841D01*
X201580841Y-107247055D01*
X201996860Y-106969080D01*
X202459110Y-106777610D01*
X202949830Y-106680000D01*
X203450170Y-106680000D01*
X203940890Y-106777610D01*
X203940890Y-106777610D01*
G37*
G36*
X174765000Y-110790000D02*
X173215000Y-110790000D01*
X173215000Y-110190000D01*
X174765000Y-110190000D01*
X174765000Y-110790000D01*
X174765000Y-110790000D01*
G37*
G36*
X169365000Y-110790000D02*
X167815000Y-110790000D01*
X167815000Y-110190000D01*
X169365000Y-110190000D01*
X169365000Y-110790000D01*
X169365000Y-110790000D01*
G37*
G36*
X164496024Y-109764955D02*
X164528736Y-109774879D01*
X164558890Y-109790997D01*
X164585316Y-109812684D01*
X164607003Y-109839110D01*
X164623121Y-109869264D01*
X164633045Y-109901976D01*
X164637000Y-109942138D01*
X164637000Y-110529862D01*
X164633045Y-110570024D01*
X164623121Y-110602736D01*
X164607003Y-110632890D01*
X164585316Y-110659316D01*
X164558890Y-110681003D01*
X164528736Y-110697121D01*
X164496024Y-110707045D01*
X164455862Y-110711000D01*
X163768138Y-110711000D01*
X163727976Y-110707045D01*
X163695264Y-110697121D01*
X163665110Y-110681003D01*
X163638684Y-110659316D01*
X163616997Y-110632890D01*
X163600879Y-110602736D01*
X163590955Y-110570024D01*
X163587000Y-110529862D01*
X163587000Y-109942138D01*
X163590955Y-109901976D01*
X163600879Y-109869264D01*
X163616997Y-109839110D01*
X163638684Y-109812684D01*
X163665110Y-109790997D01*
X163695264Y-109774879D01*
X163727976Y-109764955D01*
X163768138Y-109761000D01*
X164455862Y-109761000D01*
X164496024Y-109764955D01*
X164496024Y-109764955D01*
G37*
G36*
X166246024Y-109764955D02*
X166278736Y-109774879D01*
X166308890Y-109790997D01*
X166335316Y-109812684D01*
X166357003Y-109839110D01*
X166373121Y-109869264D01*
X166383045Y-109901976D01*
X166387000Y-109942138D01*
X166387000Y-110529862D01*
X166383045Y-110570024D01*
X166373121Y-110602736D01*
X166357003Y-110632890D01*
X166335316Y-110659316D01*
X166308890Y-110681003D01*
X166278736Y-110697121D01*
X166246024Y-110707045D01*
X166205862Y-110711000D01*
X165518138Y-110711000D01*
X165477976Y-110707045D01*
X165445264Y-110697121D01*
X165415110Y-110681003D01*
X165388684Y-110659316D01*
X165366997Y-110632890D01*
X165350879Y-110602736D01*
X165340955Y-110570024D01*
X165337000Y-110529862D01*
X165337000Y-109942138D01*
X165340955Y-109901976D01*
X165350879Y-109869264D01*
X165366997Y-109839110D01*
X165388684Y-109812684D01*
X165415110Y-109790997D01*
X165445264Y-109774879D01*
X165477976Y-109764955D01*
X165518138Y-109761000D01*
X166205862Y-109761000D01*
X166246024Y-109764955D01*
X166246024Y-109764955D01*
G37*
G36*
X174765000Y-109520000D02*
X173215000Y-109520000D01*
X173215000Y-108920000D01*
X174765000Y-108920000D01*
X174765000Y-109520000D01*
X174765000Y-109520000D01*
G37*
G36*
X169365000Y-109520000D02*
X167815000Y-109520000D01*
X167815000Y-108920000D01*
X169365000Y-108920000D01*
X169365000Y-109520000D01*
X169365000Y-109520000D01*
G37*
G36*
X196753193Y-105959473D02*
X197009744Y-106065740D01*
X197240634Y-106220016D01*
X197436984Y-106416366D01*
X197591260Y-106647256D01*
X197697527Y-106903807D01*
X197751700Y-107176155D01*
X197751700Y-107453845D01*
X197697527Y-107726193D01*
X197591260Y-107982744D01*
X197436984Y-108213634D01*
X197240634Y-108409984D01*
X197009744Y-108564260D01*
X196753193Y-108670527D01*
X196480845Y-108724700D01*
X196203155Y-108724700D01*
X195930807Y-108670527D01*
X195674256Y-108564260D01*
X195443366Y-108409984D01*
X195247016Y-108213634D01*
X195092740Y-107982744D01*
X194986473Y-107726193D01*
X194932300Y-107453845D01*
X194932300Y-107176155D01*
X194986473Y-106903807D01*
X195092740Y-106647256D01*
X195247016Y-106416366D01*
X195443366Y-106220016D01*
X195674256Y-106065740D01*
X195930807Y-105959473D01*
X196203155Y-105905300D01*
X196480845Y-105905300D01*
X196753193Y-105959473D01*
X196753193Y-105959473D01*
G37*
G36*
X183291193Y-105959473D02*
X183547744Y-106065740D01*
X183778634Y-106220016D01*
X183974984Y-106416366D01*
X184129260Y-106647256D01*
X184235527Y-106903807D01*
X184289700Y-107176155D01*
X184289700Y-107453845D01*
X184235527Y-107726193D01*
X184129260Y-107982744D01*
X183974984Y-108213634D01*
X183778634Y-108409984D01*
X183547744Y-108564260D01*
X183291193Y-108670527D01*
X183018845Y-108724700D01*
X182741155Y-108724700D01*
X182468807Y-108670527D01*
X182212256Y-108564260D01*
X181981366Y-108409984D01*
X181785016Y-108213634D01*
X181630740Y-107982744D01*
X181524473Y-107726193D01*
X181470300Y-107453845D01*
X181470300Y-107176155D01*
X181524473Y-106903807D01*
X181630740Y-106647256D01*
X181785016Y-106416366D01*
X181981366Y-106220016D01*
X182212256Y-106065740D01*
X182468807Y-105959473D01*
X182741155Y-105905300D01*
X183018845Y-105905300D01*
X183291193Y-105959473D01*
X183291193Y-105959473D01*
G37*
G36*
X174765000Y-108250000D02*
X173215000Y-108250000D01*
X173215000Y-107650000D01*
X174765000Y-107650000D01*
X174765000Y-108250000D01*
X174765000Y-108250000D01*
G37*
G36*
X169365000Y-108250000D02*
X167815000Y-108250000D01*
X167815000Y-107650000D01*
X169365000Y-107650000D01*
X169365000Y-108250000D01*
X169365000Y-108250000D01*
G37*
G36*
X166246024Y-107097955D02*
X166278736Y-107107879D01*
X166308890Y-107123997D01*
X166335316Y-107145684D01*
X166357003Y-107172110D01*
X166373121Y-107202264D01*
X166383045Y-107234976D01*
X166387000Y-107275138D01*
X166387000Y-107862862D01*
X166383045Y-107903024D01*
X166373121Y-107935736D01*
X166357003Y-107965890D01*
X166335316Y-107992316D01*
X166308890Y-108014003D01*
X166278736Y-108030121D01*
X166246024Y-108040045D01*
X166205862Y-108044000D01*
X165518138Y-108044000D01*
X165477976Y-108040045D01*
X165445264Y-108030121D01*
X165415110Y-108014003D01*
X165388684Y-107992316D01*
X165366997Y-107965890D01*
X165350879Y-107935736D01*
X165340955Y-107903024D01*
X165337000Y-107862862D01*
X165337000Y-107275138D01*
X165340955Y-107234976D01*
X165350879Y-107202264D01*
X165366997Y-107172110D01*
X165388684Y-107145684D01*
X165415110Y-107123997D01*
X165445264Y-107107879D01*
X165477976Y-107097955D01*
X165518138Y-107094000D01*
X166205862Y-107094000D01*
X166246024Y-107097955D01*
X166246024Y-107097955D01*
G37*
G36*
X164496024Y-107097955D02*
X164528736Y-107107879D01*
X164558890Y-107123997D01*
X164585316Y-107145684D01*
X164607003Y-107172110D01*
X164623121Y-107202264D01*
X164633045Y-107234976D01*
X164637000Y-107275138D01*
X164637000Y-107862862D01*
X164633045Y-107903024D01*
X164623121Y-107935736D01*
X164607003Y-107965890D01*
X164585316Y-107992316D01*
X164558890Y-108014003D01*
X164528736Y-108030121D01*
X164496024Y-108040045D01*
X164455862Y-108044000D01*
X163768138Y-108044000D01*
X163727976Y-108040045D01*
X163695264Y-108030121D01*
X163665110Y-108014003D01*
X163638684Y-107992316D01*
X163616997Y-107965890D01*
X163600879Y-107935736D01*
X163590955Y-107903024D01*
X163587000Y-107862862D01*
X163587000Y-107275138D01*
X163590955Y-107234976D01*
X163600879Y-107202264D01*
X163616997Y-107172110D01*
X163638684Y-107145684D01*
X163665110Y-107123997D01*
X163695264Y-107107879D01*
X163727976Y-107097955D01*
X163768138Y-107094000D01*
X164455862Y-107094000D01*
X164496024Y-107097955D01*
X164496024Y-107097955D01*
G37*
G36*
X174765000Y-105710000D02*
X173215000Y-105710000D01*
X173215000Y-105110000D01*
X174765000Y-105110000D01*
X174765000Y-105710000D01*
X174765000Y-105710000D01*
G37*
G36*
X169365000Y-105710000D02*
X167815000Y-105710000D01*
X167815000Y-105110000D01*
X169365000Y-105110000D01*
X169365000Y-105710000D01*
X169365000Y-105710000D01*
G37*
G36*
X196753193Y-101895473D02*
X197009744Y-102001740D01*
X197240634Y-102156016D01*
X197436984Y-102352366D01*
X197591260Y-102583256D01*
X197697527Y-102839807D01*
X197751700Y-103112155D01*
X197751700Y-103389845D01*
X197697527Y-103662193D01*
X197591260Y-103918744D01*
X197436984Y-104149634D01*
X197240634Y-104345984D01*
X197009744Y-104500260D01*
X196753193Y-104606527D01*
X196480845Y-104660700D01*
X196203155Y-104660700D01*
X195930807Y-104606527D01*
X195674256Y-104500260D01*
X195443366Y-104345984D01*
X195247016Y-104149634D01*
X195092740Y-103918744D01*
X194986473Y-103662193D01*
X194932300Y-103389845D01*
X194932300Y-103112155D01*
X194986473Y-102839807D01*
X195092740Y-102583256D01*
X195247016Y-102352366D01*
X195443366Y-102156016D01*
X195674256Y-102001740D01*
X195930807Y-101895473D01*
X196203155Y-101841300D01*
X196480845Y-101841300D01*
X196753193Y-101895473D01*
X196753193Y-101895473D01*
G37*
G36*
X183291193Y-101895473D02*
X183547744Y-102001740D01*
X183778634Y-102156016D01*
X183974984Y-102352366D01*
X184129260Y-102583256D01*
X184235527Y-102839807D01*
X184289700Y-103112155D01*
X184289700Y-103389845D01*
X184235527Y-103662193D01*
X184129260Y-103918744D01*
X183974984Y-104149634D01*
X183778634Y-104345984D01*
X183547744Y-104500260D01*
X183291193Y-104606527D01*
X183018845Y-104660700D01*
X182741155Y-104660700D01*
X182468807Y-104606527D01*
X182212256Y-104500260D01*
X181981366Y-104345984D01*
X181785016Y-104149634D01*
X181630740Y-103918744D01*
X181524473Y-103662193D01*
X181470300Y-103389845D01*
X181470300Y-103112155D01*
X181524473Y-102839807D01*
X181630740Y-102583256D01*
X181785016Y-102352366D01*
X181981366Y-102156016D01*
X182212256Y-102001740D01*
X182468807Y-101895473D01*
X182741155Y-101841300D01*
X183018845Y-101841300D01*
X183291193Y-101895473D01*
X183291193Y-101895473D01*
G37*
G36*
X174765000Y-104440000D02*
X173215000Y-104440000D01*
X173215000Y-103840000D01*
X174765000Y-103840000D01*
X174765000Y-104440000D01*
X174765000Y-104440000D01*
G37*
G36*
X169365000Y-104440000D02*
X167815000Y-104440000D01*
X167815000Y-103840000D01*
X169365000Y-103840000D01*
X169365000Y-104440000D01*
X169365000Y-104440000D01*
G37*
G36*
X203940890Y-98903610D02*
X204403140Y-99095080D01*
X204819159Y-99373055D01*
X205172945Y-99726841D01*
X205450920Y-100142860D01*
X205642390Y-100605110D01*
X205740000Y-101095830D01*
X205740000Y-101596170D01*
X205642390Y-102086890D01*
X205450920Y-102549140D01*
X205172945Y-102965159D01*
X204819159Y-103318945D01*
X204403140Y-103596920D01*
X203940890Y-103788390D01*
X203450170Y-103886000D01*
X202949830Y-103886000D01*
X202459110Y-103788390D01*
X201996860Y-103596920D01*
X201580841Y-103318945D01*
X201227055Y-102965159D01*
X200949080Y-102549140D01*
X200757610Y-102086890D01*
X200660000Y-101596170D01*
X200660000Y-101095830D01*
X200757610Y-100605110D01*
X200949080Y-100142860D01*
X201227055Y-99726841D01*
X201580841Y-99373055D01*
X201996860Y-99095080D01*
X202459110Y-98903610D01*
X202949830Y-98806000D01*
X203450170Y-98806000D01*
X203940890Y-98903610D01*
X203940890Y-98903610D01*
G37*
G36*
X169365000Y-103170000D02*
X167815000Y-103170000D01*
X167815000Y-102570000D01*
X169365000Y-102570000D01*
X169365000Y-103170000D01*
X169365000Y-103170000D01*
G37*
G36*
X174765000Y-103170000D02*
X173215000Y-103170000D01*
X173215000Y-102570000D01*
X174765000Y-102570000D01*
X174765000Y-103170000D01*
X174765000Y-103170000D01*
G37*
G36*
X152573195Y-100857522D02*
X152622267Y-100867283D01*
X152742256Y-100916984D01*
X152760942Y-100924724D01*
X152885750Y-101008118D01*
X152991882Y-101114250D01*
X153075276Y-101239058D01*
X153132717Y-101377734D01*
X153162000Y-101524948D01*
X153162000Y-101675052D01*
X153132717Y-101822266D01*
X153075276Y-101960942D01*
X152991882Y-102085750D01*
X152885750Y-102191882D01*
X152885747Y-102191884D01*
X152760942Y-102275276D01*
X152622267Y-102332717D01*
X152573195Y-102342478D01*
X152475052Y-102362000D01*
X152324948Y-102362000D01*
X152226805Y-102342478D01*
X152177733Y-102332717D01*
X152039058Y-102275276D01*
X151914253Y-102191884D01*
X151914250Y-102191882D01*
X151808118Y-102085750D01*
X151724724Y-101960942D01*
X151667283Y-101822266D01*
X151638000Y-101675052D01*
X151638000Y-101524948D01*
X151667283Y-101377734D01*
X151724724Y-101239058D01*
X151808118Y-101114250D01*
X151914250Y-101008118D01*
X152039058Y-100924724D01*
X152057744Y-100916984D01*
X152177733Y-100867283D01*
X152226805Y-100857522D01*
X152324948Y-100838000D01*
X152475052Y-100838000D01*
X152573195Y-100857522D01*
X152573195Y-100857522D01*
G37*
G36*
X157653195Y-100857522D02*
X157702267Y-100867283D01*
X157822256Y-100916984D01*
X157840942Y-100924724D01*
X157965750Y-101008118D01*
X158071882Y-101114250D01*
X158155276Y-101239058D01*
X158212717Y-101377734D01*
X158242000Y-101524948D01*
X158242000Y-101675052D01*
X158212717Y-101822266D01*
X158155276Y-101960942D01*
X158071882Y-102085750D01*
X157965750Y-102191882D01*
X157965747Y-102191884D01*
X157840942Y-102275276D01*
X157702267Y-102332717D01*
X157653195Y-102342478D01*
X157555052Y-102362000D01*
X157404948Y-102362000D01*
X157306805Y-102342478D01*
X157257733Y-102332717D01*
X157119058Y-102275276D01*
X156994253Y-102191884D01*
X156994250Y-102191882D01*
X156888118Y-102085750D01*
X156804724Y-101960942D01*
X156747283Y-101822266D01*
X156718000Y-101675052D01*
X156718000Y-101524948D01*
X156747283Y-101377734D01*
X156804724Y-101239058D01*
X156888118Y-101114250D01*
X156994250Y-101008118D01*
X157119058Y-100924724D01*
X157137744Y-100916984D01*
X157257733Y-100867283D01*
X157306805Y-100857522D01*
X157404948Y-100838000D01*
X157555052Y-100838000D01*
X157653195Y-100857522D01*
X157653195Y-100857522D01*
G37*
G36*
X150033195Y-100857522D02*
X150082267Y-100867283D01*
X150202256Y-100916984D01*
X150220942Y-100924724D01*
X150345750Y-101008118D01*
X150451882Y-101114250D01*
X150535276Y-101239058D01*
X150592717Y-101377734D01*
X150622000Y-101524948D01*
X150622000Y-101675052D01*
X150592717Y-101822266D01*
X150535276Y-101960942D01*
X150451882Y-102085750D01*
X150345750Y-102191882D01*
X150345747Y-102191884D01*
X150220942Y-102275276D01*
X150082267Y-102332717D01*
X150033195Y-102342478D01*
X149935052Y-102362000D01*
X149784948Y-102362000D01*
X149686805Y-102342478D01*
X149637733Y-102332717D01*
X149499058Y-102275276D01*
X149374253Y-102191884D01*
X149374250Y-102191882D01*
X149268118Y-102085750D01*
X149184724Y-101960942D01*
X149127283Y-101822266D01*
X149098000Y-101675052D01*
X149098000Y-101524948D01*
X149127283Y-101377734D01*
X149184724Y-101239058D01*
X149268118Y-101114250D01*
X149374250Y-101008118D01*
X149499058Y-100924724D01*
X149517744Y-100916984D01*
X149637733Y-100867283D01*
X149686805Y-100857522D01*
X149784948Y-100838000D01*
X149935052Y-100838000D01*
X150033195Y-100857522D01*
X150033195Y-100857522D01*
G37*
G36*
X155113195Y-100857522D02*
X155162267Y-100867283D01*
X155282256Y-100916984D01*
X155300942Y-100924724D01*
X155425750Y-101008118D01*
X155531882Y-101114250D01*
X155615276Y-101239058D01*
X155672717Y-101377734D01*
X155702000Y-101524948D01*
X155702000Y-101675052D01*
X155672717Y-101822266D01*
X155615276Y-101960942D01*
X155531882Y-102085750D01*
X155425750Y-102191882D01*
X155425747Y-102191884D01*
X155300942Y-102275276D01*
X155162267Y-102332717D01*
X155113195Y-102342478D01*
X155015052Y-102362000D01*
X154864948Y-102362000D01*
X154766805Y-102342478D01*
X154717733Y-102332717D01*
X154579058Y-102275276D01*
X154454253Y-102191884D01*
X154454250Y-102191882D01*
X154348118Y-102085750D01*
X154264724Y-101960942D01*
X154207283Y-101822266D01*
X154178000Y-101675052D01*
X154178000Y-101524948D01*
X154207283Y-101377734D01*
X154264724Y-101239058D01*
X154348118Y-101114250D01*
X154454250Y-101008118D01*
X154579058Y-100924724D01*
X154597744Y-100916984D01*
X154717733Y-100867283D01*
X154766805Y-100857522D01*
X154864948Y-100838000D01*
X155015052Y-100838000D01*
X155113195Y-100857522D01*
X155113195Y-100857522D01*
G37*
G36*
X174765000Y-101900000D02*
X173215000Y-101900000D01*
X173215000Y-101300000D01*
X174765000Y-101300000D01*
X174765000Y-101900000D01*
X174765000Y-101900000D01*
G37*
G36*
X169365000Y-101900000D02*
X167815000Y-101900000D01*
X167815000Y-101300000D01*
X169365000Y-101300000D01*
X169365000Y-101900000D01*
X169365000Y-101900000D01*
G37*
G36*
X183291193Y-98466473D02*
X183547744Y-98572740D01*
X183778634Y-98727016D01*
X183974984Y-98923366D01*
X184129260Y-99154256D01*
X184235527Y-99410807D01*
X184289700Y-99683155D01*
X184289700Y-99960845D01*
X184235527Y-100233193D01*
X184129260Y-100489744D01*
X183974984Y-100720634D01*
X183778634Y-100916984D01*
X183547744Y-101071260D01*
X183291193Y-101177527D01*
X183018845Y-101231700D01*
X182741155Y-101231700D01*
X182468807Y-101177527D01*
X182212256Y-101071260D01*
X181981366Y-100916984D01*
X181785016Y-100720634D01*
X181630740Y-100489744D01*
X181524473Y-100233193D01*
X181470300Y-99960845D01*
X181470300Y-99683155D01*
X181524473Y-99410807D01*
X181630740Y-99154256D01*
X181785016Y-98923366D01*
X181981366Y-98727016D01*
X182212256Y-98572740D01*
X182468807Y-98466473D01*
X182741155Y-98412300D01*
X183018845Y-98412300D01*
X183291193Y-98466473D01*
X183291193Y-98466473D01*
G37*
G36*
X196753193Y-98466473D02*
X197009744Y-98572740D01*
X197240634Y-98727016D01*
X197436984Y-98923366D01*
X197591260Y-99154256D01*
X197697527Y-99410807D01*
X197751700Y-99683155D01*
X197751700Y-99960845D01*
X197697527Y-100233193D01*
X197591260Y-100489744D01*
X197436984Y-100720634D01*
X197240634Y-100916984D01*
X197009744Y-101071260D01*
X196753193Y-101177527D01*
X196480845Y-101231700D01*
X196203155Y-101231700D01*
X195930807Y-101177527D01*
X195674256Y-101071260D01*
X195443366Y-100916984D01*
X195247016Y-100720634D01*
X195092740Y-100489744D01*
X194986473Y-100233193D01*
X194932300Y-99960845D01*
X194932300Y-99683155D01*
X194986473Y-99410807D01*
X195092740Y-99154256D01*
X195247016Y-98923366D01*
X195443366Y-98727016D01*
X195674256Y-98572740D01*
X195930807Y-98466473D01*
X196203155Y-98412300D01*
X196480845Y-98412300D01*
X196753193Y-98466473D01*
X196753193Y-98466473D01*
G37*
G36*
X171862024Y-99350955D02*
X171894736Y-99360879D01*
X171924890Y-99376997D01*
X171951316Y-99398684D01*
X171973003Y-99425110D01*
X171989121Y-99455264D01*
X171999045Y-99487976D01*
X172003000Y-99528138D01*
X172003000Y-100115862D01*
X171999045Y-100156024D01*
X171989121Y-100188736D01*
X171973003Y-100218890D01*
X171951316Y-100245316D01*
X171924890Y-100267003D01*
X171894736Y-100283121D01*
X171862024Y-100293045D01*
X171821862Y-100297000D01*
X171134138Y-100297000D01*
X171093976Y-100293045D01*
X171061264Y-100283121D01*
X171031110Y-100267003D01*
X171004684Y-100245316D01*
X170982997Y-100218890D01*
X170966879Y-100188736D01*
X170956955Y-100156024D01*
X170953000Y-100115862D01*
X170953000Y-99528138D01*
X170956955Y-99487976D01*
X170966879Y-99455264D01*
X170982997Y-99425110D01*
X171004684Y-99398684D01*
X171031110Y-99376997D01*
X171061264Y-99360879D01*
X171093976Y-99350955D01*
X171134138Y-99347000D01*
X171821862Y-99347000D01*
X171862024Y-99350955D01*
X171862024Y-99350955D01*
G37*
G36*
X173612024Y-99350955D02*
X173644736Y-99360879D01*
X173674890Y-99376997D01*
X173701316Y-99398684D01*
X173723003Y-99425110D01*
X173739121Y-99455264D01*
X173749045Y-99487976D01*
X173753000Y-99528138D01*
X173753000Y-100115862D01*
X173749045Y-100156024D01*
X173739121Y-100188736D01*
X173723003Y-100218890D01*
X173701316Y-100245316D01*
X173674890Y-100267003D01*
X173644736Y-100283121D01*
X173612024Y-100293045D01*
X173571862Y-100297000D01*
X172884138Y-100297000D01*
X172843976Y-100293045D01*
X172811264Y-100283121D01*
X172781110Y-100267003D01*
X172754684Y-100245316D01*
X172732997Y-100218890D01*
X172716879Y-100188736D01*
X172706955Y-100156024D01*
X172703000Y-100115862D01*
X172703000Y-99528138D01*
X172706955Y-99487976D01*
X172716879Y-99455264D01*
X172732997Y-99425110D01*
X172754684Y-99398684D01*
X172781110Y-99376997D01*
X172811264Y-99360879D01*
X172843976Y-99350955D01*
X172884138Y-99347000D01*
X173571862Y-99347000D01*
X173612024Y-99350955D01*
X173612024Y-99350955D01*
G37*
G36*
X218656253Y-89980954D02*
X218869717Y-90023414D01*
X219137822Y-90134467D01*
X219137823Y-90134468D01*
X219379113Y-90295693D01*
X219584307Y-90500887D01*
X219584309Y-90500890D01*
X219745533Y-90742178D01*
X219856586Y-91010283D01*
X219913200Y-91294902D01*
X219913200Y-91585098D01*
X219856586Y-91869717D01*
X219745533Y-92137822D01*
X219745532Y-92137823D01*
X219584307Y-92379113D01*
X219379113Y-92584307D01*
X219379110Y-92584309D01*
X219137822Y-92745533D01*
X218869717Y-92856586D01*
X218656253Y-92899046D01*
X218585099Y-92913200D01*
X218294901Y-92913200D01*
X218223747Y-92899046D01*
X218010283Y-92856586D01*
X217742178Y-92745533D01*
X217500890Y-92584309D01*
X217500887Y-92584307D01*
X217295693Y-92379113D01*
X217134468Y-92137823D01*
X217134467Y-92137822D01*
X217023414Y-91869717D01*
X216966800Y-91585098D01*
X216966800Y-91294902D01*
X217023414Y-91010283D01*
X217134467Y-90742178D01*
X217295691Y-90500890D01*
X217295693Y-90500887D01*
X217500887Y-90295693D01*
X217742177Y-90134468D01*
X217742178Y-90134467D01*
X218010283Y-90023414D01*
X218223747Y-89980954D01*
X218294901Y-89966800D01*
X218585099Y-89966800D01*
X218656253Y-89980954D01*
X218656253Y-89980954D01*
G37*
G36*
X142456253Y-89980954D02*
X142669717Y-90023414D01*
X142937822Y-90134467D01*
X142937823Y-90134468D01*
X143179113Y-90295693D01*
X143384307Y-90500887D01*
X143384309Y-90500890D01*
X143545533Y-90742178D01*
X143656586Y-91010283D01*
X143713200Y-91294902D01*
X143713200Y-91585098D01*
X143656586Y-91869717D01*
X143545533Y-92137822D01*
X143545532Y-92137823D01*
X143384307Y-92379113D01*
X143179113Y-92584307D01*
X143179110Y-92584309D01*
X142937822Y-92745533D01*
X142669717Y-92856586D01*
X142456253Y-92899046D01*
X142385099Y-92913200D01*
X142094901Y-92913200D01*
X142023747Y-92899046D01*
X141810283Y-92856586D01*
X141542178Y-92745533D01*
X141300890Y-92584309D01*
X141300887Y-92584307D01*
X141095693Y-92379113D01*
X140934468Y-92137823D01*
X140934467Y-92137822D01*
X140823414Y-91869717D01*
X140766800Y-91585098D01*
X140766800Y-91294902D01*
X140823414Y-91010283D01*
X140934467Y-90742178D01*
X141095691Y-90500890D01*
X141095693Y-90500887D01*
X141300887Y-90295693D01*
X141542177Y-90134468D01*
X141542178Y-90134467D01*
X141810283Y-90023414D01*
X142023747Y-89980954D01*
X142094901Y-89966800D01*
X142385099Y-89966800D01*
X142456253Y-89980954D01*
X142456253Y-89980954D01*
G37*
M02*
