G04 #@! TF.GenerationSoftware,KiCad,Pcbnew,(5.0.2)-1*
G04 #@! TF.CreationDate,2019-12-13T17:07:51-06:00*
G04 #@! TF.ProjectId,Arm-EStop_Hardware,41726d2d-4553-4746-9f70-5f4861726477,rev?*
G04 #@! TF.SameCoordinates,Original*
G04 #@! TF.FileFunction,Paste,Top*
G04 #@! TF.FilePolarity,Positive*
%FSLAX46Y46*%
G04 Gerber Fmt 4.6, Leading zero omitted, Abs format (unit mm)*
G04 Created by KiCad (PCBNEW (5.0.2)-1) date 12/13/2019 5:07:51 PM*
%MOMM*%
%LPD*%
G01*
G04 APERTURE LIST*
%ADD10C,0.100000*%
%ADD11C,0.950000*%
%ADD12R,1.600000X1.400000*%
%ADD13C,5.080000*%
%ADD14R,1.100000X4.600000*%
%ADD15R,5.250000X4.550000*%
%ADD16R,1.550000X0.600000*%
G04 APERTURE END LIST*
D10*
G04 #@! TO.C,R3*
G36*
X202190779Y-123146144D02*
X202213834Y-123149563D01*
X202236443Y-123155227D01*
X202258387Y-123163079D01*
X202279457Y-123173044D01*
X202299448Y-123185026D01*
X202318168Y-123198910D01*
X202335438Y-123214562D01*
X202351090Y-123231832D01*
X202364974Y-123250552D01*
X202376956Y-123270543D01*
X202386921Y-123291613D01*
X202394773Y-123313557D01*
X202400437Y-123336166D01*
X202403856Y-123359221D01*
X202405000Y-123382500D01*
X202405000Y-123957500D01*
X202403856Y-123980779D01*
X202400437Y-124003834D01*
X202394773Y-124026443D01*
X202386921Y-124048387D01*
X202376956Y-124069457D01*
X202364974Y-124089448D01*
X202351090Y-124108168D01*
X202335438Y-124125438D01*
X202318168Y-124141090D01*
X202299448Y-124154974D01*
X202279457Y-124166956D01*
X202258387Y-124176921D01*
X202236443Y-124184773D01*
X202213834Y-124190437D01*
X202190779Y-124193856D01*
X202167500Y-124195000D01*
X201692500Y-124195000D01*
X201669221Y-124193856D01*
X201646166Y-124190437D01*
X201623557Y-124184773D01*
X201601613Y-124176921D01*
X201580543Y-124166956D01*
X201560552Y-124154974D01*
X201541832Y-124141090D01*
X201524562Y-124125438D01*
X201508910Y-124108168D01*
X201495026Y-124089448D01*
X201483044Y-124069457D01*
X201473079Y-124048387D01*
X201465227Y-124026443D01*
X201459563Y-124003834D01*
X201456144Y-123980779D01*
X201455000Y-123957500D01*
X201455000Y-123382500D01*
X201456144Y-123359221D01*
X201459563Y-123336166D01*
X201465227Y-123313557D01*
X201473079Y-123291613D01*
X201483044Y-123270543D01*
X201495026Y-123250552D01*
X201508910Y-123231832D01*
X201524562Y-123214562D01*
X201541832Y-123198910D01*
X201560552Y-123185026D01*
X201580543Y-123173044D01*
X201601613Y-123163079D01*
X201623557Y-123155227D01*
X201646166Y-123149563D01*
X201669221Y-123146144D01*
X201692500Y-123145000D01*
X202167500Y-123145000D01*
X202190779Y-123146144D01*
X202190779Y-123146144D01*
G37*
D11*
X201930000Y-123670000D03*
D10*
G36*
X202190779Y-121396144D02*
X202213834Y-121399563D01*
X202236443Y-121405227D01*
X202258387Y-121413079D01*
X202279457Y-121423044D01*
X202299448Y-121435026D01*
X202318168Y-121448910D01*
X202335438Y-121464562D01*
X202351090Y-121481832D01*
X202364974Y-121500552D01*
X202376956Y-121520543D01*
X202386921Y-121541613D01*
X202394773Y-121563557D01*
X202400437Y-121586166D01*
X202403856Y-121609221D01*
X202405000Y-121632500D01*
X202405000Y-122207500D01*
X202403856Y-122230779D01*
X202400437Y-122253834D01*
X202394773Y-122276443D01*
X202386921Y-122298387D01*
X202376956Y-122319457D01*
X202364974Y-122339448D01*
X202351090Y-122358168D01*
X202335438Y-122375438D01*
X202318168Y-122391090D01*
X202299448Y-122404974D01*
X202279457Y-122416956D01*
X202258387Y-122426921D01*
X202236443Y-122434773D01*
X202213834Y-122440437D01*
X202190779Y-122443856D01*
X202167500Y-122445000D01*
X201692500Y-122445000D01*
X201669221Y-122443856D01*
X201646166Y-122440437D01*
X201623557Y-122434773D01*
X201601613Y-122426921D01*
X201580543Y-122416956D01*
X201560552Y-122404974D01*
X201541832Y-122391090D01*
X201524562Y-122375438D01*
X201508910Y-122358168D01*
X201495026Y-122339448D01*
X201483044Y-122319457D01*
X201473079Y-122298387D01*
X201465227Y-122276443D01*
X201459563Y-122253834D01*
X201456144Y-122230779D01*
X201455000Y-122207500D01*
X201455000Y-121632500D01*
X201456144Y-121609221D01*
X201459563Y-121586166D01*
X201465227Y-121563557D01*
X201473079Y-121541613D01*
X201483044Y-121520543D01*
X201495026Y-121500552D01*
X201508910Y-121481832D01*
X201524562Y-121464562D01*
X201541832Y-121448910D01*
X201560552Y-121435026D01*
X201580543Y-121423044D01*
X201601613Y-121413079D01*
X201623557Y-121405227D01*
X201646166Y-121399563D01*
X201669221Y-121396144D01*
X201692500Y-121395000D01*
X202167500Y-121395000D01*
X202190779Y-121396144D01*
X202190779Y-121396144D01*
G37*
D11*
X201930000Y-121920000D03*
G04 #@! TD*
D12*
G04 #@! TO.C,Logic*
X214166000Y-122960000D03*
X206966000Y-122960000D03*
X214166000Y-125960000D03*
X206966000Y-125960000D03*
G04 #@! TD*
D10*
G04 #@! TO.C,R5*
G36*
X164422779Y-109762144D02*
X164445834Y-109765563D01*
X164468443Y-109771227D01*
X164490387Y-109779079D01*
X164511457Y-109789044D01*
X164531448Y-109801026D01*
X164550168Y-109814910D01*
X164567438Y-109830562D01*
X164583090Y-109847832D01*
X164596974Y-109866552D01*
X164608956Y-109886543D01*
X164618921Y-109907613D01*
X164626773Y-109929557D01*
X164632437Y-109952166D01*
X164635856Y-109975221D01*
X164637000Y-109998500D01*
X164637000Y-110473500D01*
X164635856Y-110496779D01*
X164632437Y-110519834D01*
X164626773Y-110542443D01*
X164618921Y-110564387D01*
X164608956Y-110585457D01*
X164596974Y-110605448D01*
X164583090Y-110624168D01*
X164567438Y-110641438D01*
X164550168Y-110657090D01*
X164531448Y-110670974D01*
X164511457Y-110682956D01*
X164490387Y-110692921D01*
X164468443Y-110700773D01*
X164445834Y-110706437D01*
X164422779Y-110709856D01*
X164399500Y-110711000D01*
X163824500Y-110711000D01*
X163801221Y-110709856D01*
X163778166Y-110706437D01*
X163755557Y-110700773D01*
X163733613Y-110692921D01*
X163712543Y-110682956D01*
X163692552Y-110670974D01*
X163673832Y-110657090D01*
X163656562Y-110641438D01*
X163640910Y-110624168D01*
X163627026Y-110605448D01*
X163615044Y-110585457D01*
X163605079Y-110564387D01*
X163597227Y-110542443D01*
X163591563Y-110519834D01*
X163588144Y-110496779D01*
X163587000Y-110473500D01*
X163587000Y-109998500D01*
X163588144Y-109975221D01*
X163591563Y-109952166D01*
X163597227Y-109929557D01*
X163605079Y-109907613D01*
X163615044Y-109886543D01*
X163627026Y-109866552D01*
X163640910Y-109847832D01*
X163656562Y-109830562D01*
X163673832Y-109814910D01*
X163692552Y-109801026D01*
X163712543Y-109789044D01*
X163733613Y-109779079D01*
X163755557Y-109771227D01*
X163778166Y-109765563D01*
X163801221Y-109762144D01*
X163824500Y-109761000D01*
X164399500Y-109761000D01*
X164422779Y-109762144D01*
X164422779Y-109762144D01*
G37*
D11*
X164112000Y-110236000D03*
D10*
G36*
X166172779Y-109762144D02*
X166195834Y-109765563D01*
X166218443Y-109771227D01*
X166240387Y-109779079D01*
X166261457Y-109789044D01*
X166281448Y-109801026D01*
X166300168Y-109814910D01*
X166317438Y-109830562D01*
X166333090Y-109847832D01*
X166346974Y-109866552D01*
X166358956Y-109886543D01*
X166368921Y-109907613D01*
X166376773Y-109929557D01*
X166382437Y-109952166D01*
X166385856Y-109975221D01*
X166387000Y-109998500D01*
X166387000Y-110473500D01*
X166385856Y-110496779D01*
X166382437Y-110519834D01*
X166376773Y-110542443D01*
X166368921Y-110564387D01*
X166358956Y-110585457D01*
X166346974Y-110605448D01*
X166333090Y-110624168D01*
X166317438Y-110641438D01*
X166300168Y-110657090D01*
X166281448Y-110670974D01*
X166261457Y-110682956D01*
X166240387Y-110692921D01*
X166218443Y-110700773D01*
X166195834Y-110706437D01*
X166172779Y-110709856D01*
X166149500Y-110711000D01*
X165574500Y-110711000D01*
X165551221Y-110709856D01*
X165528166Y-110706437D01*
X165505557Y-110700773D01*
X165483613Y-110692921D01*
X165462543Y-110682956D01*
X165442552Y-110670974D01*
X165423832Y-110657090D01*
X165406562Y-110641438D01*
X165390910Y-110624168D01*
X165377026Y-110605448D01*
X165365044Y-110585457D01*
X165355079Y-110564387D01*
X165347227Y-110542443D01*
X165341563Y-110519834D01*
X165338144Y-110496779D01*
X165337000Y-110473500D01*
X165337000Y-109998500D01*
X165338144Y-109975221D01*
X165341563Y-109952166D01*
X165347227Y-109929557D01*
X165355079Y-109907613D01*
X165365044Y-109886543D01*
X165377026Y-109866552D01*
X165390910Y-109847832D01*
X165406562Y-109830562D01*
X165423832Y-109814910D01*
X165442552Y-109801026D01*
X165462543Y-109789044D01*
X165483613Y-109779079D01*
X165505557Y-109771227D01*
X165528166Y-109765563D01*
X165551221Y-109762144D01*
X165574500Y-109761000D01*
X166149500Y-109761000D01*
X166172779Y-109762144D01*
X166172779Y-109762144D01*
G37*
D11*
X165862000Y-110236000D03*
G04 #@! TD*
D10*
G04 #@! TO.C,C1*
G36*
X162870779Y-113826144D02*
X162893834Y-113829563D01*
X162916443Y-113835227D01*
X162938387Y-113843079D01*
X162959457Y-113853044D01*
X162979448Y-113865026D01*
X162998168Y-113878910D01*
X163015438Y-113894562D01*
X163031090Y-113911832D01*
X163044974Y-113930552D01*
X163056956Y-113950543D01*
X163066921Y-113971613D01*
X163074773Y-113993557D01*
X163080437Y-114016166D01*
X163083856Y-114039221D01*
X163085000Y-114062500D01*
X163085000Y-114537500D01*
X163083856Y-114560779D01*
X163080437Y-114583834D01*
X163074773Y-114606443D01*
X163066921Y-114628387D01*
X163056956Y-114649457D01*
X163044974Y-114669448D01*
X163031090Y-114688168D01*
X163015438Y-114705438D01*
X162998168Y-114721090D01*
X162979448Y-114734974D01*
X162959457Y-114746956D01*
X162938387Y-114756921D01*
X162916443Y-114764773D01*
X162893834Y-114770437D01*
X162870779Y-114773856D01*
X162847500Y-114775000D01*
X162272500Y-114775000D01*
X162249221Y-114773856D01*
X162226166Y-114770437D01*
X162203557Y-114764773D01*
X162181613Y-114756921D01*
X162160543Y-114746956D01*
X162140552Y-114734974D01*
X162121832Y-114721090D01*
X162104562Y-114705438D01*
X162088910Y-114688168D01*
X162075026Y-114669448D01*
X162063044Y-114649457D01*
X162053079Y-114628387D01*
X162045227Y-114606443D01*
X162039563Y-114583834D01*
X162036144Y-114560779D01*
X162035000Y-114537500D01*
X162035000Y-114062500D01*
X162036144Y-114039221D01*
X162039563Y-114016166D01*
X162045227Y-113993557D01*
X162053079Y-113971613D01*
X162063044Y-113950543D01*
X162075026Y-113930552D01*
X162088910Y-113911832D01*
X162104562Y-113894562D01*
X162121832Y-113878910D01*
X162140552Y-113865026D01*
X162160543Y-113853044D01*
X162181613Y-113843079D01*
X162203557Y-113835227D01*
X162226166Y-113829563D01*
X162249221Y-113826144D01*
X162272500Y-113825000D01*
X162847500Y-113825000D01*
X162870779Y-113826144D01*
X162870779Y-113826144D01*
G37*
D11*
X162560000Y-114300000D03*
D10*
G36*
X164620779Y-113826144D02*
X164643834Y-113829563D01*
X164666443Y-113835227D01*
X164688387Y-113843079D01*
X164709457Y-113853044D01*
X164729448Y-113865026D01*
X164748168Y-113878910D01*
X164765438Y-113894562D01*
X164781090Y-113911832D01*
X164794974Y-113930552D01*
X164806956Y-113950543D01*
X164816921Y-113971613D01*
X164824773Y-113993557D01*
X164830437Y-114016166D01*
X164833856Y-114039221D01*
X164835000Y-114062500D01*
X164835000Y-114537500D01*
X164833856Y-114560779D01*
X164830437Y-114583834D01*
X164824773Y-114606443D01*
X164816921Y-114628387D01*
X164806956Y-114649457D01*
X164794974Y-114669448D01*
X164781090Y-114688168D01*
X164765438Y-114705438D01*
X164748168Y-114721090D01*
X164729448Y-114734974D01*
X164709457Y-114746956D01*
X164688387Y-114756921D01*
X164666443Y-114764773D01*
X164643834Y-114770437D01*
X164620779Y-114773856D01*
X164597500Y-114775000D01*
X164022500Y-114775000D01*
X163999221Y-114773856D01*
X163976166Y-114770437D01*
X163953557Y-114764773D01*
X163931613Y-114756921D01*
X163910543Y-114746956D01*
X163890552Y-114734974D01*
X163871832Y-114721090D01*
X163854562Y-114705438D01*
X163838910Y-114688168D01*
X163825026Y-114669448D01*
X163813044Y-114649457D01*
X163803079Y-114628387D01*
X163795227Y-114606443D01*
X163789563Y-114583834D01*
X163786144Y-114560779D01*
X163785000Y-114537500D01*
X163785000Y-114062500D01*
X163786144Y-114039221D01*
X163789563Y-114016166D01*
X163795227Y-113993557D01*
X163803079Y-113971613D01*
X163813044Y-113950543D01*
X163825026Y-113930552D01*
X163838910Y-113911832D01*
X163854562Y-113894562D01*
X163871832Y-113878910D01*
X163890552Y-113865026D01*
X163910543Y-113853044D01*
X163931613Y-113843079D01*
X163953557Y-113835227D01*
X163976166Y-113829563D01*
X163999221Y-113826144D01*
X164022500Y-113825000D01*
X164597500Y-113825000D01*
X164620779Y-113826144D01*
X164620779Y-113826144D01*
G37*
D11*
X164310000Y-114300000D03*
G04 #@! TD*
D10*
G04 #@! TO.C,C2*
G36*
X166200779Y-113826144D02*
X166223834Y-113829563D01*
X166246443Y-113835227D01*
X166268387Y-113843079D01*
X166289457Y-113853044D01*
X166309448Y-113865026D01*
X166328168Y-113878910D01*
X166345438Y-113894562D01*
X166361090Y-113911832D01*
X166374974Y-113930552D01*
X166386956Y-113950543D01*
X166396921Y-113971613D01*
X166404773Y-113993557D01*
X166410437Y-114016166D01*
X166413856Y-114039221D01*
X166415000Y-114062500D01*
X166415000Y-114537500D01*
X166413856Y-114560779D01*
X166410437Y-114583834D01*
X166404773Y-114606443D01*
X166396921Y-114628387D01*
X166386956Y-114649457D01*
X166374974Y-114669448D01*
X166361090Y-114688168D01*
X166345438Y-114705438D01*
X166328168Y-114721090D01*
X166309448Y-114734974D01*
X166289457Y-114746956D01*
X166268387Y-114756921D01*
X166246443Y-114764773D01*
X166223834Y-114770437D01*
X166200779Y-114773856D01*
X166177500Y-114775000D01*
X165602500Y-114775000D01*
X165579221Y-114773856D01*
X165556166Y-114770437D01*
X165533557Y-114764773D01*
X165511613Y-114756921D01*
X165490543Y-114746956D01*
X165470552Y-114734974D01*
X165451832Y-114721090D01*
X165434562Y-114705438D01*
X165418910Y-114688168D01*
X165405026Y-114669448D01*
X165393044Y-114649457D01*
X165383079Y-114628387D01*
X165375227Y-114606443D01*
X165369563Y-114583834D01*
X165366144Y-114560779D01*
X165365000Y-114537500D01*
X165365000Y-114062500D01*
X165366144Y-114039221D01*
X165369563Y-114016166D01*
X165375227Y-113993557D01*
X165383079Y-113971613D01*
X165393044Y-113950543D01*
X165405026Y-113930552D01*
X165418910Y-113911832D01*
X165434562Y-113894562D01*
X165451832Y-113878910D01*
X165470552Y-113865026D01*
X165490543Y-113853044D01*
X165511613Y-113843079D01*
X165533557Y-113835227D01*
X165556166Y-113829563D01*
X165579221Y-113826144D01*
X165602500Y-113825000D01*
X166177500Y-113825000D01*
X166200779Y-113826144D01*
X166200779Y-113826144D01*
G37*
D11*
X165890000Y-114300000D03*
D10*
G36*
X167950779Y-113826144D02*
X167973834Y-113829563D01*
X167996443Y-113835227D01*
X168018387Y-113843079D01*
X168039457Y-113853044D01*
X168059448Y-113865026D01*
X168078168Y-113878910D01*
X168095438Y-113894562D01*
X168111090Y-113911832D01*
X168124974Y-113930552D01*
X168136956Y-113950543D01*
X168146921Y-113971613D01*
X168154773Y-113993557D01*
X168160437Y-114016166D01*
X168163856Y-114039221D01*
X168165000Y-114062500D01*
X168165000Y-114537500D01*
X168163856Y-114560779D01*
X168160437Y-114583834D01*
X168154773Y-114606443D01*
X168146921Y-114628387D01*
X168136956Y-114649457D01*
X168124974Y-114669448D01*
X168111090Y-114688168D01*
X168095438Y-114705438D01*
X168078168Y-114721090D01*
X168059448Y-114734974D01*
X168039457Y-114746956D01*
X168018387Y-114756921D01*
X167996443Y-114764773D01*
X167973834Y-114770437D01*
X167950779Y-114773856D01*
X167927500Y-114775000D01*
X167352500Y-114775000D01*
X167329221Y-114773856D01*
X167306166Y-114770437D01*
X167283557Y-114764773D01*
X167261613Y-114756921D01*
X167240543Y-114746956D01*
X167220552Y-114734974D01*
X167201832Y-114721090D01*
X167184562Y-114705438D01*
X167168910Y-114688168D01*
X167155026Y-114669448D01*
X167143044Y-114649457D01*
X167133079Y-114628387D01*
X167125227Y-114606443D01*
X167119563Y-114583834D01*
X167116144Y-114560779D01*
X167115000Y-114537500D01*
X167115000Y-114062500D01*
X167116144Y-114039221D01*
X167119563Y-114016166D01*
X167125227Y-113993557D01*
X167133079Y-113971613D01*
X167143044Y-113950543D01*
X167155026Y-113930552D01*
X167168910Y-113911832D01*
X167184562Y-113894562D01*
X167201832Y-113878910D01*
X167220552Y-113865026D01*
X167240543Y-113853044D01*
X167261613Y-113843079D01*
X167283557Y-113835227D01*
X167306166Y-113829563D01*
X167329221Y-113826144D01*
X167352500Y-113825000D01*
X167927500Y-113825000D01*
X167950779Y-113826144D01*
X167950779Y-113826144D01*
G37*
D11*
X167640000Y-114300000D03*
G04 #@! TD*
D10*
G04 #@! TO.C,C3*
G36*
X171788779Y-113064144D02*
X171811834Y-113067563D01*
X171834443Y-113073227D01*
X171856387Y-113081079D01*
X171877457Y-113091044D01*
X171897448Y-113103026D01*
X171916168Y-113116910D01*
X171933438Y-113132562D01*
X171949090Y-113149832D01*
X171962974Y-113168552D01*
X171974956Y-113188543D01*
X171984921Y-113209613D01*
X171992773Y-113231557D01*
X171998437Y-113254166D01*
X172001856Y-113277221D01*
X172003000Y-113300500D01*
X172003000Y-113775500D01*
X172001856Y-113798779D01*
X171998437Y-113821834D01*
X171992773Y-113844443D01*
X171984921Y-113866387D01*
X171974956Y-113887457D01*
X171962974Y-113907448D01*
X171949090Y-113926168D01*
X171933438Y-113943438D01*
X171916168Y-113959090D01*
X171897448Y-113972974D01*
X171877457Y-113984956D01*
X171856387Y-113994921D01*
X171834443Y-114002773D01*
X171811834Y-114008437D01*
X171788779Y-114011856D01*
X171765500Y-114013000D01*
X171190500Y-114013000D01*
X171167221Y-114011856D01*
X171144166Y-114008437D01*
X171121557Y-114002773D01*
X171099613Y-113994921D01*
X171078543Y-113984956D01*
X171058552Y-113972974D01*
X171039832Y-113959090D01*
X171022562Y-113943438D01*
X171006910Y-113926168D01*
X170993026Y-113907448D01*
X170981044Y-113887457D01*
X170971079Y-113866387D01*
X170963227Y-113844443D01*
X170957563Y-113821834D01*
X170954144Y-113798779D01*
X170953000Y-113775500D01*
X170953000Y-113300500D01*
X170954144Y-113277221D01*
X170957563Y-113254166D01*
X170963227Y-113231557D01*
X170971079Y-113209613D01*
X170981044Y-113188543D01*
X170993026Y-113168552D01*
X171006910Y-113149832D01*
X171022562Y-113132562D01*
X171039832Y-113116910D01*
X171058552Y-113103026D01*
X171078543Y-113091044D01*
X171099613Y-113081079D01*
X171121557Y-113073227D01*
X171144166Y-113067563D01*
X171167221Y-113064144D01*
X171190500Y-113063000D01*
X171765500Y-113063000D01*
X171788779Y-113064144D01*
X171788779Y-113064144D01*
G37*
D11*
X171478000Y-113538000D03*
D10*
G36*
X173538779Y-113064144D02*
X173561834Y-113067563D01*
X173584443Y-113073227D01*
X173606387Y-113081079D01*
X173627457Y-113091044D01*
X173647448Y-113103026D01*
X173666168Y-113116910D01*
X173683438Y-113132562D01*
X173699090Y-113149832D01*
X173712974Y-113168552D01*
X173724956Y-113188543D01*
X173734921Y-113209613D01*
X173742773Y-113231557D01*
X173748437Y-113254166D01*
X173751856Y-113277221D01*
X173753000Y-113300500D01*
X173753000Y-113775500D01*
X173751856Y-113798779D01*
X173748437Y-113821834D01*
X173742773Y-113844443D01*
X173734921Y-113866387D01*
X173724956Y-113887457D01*
X173712974Y-113907448D01*
X173699090Y-113926168D01*
X173683438Y-113943438D01*
X173666168Y-113959090D01*
X173647448Y-113972974D01*
X173627457Y-113984956D01*
X173606387Y-113994921D01*
X173584443Y-114002773D01*
X173561834Y-114008437D01*
X173538779Y-114011856D01*
X173515500Y-114013000D01*
X172940500Y-114013000D01*
X172917221Y-114011856D01*
X172894166Y-114008437D01*
X172871557Y-114002773D01*
X172849613Y-113994921D01*
X172828543Y-113984956D01*
X172808552Y-113972974D01*
X172789832Y-113959090D01*
X172772562Y-113943438D01*
X172756910Y-113926168D01*
X172743026Y-113907448D01*
X172731044Y-113887457D01*
X172721079Y-113866387D01*
X172713227Y-113844443D01*
X172707563Y-113821834D01*
X172704144Y-113798779D01*
X172703000Y-113775500D01*
X172703000Y-113300500D01*
X172704144Y-113277221D01*
X172707563Y-113254166D01*
X172713227Y-113231557D01*
X172721079Y-113209613D01*
X172731044Y-113188543D01*
X172743026Y-113168552D01*
X172756910Y-113149832D01*
X172772562Y-113132562D01*
X172789832Y-113116910D01*
X172808552Y-113103026D01*
X172828543Y-113091044D01*
X172849613Y-113081079D01*
X172871557Y-113073227D01*
X172894166Y-113067563D01*
X172917221Y-113064144D01*
X172940500Y-113063000D01*
X173515500Y-113063000D01*
X173538779Y-113064144D01*
X173538779Y-113064144D01*
G37*
D11*
X173228000Y-113538000D03*
G04 #@! TD*
D10*
G04 #@! TO.C,C4*
G36*
X173538779Y-99348144D02*
X173561834Y-99351563D01*
X173584443Y-99357227D01*
X173606387Y-99365079D01*
X173627457Y-99375044D01*
X173647448Y-99387026D01*
X173666168Y-99400910D01*
X173683438Y-99416562D01*
X173699090Y-99433832D01*
X173712974Y-99452552D01*
X173724956Y-99472543D01*
X173734921Y-99493613D01*
X173742773Y-99515557D01*
X173748437Y-99538166D01*
X173751856Y-99561221D01*
X173753000Y-99584500D01*
X173753000Y-100059500D01*
X173751856Y-100082779D01*
X173748437Y-100105834D01*
X173742773Y-100128443D01*
X173734921Y-100150387D01*
X173724956Y-100171457D01*
X173712974Y-100191448D01*
X173699090Y-100210168D01*
X173683438Y-100227438D01*
X173666168Y-100243090D01*
X173647448Y-100256974D01*
X173627457Y-100268956D01*
X173606387Y-100278921D01*
X173584443Y-100286773D01*
X173561834Y-100292437D01*
X173538779Y-100295856D01*
X173515500Y-100297000D01*
X172940500Y-100297000D01*
X172917221Y-100295856D01*
X172894166Y-100292437D01*
X172871557Y-100286773D01*
X172849613Y-100278921D01*
X172828543Y-100268956D01*
X172808552Y-100256974D01*
X172789832Y-100243090D01*
X172772562Y-100227438D01*
X172756910Y-100210168D01*
X172743026Y-100191448D01*
X172731044Y-100171457D01*
X172721079Y-100150387D01*
X172713227Y-100128443D01*
X172707563Y-100105834D01*
X172704144Y-100082779D01*
X172703000Y-100059500D01*
X172703000Y-99584500D01*
X172704144Y-99561221D01*
X172707563Y-99538166D01*
X172713227Y-99515557D01*
X172721079Y-99493613D01*
X172731044Y-99472543D01*
X172743026Y-99452552D01*
X172756910Y-99433832D01*
X172772562Y-99416562D01*
X172789832Y-99400910D01*
X172808552Y-99387026D01*
X172828543Y-99375044D01*
X172849613Y-99365079D01*
X172871557Y-99357227D01*
X172894166Y-99351563D01*
X172917221Y-99348144D01*
X172940500Y-99347000D01*
X173515500Y-99347000D01*
X173538779Y-99348144D01*
X173538779Y-99348144D01*
G37*
D11*
X173228000Y-99822000D03*
D10*
G36*
X171788779Y-99348144D02*
X171811834Y-99351563D01*
X171834443Y-99357227D01*
X171856387Y-99365079D01*
X171877457Y-99375044D01*
X171897448Y-99387026D01*
X171916168Y-99400910D01*
X171933438Y-99416562D01*
X171949090Y-99433832D01*
X171962974Y-99452552D01*
X171974956Y-99472543D01*
X171984921Y-99493613D01*
X171992773Y-99515557D01*
X171998437Y-99538166D01*
X172001856Y-99561221D01*
X172003000Y-99584500D01*
X172003000Y-100059500D01*
X172001856Y-100082779D01*
X171998437Y-100105834D01*
X171992773Y-100128443D01*
X171984921Y-100150387D01*
X171974956Y-100171457D01*
X171962974Y-100191448D01*
X171949090Y-100210168D01*
X171933438Y-100227438D01*
X171916168Y-100243090D01*
X171897448Y-100256974D01*
X171877457Y-100268956D01*
X171856387Y-100278921D01*
X171834443Y-100286773D01*
X171811834Y-100292437D01*
X171788779Y-100295856D01*
X171765500Y-100297000D01*
X171190500Y-100297000D01*
X171167221Y-100295856D01*
X171144166Y-100292437D01*
X171121557Y-100286773D01*
X171099613Y-100278921D01*
X171078543Y-100268956D01*
X171058552Y-100256974D01*
X171039832Y-100243090D01*
X171022562Y-100227438D01*
X171006910Y-100210168D01*
X170993026Y-100191448D01*
X170981044Y-100171457D01*
X170971079Y-100150387D01*
X170963227Y-100128443D01*
X170957563Y-100105834D01*
X170954144Y-100082779D01*
X170953000Y-100059500D01*
X170953000Y-99584500D01*
X170954144Y-99561221D01*
X170957563Y-99538166D01*
X170963227Y-99515557D01*
X170971079Y-99493613D01*
X170981044Y-99472543D01*
X170993026Y-99452552D01*
X171006910Y-99433832D01*
X171022562Y-99416562D01*
X171039832Y-99400910D01*
X171058552Y-99387026D01*
X171078543Y-99375044D01*
X171099613Y-99365079D01*
X171121557Y-99357227D01*
X171144166Y-99351563D01*
X171167221Y-99348144D01*
X171190500Y-99347000D01*
X171765500Y-99347000D01*
X171788779Y-99348144D01*
X171788779Y-99348144D01*
G37*
D11*
X171478000Y-99822000D03*
G04 #@! TD*
D13*
G04 #@! TO.C,Conn1*
X157480000Y-119380000D03*
X157480000Y-111506000D03*
G04 #@! TD*
G04 #@! TO.C,Conn2*
X203200000Y-101346000D03*
X203200000Y-109220000D03*
X203200000Y-117094000D03*
G04 #@! TD*
D10*
G04 #@! TO.C,D1*
G36*
X148420779Y-129828144D02*
X148443834Y-129831563D01*
X148466443Y-129837227D01*
X148488387Y-129845079D01*
X148509457Y-129855044D01*
X148529448Y-129867026D01*
X148548168Y-129880910D01*
X148565438Y-129896562D01*
X148581090Y-129913832D01*
X148594974Y-129932552D01*
X148606956Y-129952543D01*
X148616921Y-129973613D01*
X148624773Y-129995557D01*
X148630437Y-130018166D01*
X148633856Y-130041221D01*
X148635000Y-130064500D01*
X148635000Y-130539500D01*
X148633856Y-130562779D01*
X148630437Y-130585834D01*
X148624773Y-130608443D01*
X148616921Y-130630387D01*
X148606956Y-130651457D01*
X148594974Y-130671448D01*
X148581090Y-130690168D01*
X148565438Y-130707438D01*
X148548168Y-130723090D01*
X148529448Y-130736974D01*
X148509457Y-130748956D01*
X148488387Y-130758921D01*
X148466443Y-130766773D01*
X148443834Y-130772437D01*
X148420779Y-130775856D01*
X148397500Y-130777000D01*
X147822500Y-130777000D01*
X147799221Y-130775856D01*
X147776166Y-130772437D01*
X147753557Y-130766773D01*
X147731613Y-130758921D01*
X147710543Y-130748956D01*
X147690552Y-130736974D01*
X147671832Y-130723090D01*
X147654562Y-130707438D01*
X147638910Y-130690168D01*
X147625026Y-130671448D01*
X147613044Y-130651457D01*
X147603079Y-130630387D01*
X147595227Y-130608443D01*
X147589563Y-130585834D01*
X147586144Y-130562779D01*
X147585000Y-130539500D01*
X147585000Y-130064500D01*
X147586144Y-130041221D01*
X147589563Y-130018166D01*
X147595227Y-129995557D01*
X147603079Y-129973613D01*
X147613044Y-129952543D01*
X147625026Y-129932552D01*
X147638910Y-129913832D01*
X147654562Y-129896562D01*
X147671832Y-129880910D01*
X147690552Y-129867026D01*
X147710543Y-129855044D01*
X147731613Y-129845079D01*
X147753557Y-129837227D01*
X147776166Y-129831563D01*
X147799221Y-129828144D01*
X147822500Y-129827000D01*
X148397500Y-129827000D01*
X148420779Y-129828144D01*
X148420779Y-129828144D01*
G37*
D11*
X148110000Y-130302000D03*
D10*
G36*
X150170779Y-129828144D02*
X150193834Y-129831563D01*
X150216443Y-129837227D01*
X150238387Y-129845079D01*
X150259457Y-129855044D01*
X150279448Y-129867026D01*
X150298168Y-129880910D01*
X150315438Y-129896562D01*
X150331090Y-129913832D01*
X150344974Y-129932552D01*
X150356956Y-129952543D01*
X150366921Y-129973613D01*
X150374773Y-129995557D01*
X150380437Y-130018166D01*
X150383856Y-130041221D01*
X150385000Y-130064500D01*
X150385000Y-130539500D01*
X150383856Y-130562779D01*
X150380437Y-130585834D01*
X150374773Y-130608443D01*
X150366921Y-130630387D01*
X150356956Y-130651457D01*
X150344974Y-130671448D01*
X150331090Y-130690168D01*
X150315438Y-130707438D01*
X150298168Y-130723090D01*
X150279448Y-130736974D01*
X150259457Y-130748956D01*
X150238387Y-130758921D01*
X150216443Y-130766773D01*
X150193834Y-130772437D01*
X150170779Y-130775856D01*
X150147500Y-130777000D01*
X149572500Y-130777000D01*
X149549221Y-130775856D01*
X149526166Y-130772437D01*
X149503557Y-130766773D01*
X149481613Y-130758921D01*
X149460543Y-130748956D01*
X149440552Y-130736974D01*
X149421832Y-130723090D01*
X149404562Y-130707438D01*
X149388910Y-130690168D01*
X149375026Y-130671448D01*
X149363044Y-130651457D01*
X149353079Y-130630387D01*
X149345227Y-130608443D01*
X149339563Y-130585834D01*
X149336144Y-130562779D01*
X149335000Y-130539500D01*
X149335000Y-130064500D01*
X149336144Y-130041221D01*
X149339563Y-130018166D01*
X149345227Y-129995557D01*
X149353079Y-129973613D01*
X149363044Y-129952543D01*
X149375026Y-129932552D01*
X149388910Y-129913832D01*
X149404562Y-129896562D01*
X149421832Y-129880910D01*
X149440552Y-129867026D01*
X149460543Y-129855044D01*
X149481613Y-129845079D01*
X149503557Y-129837227D01*
X149526166Y-129831563D01*
X149549221Y-129828144D01*
X149572500Y-129827000D01*
X150147500Y-129827000D01*
X150170779Y-129828144D01*
X150170779Y-129828144D01*
G37*
D11*
X149860000Y-130302000D03*
G04 #@! TD*
D10*
G04 #@! TO.C,D2*
G36*
X204730779Y-126956144D02*
X204753834Y-126959563D01*
X204776443Y-126965227D01*
X204798387Y-126973079D01*
X204819457Y-126983044D01*
X204839448Y-126995026D01*
X204858168Y-127008910D01*
X204875438Y-127024562D01*
X204891090Y-127041832D01*
X204904974Y-127060552D01*
X204916956Y-127080543D01*
X204926921Y-127101613D01*
X204934773Y-127123557D01*
X204940437Y-127146166D01*
X204943856Y-127169221D01*
X204945000Y-127192500D01*
X204945000Y-127767500D01*
X204943856Y-127790779D01*
X204940437Y-127813834D01*
X204934773Y-127836443D01*
X204926921Y-127858387D01*
X204916956Y-127879457D01*
X204904974Y-127899448D01*
X204891090Y-127918168D01*
X204875438Y-127935438D01*
X204858168Y-127951090D01*
X204839448Y-127964974D01*
X204819457Y-127976956D01*
X204798387Y-127986921D01*
X204776443Y-127994773D01*
X204753834Y-128000437D01*
X204730779Y-128003856D01*
X204707500Y-128005000D01*
X204232500Y-128005000D01*
X204209221Y-128003856D01*
X204186166Y-128000437D01*
X204163557Y-127994773D01*
X204141613Y-127986921D01*
X204120543Y-127976956D01*
X204100552Y-127964974D01*
X204081832Y-127951090D01*
X204064562Y-127935438D01*
X204048910Y-127918168D01*
X204035026Y-127899448D01*
X204023044Y-127879457D01*
X204013079Y-127858387D01*
X204005227Y-127836443D01*
X203999563Y-127813834D01*
X203996144Y-127790779D01*
X203995000Y-127767500D01*
X203995000Y-127192500D01*
X203996144Y-127169221D01*
X203999563Y-127146166D01*
X204005227Y-127123557D01*
X204013079Y-127101613D01*
X204023044Y-127080543D01*
X204035026Y-127060552D01*
X204048910Y-127041832D01*
X204064562Y-127024562D01*
X204081832Y-127008910D01*
X204100552Y-126995026D01*
X204120543Y-126983044D01*
X204141613Y-126973079D01*
X204163557Y-126965227D01*
X204186166Y-126959563D01*
X204209221Y-126956144D01*
X204232500Y-126955000D01*
X204707500Y-126955000D01*
X204730779Y-126956144D01*
X204730779Y-126956144D01*
G37*
D11*
X204470000Y-127480000D03*
D10*
G36*
X204730779Y-125206144D02*
X204753834Y-125209563D01*
X204776443Y-125215227D01*
X204798387Y-125223079D01*
X204819457Y-125233044D01*
X204839448Y-125245026D01*
X204858168Y-125258910D01*
X204875438Y-125274562D01*
X204891090Y-125291832D01*
X204904974Y-125310552D01*
X204916956Y-125330543D01*
X204926921Y-125351613D01*
X204934773Y-125373557D01*
X204940437Y-125396166D01*
X204943856Y-125419221D01*
X204945000Y-125442500D01*
X204945000Y-126017500D01*
X204943856Y-126040779D01*
X204940437Y-126063834D01*
X204934773Y-126086443D01*
X204926921Y-126108387D01*
X204916956Y-126129457D01*
X204904974Y-126149448D01*
X204891090Y-126168168D01*
X204875438Y-126185438D01*
X204858168Y-126201090D01*
X204839448Y-126214974D01*
X204819457Y-126226956D01*
X204798387Y-126236921D01*
X204776443Y-126244773D01*
X204753834Y-126250437D01*
X204730779Y-126253856D01*
X204707500Y-126255000D01*
X204232500Y-126255000D01*
X204209221Y-126253856D01*
X204186166Y-126250437D01*
X204163557Y-126244773D01*
X204141613Y-126236921D01*
X204120543Y-126226956D01*
X204100552Y-126214974D01*
X204081832Y-126201090D01*
X204064562Y-126185438D01*
X204048910Y-126168168D01*
X204035026Y-126149448D01*
X204023044Y-126129457D01*
X204013079Y-126108387D01*
X204005227Y-126086443D01*
X203999563Y-126063834D01*
X203996144Y-126040779D01*
X203995000Y-126017500D01*
X203995000Y-125442500D01*
X203996144Y-125419221D01*
X203999563Y-125396166D01*
X204005227Y-125373557D01*
X204013079Y-125351613D01*
X204023044Y-125330543D01*
X204035026Y-125310552D01*
X204048910Y-125291832D01*
X204064562Y-125274562D01*
X204081832Y-125258910D01*
X204100552Y-125245026D01*
X204120543Y-125233044D01*
X204141613Y-125223079D01*
X204163557Y-125215227D01*
X204186166Y-125209563D01*
X204209221Y-125206144D01*
X204232500Y-125205000D01*
X204707500Y-125205000D01*
X204730779Y-125206144D01*
X204730779Y-125206144D01*
G37*
D11*
X204470000Y-125730000D03*
G04 #@! TD*
D10*
G04 #@! TO.C,D3*
G36*
X202190779Y-125206144D02*
X202213834Y-125209563D01*
X202236443Y-125215227D01*
X202258387Y-125223079D01*
X202279457Y-125233044D01*
X202299448Y-125245026D01*
X202318168Y-125258910D01*
X202335438Y-125274562D01*
X202351090Y-125291832D01*
X202364974Y-125310552D01*
X202376956Y-125330543D01*
X202386921Y-125351613D01*
X202394773Y-125373557D01*
X202400437Y-125396166D01*
X202403856Y-125419221D01*
X202405000Y-125442500D01*
X202405000Y-126017500D01*
X202403856Y-126040779D01*
X202400437Y-126063834D01*
X202394773Y-126086443D01*
X202386921Y-126108387D01*
X202376956Y-126129457D01*
X202364974Y-126149448D01*
X202351090Y-126168168D01*
X202335438Y-126185438D01*
X202318168Y-126201090D01*
X202299448Y-126214974D01*
X202279457Y-126226956D01*
X202258387Y-126236921D01*
X202236443Y-126244773D01*
X202213834Y-126250437D01*
X202190779Y-126253856D01*
X202167500Y-126255000D01*
X201692500Y-126255000D01*
X201669221Y-126253856D01*
X201646166Y-126250437D01*
X201623557Y-126244773D01*
X201601613Y-126236921D01*
X201580543Y-126226956D01*
X201560552Y-126214974D01*
X201541832Y-126201090D01*
X201524562Y-126185438D01*
X201508910Y-126168168D01*
X201495026Y-126149448D01*
X201483044Y-126129457D01*
X201473079Y-126108387D01*
X201465227Y-126086443D01*
X201459563Y-126063834D01*
X201456144Y-126040779D01*
X201455000Y-126017500D01*
X201455000Y-125442500D01*
X201456144Y-125419221D01*
X201459563Y-125396166D01*
X201465227Y-125373557D01*
X201473079Y-125351613D01*
X201483044Y-125330543D01*
X201495026Y-125310552D01*
X201508910Y-125291832D01*
X201524562Y-125274562D01*
X201541832Y-125258910D01*
X201560552Y-125245026D01*
X201580543Y-125233044D01*
X201601613Y-125223079D01*
X201623557Y-125215227D01*
X201646166Y-125209563D01*
X201669221Y-125206144D01*
X201692500Y-125205000D01*
X202167500Y-125205000D01*
X202190779Y-125206144D01*
X202190779Y-125206144D01*
G37*
D11*
X201930000Y-125730000D03*
D10*
G36*
X202190779Y-126956144D02*
X202213834Y-126959563D01*
X202236443Y-126965227D01*
X202258387Y-126973079D01*
X202279457Y-126983044D01*
X202299448Y-126995026D01*
X202318168Y-127008910D01*
X202335438Y-127024562D01*
X202351090Y-127041832D01*
X202364974Y-127060552D01*
X202376956Y-127080543D01*
X202386921Y-127101613D01*
X202394773Y-127123557D01*
X202400437Y-127146166D01*
X202403856Y-127169221D01*
X202405000Y-127192500D01*
X202405000Y-127767500D01*
X202403856Y-127790779D01*
X202400437Y-127813834D01*
X202394773Y-127836443D01*
X202386921Y-127858387D01*
X202376956Y-127879457D01*
X202364974Y-127899448D01*
X202351090Y-127918168D01*
X202335438Y-127935438D01*
X202318168Y-127951090D01*
X202299448Y-127964974D01*
X202279457Y-127976956D01*
X202258387Y-127986921D01*
X202236443Y-127994773D01*
X202213834Y-128000437D01*
X202190779Y-128003856D01*
X202167500Y-128005000D01*
X201692500Y-128005000D01*
X201669221Y-128003856D01*
X201646166Y-128000437D01*
X201623557Y-127994773D01*
X201601613Y-127986921D01*
X201580543Y-127976956D01*
X201560552Y-127964974D01*
X201541832Y-127951090D01*
X201524562Y-127935438D01*
X201508910Y-127918168D01*
X201495026Y-127899448D01*
X201483044Y-127879457D01*
X201473079Y-127858387D01*
X201465227Y-127836443D01*
X201459563Y-127813834D01*
X201456144Y-127790779D01*
X201455000Y-127767500D01*
X201455000Y-127192500D01*
X201456144Y-127169221D01*
X201459563Y-127146166D01*
X201465227Y-127123557D01*
X201473079Y-127101613D01*
X201483044Y-127080543D01*
X201495026Y-127060552D01*
X201508910Y-127041832D01*
X201524562Y-127024562D01*
X201541832Y-127008910D01*
X201560552Y-126995026D01*
X201580543Y-126983044D01*
X201601613Y-126973079D01*
X201623557Y-126965227D01*
X201646166Y-126959563D01*
X201669221Y-126956144D01*
X201692500Y-126955000D01*
X202167500Y-126955000D01*
X202190779Y-126956144D01*
X202190779Y-126956144D01*
G37*
D11*
X201930000Y-127480000D03*
G04 #@! TD*
D14*
G04 #@! TO.C,Q1*
X195580000Y-116840000D03*
X190500000Y-116840000D03*
D15*
X190265000Y-128415000D03*
X195815000Y-123565000D03*
X195815000Y-128415000D03*
X190265000Y-123565000D03*
G04 #@! TD*
D14*
G04 #@! TO.C,Q2*
X182880000Y-116840000D03*
X177800000Y-116840000D03*
D15*
X177565000Y-128415000D03*
X183115000Y-123565000D03*
X183115000Y-128415000D03*
X177565000Y-123565000D03*
G04 #@! TD*
D10*
G04 #@! TO.C,R1*
G36*
X152230779Y-129828144D02*
X152253834Y-129831563D01*
X152276443Y-129837227D01*
X152298387Y-129845079D01*
X152319457Y-129855044D01*
X152339448Y-129867026D01*
X152358168Y-129880910D01*
X152375438Y-129896562D01*
X152391090Y-129913832D01*
X152404974Y-129932552D01*
X152416956Y-129952543D01*
X152426921Y-129973613D01*
X152434773Y-129995557D01*
X152440437Y-130018166D01*
X152443856Y-130041221D01*
X152445000Y-130064500D01*
X152445000Y-130539500D01*
X152443856Y-130562779D01*
X152440437Y-130585834D01*
X152434773Y-130608443D01*
X152426921Y-130630387D01*
X152416956Y-130651457D01*
X152404974Y-130671448D01*
X152391090Y-130690168D01*
X152375438Y-130707438D01*
X152358168Y-130723090D01*
X152339448Y-130736974D01*
X152319457Y-130748956D01*
X152298387Y-130758921D01*
X152276443Y-130766773D01*
X152253834Y-130772437D01*
X152230779Y-130775856D01*
X152207500Y-130777000D01*
X151632500Y-130777000D01*
X151609221Y-130775856D01*
X151586166Y-130772437D01*
X151563557Y-130766773D01*
X151541613Y-130758921D01*
X151520543Y-130748956D01*
X151500552Y-130736974D01*
X151481832Y-130723090D01*
X151464562Y-130707438D01*
X151448910Y-130690168D01*
X151435026Y-130671448D01*
X151423044Y-130651457D01*
X151413079Y-130630387D01*
X151405227Y-130608443D01*
X151399563Y-130585834D01*
X151396144Y-130562779D01*
X151395000Y-130539500D01*
X151395000Y-130064500D01*
X151396144Y-130041221D01*
X151399563Y-130018166D01*
X151405227Y-129995557D01*
X151413079Y-129973613D01*
X151423044Y-129952543D01*
X151435026Y-129932552D01*
X151448910Y-129913832D01*
X151464562Y-129896562D01*
X151481832Y-129880910D01*
X151500552Y-129867026D01*
X151520543Y-129855044D01*
X151541613Y-129845079D01*
X151563557Y-129837227D01*
X151586166Y-129831563D01*
X151609221Y-129828144D01*
X151632500Y-129827000D01*
X152207500Y-129827000D01*
X152230779Y-129828144D01*
X152230779Y-129828144D01*
G37*
D11*
X151920000Y-130302000D03*
D10*
G36*
X153980779Y-129828144D02*
X154003834Y-129831563D01*
X154026443Y-129837227D01*
X154048387Y-129845079D01*
X154069457Y-129855044D01*
X154089448Y-129867026D01*
X154108168Y-129880910D01*
X154125438Y-129896562D01*
X154141090Y-129913832D01*
X154154974Y-129932552D01*
X154166956Y-129952543D01*
X154176921Y-129973613D01*
X154184773Y-129995557D01*
X154190437Y-130018166D01*
X154193856Y-130041221D01*
X154195000Y-130064500D01*
X154195000Y-130539500D01*
X154193856Y-130562779D01*
X154190437Y-130585834D01*
X154184773Y-130608443D01*
X154176921Y-130630387D01*
X154166956Y-130651457D01*
X154154974Y-130671448D01*
X154141090Y-130690168D01*
X154125438Y-130707438D01*
X154108168Y-130723090D01*
X154089448Y-130736974D01*
X154069457Y-130748956D01*
X154048387Y-130758921D01*
X154026443Y-130766773D01*
X154003834Y-130772437D01*
X153980779Y-130775856D01*
X153957500Y-130777000D01*
X153382500Y-130777000D01*
X153359221Y-130775856D01*
X153336166Y-130772437D01*
X153313557Y-130766773D01*
X153291613Y-130758921D01*
X153270543Y-130748956D01*
X153250552Y-130736974D01*
X153231832Y-130723090D01*
X153214562Y-130707438D01*
X153198910Y-130690168D01*
X153185026Y-130671448D01*
X153173044Y-130651457D01*
X153163079Y-130630387D01*
X153155227Y-130608443D01*
X153149563Y-130585834D01*
X153146144Y-130562779D01*
X153145000Y-130539500D01*
X153145000Y-130064500D01*
X153146144Y-130041221D01*
X153149563Y-130018166D01*
X153155227Y-129995557D01*
X153163079Y-129973613D01*
X153173044Y-129952543D01*
X153185026Y-129932552D01*
X153198910Y-129913832D01*
X153214562Y-129896562D01*
X153231832Y-129880910D01*
X153250552Y-129867026D01*
X153270543Y-129855044D01*
X153291613Y-129845079D01*
X153313557Y-129837227D01*
X153336166Y-129831563D01*
X153359221Y-129828144D01*
X153382500Y-129827000D01*
X153957500Y-129827000D01*
X153980779Y-129828144D01*
X153980779Y-129828144D01*
G37*
D11*
X153670000Y-130302000D03*
G04 #@! TD*
D10*
G04 #@! TO.C,R2*
G36*
X204730779Y-123146144D02*
X204753834Y-123149563D01*
X204776443Y-123155227D01*
X204798387Y-123163079D01*
X204819457Y-123173044D01*
X204839448Y-123185026D01*
X204858168Y-123198910D01*
X204875438Y-123214562D01*
X204891090Y-123231832D01*
X204904974Y-123250552D01*
X204916956Y-123270543D01*
X204926921Y-123291613D01*
X204934773Y-123313557D01*
X204940437Y-123336166D01*
X204943856Y-123359221D01*
X204945000Y-123382500D01*
X204945000Y-123957500D01*
X204943856Y-123980779D01*
X204940437Y-124003834D01*
X204934773Y-124026443D01*
X204926921Y-124048387D01*
X204916956Y-124069457D01*
X204904974Y-124089448D01*
X204891090Y-124108168D01*
X204875438Y-124125438D01*
X204858168Y-124141090D01*
X204839448Y-124154974D01*
X204819457Y-124166956D01*
X204798387Y-124176921D01*
X204776443Y-124184773D01*
X204753834Y-124190437D01*
X204730779Y-124193856D01*
X204707500Y-124195000D01*
X204232500Y-124195000D01*
X204209221Y-124193856D01*
X204186166Y-124190437D01*
X204163557Y-124184773D01*
X204141613Y-124176921D01*
X204120543Y-124166956D01*
X204100552Y-124154974D01*
X204081832Y-124141090D01*
X204064562Y-124125438D01*
X204048910Y-124108168D01*
X204035026Y-124089448D01*
X204023044Y-124069457D01*
X204013079Y-124048387D01*
X204005227Y-124026443D01*
X203999563Y-124003834D01*
X203996144Y-123980779D01*
X203995000Y-123957500D01*
X203995000Y-123382500D01*
X203996144Y-123359221D01*
X203999563Y-123336166D01*
X204005227Y-123313557D01*
X204013079Y-123291613D01*
X204023044Y-123270543D01*
X204035026Y-123250552D01*
X204048910Y-123231832D01*
X204064562Y-123214562D01*
X204081832Y-123198910D01*
X204100552Y-123185026D01*
X204120543Y-123173044D01*
X204141613Y-123163079D01*
X204163557Y-123155227D01*
X204186166Y-123149563D01*
X204209221Y-123146144D01*
X204232500Y-123145000D01*
X204707500Y-123145000D01*
X204730779Y-123146144D01*
X204730779Y-123146144D01*
G37*
D11*
X204470000Y-123670000D03*
D10*
G36*
X204730779Y-121396144D02*
X204753834Y-121399563D01*
X204776443Y-121405227D01*
X204798387Y-121413079D01*
X204819457Y-121423044D01*
X204839448Y-121435026D01*
X204858168Y-121448910D01*
X204875438Y-121464562D01*
X204891090Y-121481832D01*
X204904974Y-121500552D01*
X204916956Y-121520543D01*
X204926921Y-121541613D01*
X204934773Y-121563557D01*
X204940437Y-121586166D01*
X204943856Y-121609221D01*
X204945000Y-121632500D01*
X204945000Y-122207500D01*
X204943856Y-122230779D01*
X204940437Y-122253834D01*
X204934773Y-122276443D01*
X204926921Y-122298387D01*
X204916956Y-122319457D01*
X204904974Y-122339448D01*
X204891090Y-122358168D01*
X204875438Y-122375438D01*
X204858168Y-122391090D01*
X204839448Y-122404974D01*
X204819457Y-122416956D01*
X204798387Y-122426921D01*
X204776443Y-122434773D01*
X204753834Y-122440437D01*
X204730779Y-122443856D01*
X204707500Y-122445000D01*
X204232500Y-122445000D01*
X204209221Y-122443856D01*
X204186166Y-122440437D01*
X204163557Y-122434773D01*
X204141613Y-122426921D01*
X204120543Y-122416956D01*
X204100552Y-122404974D01*
X204081832Y-122391090D01*
X204064562Y-122375438D01*
X204048910Y-122358168D01*
X204035026Y-122339448D01*
X204023044Y-122319457D01*
X204013079Y-122298387D01*
X204005227Y-122276443D01*
X203999563Y-122253834D01*
X203996144Y-122230779D01*
X203995000Y-122207500D01*
X203995000Y-121632500D01*
X203996144Y-121609221D01*
X203999563Y-121586166D01*
X204005227Y-121563557D01*
X204013079Y-121541613D01*
X204023044Y-121520543D01*
X204035026Y-121500552D01*
X204048910Y-121481832D01*
X204064562Y-121464562D01*
X204081832Y-121448910D01*
X204100552Y-121435026D01*
X204120543Y-121423044D01*
X204141613Y-121413079D01*
X204163557Y-121405227D01*
X204186166Y-121399563D01*
X204209221Y-121396144D01*
X204232500Y-121395000D01*
X204707500Y-121395000D01*
X204730779Y-121396144D01*
X204730779Y-121396144D01*
G37*
D11*
X204470000Y-121920000D03*
G04 #@! TD*
D10*
G04 #@! TO.C,R4*
G36*
X164422779Y-107095144D02*
X164445834Y-107098563D01*
X164468443Y-107104227D01*
X164490387Y-107112079D01*
X164511457Y-107122044D01*
X164531448Y-107134026D01*
X164550168Y-107147910D01*
X164567438Y-107163562D01*
X164583090Y-107180832D01*
X164596974Y-107199552D01*
X164608956Y-107219543D01*
X164618921Y-107240613D01*
X164626773Y-107262557D01*
X164632437Y-107285166D01*
X164635856Y-107308221D01*
X164637000Y-107331500D01*
X164637000Y-107806500D01*
X164635856Y-107829779D01*
X164632437Y-107852834D01*
X164626773Y-107875443D01*
X164618921Y-107897387D01*
X164608956Y-107918457D01*
X164596974Y-107938448D01*
X164583090Y-107957168D01*
X164567438Y-107974438D01*
X164550168Y-107990090D01*
X164531448Y-108003974D01*
X164511457Y-108015956D01*
X164490387Y-108025921D01*
X164468443Y-108033773D01*
X164445834Y-108039437D01*
X164422779Y-108042856D01*
X164399500Y-108044000D01*
X163824500Y-108044000D01*
X163801221Y-108042856D01*
X163778166Y-108039437D01*
X163755557Y-108033773D01*
X163733613Y-108025921D01*
X163712543Y-108015956D01*
X163692552Y-108003974D01*
X163673832Y-107990090D01*
X163656562Y-107974438D01*
X163640910Y-107957168D01*
X163627026Y-107938448D01*
X163615044Y-107918457D01*
X163605079Y-107897387D01*
X163597227Y-107875443D01*
X163591563Y-107852834D01*
X163588144Y-107829779D01*
X163587000Y-107806500D01*
X163587000Y-107331500D01*
X163588144Y-107308221D01*
X163591563Y-107285166D01*
X163597227Y-107262557D01*
X163605079Y-107240613D01*
X163615044Y-107219543D01*
X163627026Y-107199552D01*
X163640910Y-107180832D01*
X163656562Y-107163562D01*
X163673832Y-107147910D01*
X163692552Y-107134026D01*
X163712543Y-107122044D01*
X163733613Y-107112079D01*
X163755557Y-107104227D01*
X163778166Y-107098563D01*
X163801221Y-107095144D01*
X163824500Y-107094000D01*
X164399500Y-107094000D01*
X164422779Y-107095144D01*
X164422779Y-107095144D01*
G37*
D11*
X164112000Y-107569000D03*
D10*
G36*
X166172779Y-107095144D02*
X166195834Y-107098563D01*
X166218443Y-107104227D01*
X166240387Y-107112079D01*
X166261457Y-107122044D01*
X166281448Y-107134026D01*
X166300168Y-107147910D01*
X166317438Y-107163562D01*
X166333090Y-107180832D01*
X166346974Y-107199552D01*
X166358956Y-107219543D01*
X166368921Y-107240613D01*
X166376773Y-107262557D01*
X166382437Y-107285166D01*
X166385856Y-107308221D01*
X166387000Y-107331500D01*
X166387000Y-107806500D01*
X166385856Y-107829779D01*
X166382437Y-107852834D01*
X166376773Y-107875443D01*
X166368921Y-107897387D01*
X166358956Y-107918457D01*
X166346974Y-107938448D01*
X166333090Y-107957168D01*
X166317438Y-107974438D01*
X166300168Y-107990090D01*
X166281448Y-108003974D01*
X166261457Y-108015956D01*
X166240387Y-108025921D01*
X166218443Y-108033773D01*
X166195834Y-108039437D01*
X166172779Y-108042856D01*
X166149500Y-108044000D01*
X165574500Y-108044000D01*
X165551221Y-108042856D01*
X165528166Y-108039437D01*
X165505557Y-108033773D01*
X165483613Y-108025921D01*
X165462543Y-108015956D01*
X165442552Y-108003974D01*
X165423832Y-107990090D01*
X165406562Y-107974438D01*
X165390910Y-107957168D01*
X165377026Y-107938448D01*
X165365044Y-107918457D01*
X165355079Y-107897387D01*
X165347227Y-107875443D01*
X165341563Y-107852834D01*
X165338144Y-107829779D01*
X165337000Y-107806500D01*
X165337000Y-107331500D01*
X165338144Y-107308221D01*
X165341563Y-107285166D01*
X165347227Y-107262557D01*
X165355079Y-107240613D01*
X165365044Y-107219543D01*
X165377026Y-107199552D01*
X165390910Y-107180832D01*
X165406562Y-107163562D01*
X165423832Y-107147910D01*
X165442552Y-107134026D01*
X165462543Y-107122044D01*
X165483613Y-107112079D01*
X165505557Y-107104227D01*
X165528166Y-107098563D01*
X165551221Y-107095144D01*
X165574500Y-107094000D01*
X166149500Y-107094000D01*
X166172779Y-107095144D01*
X166172779Y-107095144D01*
G37*
D11*
X165862000Y-107569000D03*
G04 #@! TD*
D16*
G04 #@! TO.C,U2*
X173990000Y-101600000D03*
X173990000Y-102870000D03*
X173990000Y-104140000D03*
X173990000Y-105410000D03*
X168590000Y-105410000D03*
X168590000Y-104140000D03*
X168590000Y-102870000D03*
X168590000Y-101600000D03*
G04 #@! TD*
G04 #@! TO.C,U3*
X168590000Y-107950000D03*
X168590000Y-109220000D03*
X168590000Y-110490000D03*
X168590000Y-111760000D03*
X173990000Y-111760000D03*
X173990000Y-110490000D03*
X173990000Y-109220000D03*
X173990000Y-107950000D03*
G04 #@! TD*
M02*
