G04 #@! TF.GenerationSoftware,KiCad,Pcbnew,(5.0.2)-1*
G04 #@! TF.CreationDate,2019-12-13T17:07:51-06:00*
G04 #@! TF.ProjectId,Arm-EStop_Hardware,41726d2d-4553-4746-9f70-5f4861726477,rev?*
G04 #@! TF.SameCoordinates,Original*
G04 #@! TF.FileFunction,Legend,Bot*
G04 #@! TF.FilePolarity,Positive*
%FSLAX46Y46*%
G04 Gerber Fmt 4.6, Leading zero omitted, Abs format (unit mm)*
G04 Created by KiCad (PCBNEW (5.0.2)-1) date 12/13/2019 5:07:51 PM*
%MOMM*%
%LPD*%
G01*
G04 APERTURE LIST*
%ADD10C,0.010000*%
G04 APERTURE END LIST*
D10*
G04 #@! TO.C,G\002A\002A\002A*
G36*
X158712008Y-91024022D02*
X158450186Y-91061784D01*
X158237011Y-91123759D01*
X158204495Y-91137838D01*
X158074000Y-91198310D01*
X158194000Y-91178011D01*
X158611646Y-91131171D01*
X159002836Y-91134290D01*
X159349802Y-91187174D01*
X159364128Y-91190730D01*
X159768451Y-91323694D01*
X160189782Y-91522936D01*
X160629558Y-91789625D01*
X161089219Y-92124932D01*
X161570199Y-92530026D01*
X162073937Y-93006076D01*
X162601870Y-93554254D01*
X163155434Y-94175728D01*
X163431277Y-94501138D01*
X163686830Y-94809781D01*
X163930974Y-95110754D01*
X164167534Y-95409587D01*
X164400337Y-95711812D01*
X164633207Y-96022959D01*
X164869972Y-96348558D01*
X165114456Y-96694140D01*
X165370487Y-97065235D01*
X165641889Y-97467374D01*
X165932489Y-97906088D01*
X166246113Y-98386908D01*
X166586586Y-98915362D01*
X166957734Y-99496983D01*
X167363384Y-100137301D01*
X167704280Y-100678000D01*
X168481659Y-101931579D01*
X169229356Y-103174320D01*
X169935351Y-104386163D01*
X170113031Y-104698000D01*
X170273607Y-104979740D01*
X170459639Y-105303781D01*
X170655812Y-105643592D01*
X170846812Y-105972643D01*
X171014400Y-106259425D01*
X171181320Y-106545561D01*
X171364422Y-106862441D01*
X171549575Y-107185410D01*
X171722646Y-107489813D01*
X171869505Y-107750997D01*
X171874204Y-107759425D01*
X172000858Y-107986273D01*
X172121012Y-108200758D01*
X172226670Y-108388665D01*
X172309839Y-108535778D01*
X172362525Y-108627880D01*
X172364184Y-108630732D01*
X172464805Y-108803465D01*
X172620092Y-108390732D01*
X172701540Y-108186609D01*
X172802800Y-107952175D01*
X172918792Y-107697397D01*
X173044437Y-107432240D01*
X173174655Y-107166671D01*
X173304365Y-106910656D01*
X173428488Y-106674161D01*
X173541943Y-106467151D01*
X173639650Y-106299593D01*
X173716530Y-106181452D01*
X173767503Y-106122696D01*
X173778577Y-106118000D01*
X173805454Y-106151442D01*
X173863149Y-106244177D01*
X173945006Y-106384815D01*
X174044370Y-106561970D01*
X174135057Y-106728000D01*
X174281488Y-106998105D01*
X174438507Y-107285897D01*
X174601333Y-107582778D01*
X174765182Y-107880152D01*
X174925274Y-108169425D01*
X175076825Y-108441999D01*
X175215055Y-108689280D01*
X175335181Y-108902670D01*
X175432421Y-109073575D01*
X175501993Y-109193398D01*
X175539114Y-109253544D01*
X175542529Y-109258000D01*
X175545304Y-109240441D01*
X175524042Y-109161577D01*
X175482785Y-109035015D01*
X175441524Y-108918000D01*
X175341317Y-108642664D01*
X175229929Y-108338929D01*
X175110543Y-108015274D01*
X174986342Y-107680180D01*
X174860511Y-107342127D01*
X174736234Y-107009594D01*
X174616694Y-106691062D01*
X174505075Y-106395011D01*
X174404561Y-106129920D01*
X174318336Y-105904270D01*
X174249583Y-105726541D01*
X174201486Y-105605212D01*
X174177229Y-105548764D01*
X174175514Y-105546000D01*
X174141775Y-105561642D01*
X174078495Y-105631662D01*
X173997791Y-105742142D01*
X173975303Y-105776000D01*
X173891869Y-105899312D01*
X173823866Y-105991102D01*
X173783463Y-106035174D01*
X173779302Y-106036856D01*
X173753976Y-106002804D01*
X173697041Y-105908050D01*
X173614188Y-105762664D01*
X173511112Y-105576712D01*
X173393505Y-105360265D01*
X173334000Y-105249312D01*
X173193870Y-104988403D01*
X173026096Y-104678389D01*
X172841998Y-104340040D01*
X172652891Y-103994122D01*
X172470095Y-103661404D01*
X172359139Y-103460456D01*
X172198075Y-103168970D01*
X172008877Y-102825749D01*
X171801714Y-102449292D01*
X171586756Y-102058096D01*
X171374172Y-101670662D01*
X171174132Y-101305487D01*
X171104393Y-101178000D01*
X170780274Y-100589935D01*
X170461913Y-100021471D01*
X170152759Y-99478393D01*
X169856261Y-98966486D01*
X169575867Y-98491535D01*
X169315026Y-98059328D01*
X169077186Y-97675648D01*
X168865796Y-97346281D01*
X168684306Y-97077013D01*
X168547221Y-96888014D01*
X168355200Y-96656477D01*
X168183944Y-96490004D01*
X168036290Y-96390182D01*
X167915076Y-96358593D01*
X167823142Y-96396824D01*
X167780421Y-96459882D01*
X167740822Y-96566731D01*
X167734007Y-96629550D01*
X167756543Y-96637938D01*
X167804996Y-96581499D01*
X167815220Y-96565273D01*
X167892407Y-96471520D01*
X167964121Y-96445317D01*
X167965071Y-96445487D01*
X168040244Y-96493470D01*
X168144357Y-96613286D01*
X168276145Y-96802693D01*
X168434342Y-97059443D01*
X168617685Y-97381294D01*
X168824907Y-97766000D01*
X169054743Y-98211316D01*
X169305930Y-98714998D01*
X169577201Y-99274801D01*
X169674012Y-99478000D01*
X169769354Y-99681159D01*
X169885724Y-99932809D01*
X170020193Y-100226366D01*
X170169834Y-100555247D01*
X170331718Y-100912869D01*
X170502918Y-101292650D01*
X170680505Y-101688005D01*
X170861551Y-102092353D01*
X171043129Y-102499109D01*
X171222310Y-102901691D01*
X171396166Y-103293515D01*
X171561769Y-103667999D01*
X171716191Y-104018560D01*
X171856504Y-104338614D01*
X171979780Y-104621578D01*
X172083090Y-104860869D01*
X172163508Y-105049905D01*
X172218104Y-105182102D01*
X172243951Y-105250876D01*
X172245466Y-105259345D01*
X172220977Y-105230723D01*
X172158266Y-105144473D01*
X172063537Y-105009499D01*
X171942992Y-104834705D01*
X171802836Y-104628994D01*
X171694000Y-104467834D01*
X171512571Y-104199895D01*
X171297775Y-103885501D01*
X171055095Y-103532486D01*
X170790014Y-103148684D01*
X170508015Y-102741927D01*
X170214580Y-102320048D01*
X169915192Y-101890881D01*
X169615333Y-101462258D01*
X169320487Y-101042014D01*
X169036135Y-100637980D01*
X168767761Y-100257990D01*
X168520847Y-99909877D01*
X168300876Y-99601475D01*
X168113331Y-99340616D01*
X167963694Y-99135134D01*
X167921478Y-99078000D01*
X167191298Y-98107070D01*
X166494956Y-97206332D01*
X165830944Y-96374212D01*
X165197752Y-95609136D01*
X164593869Y-94909530D01*
X164017787Y-94273818D01*
X163467995Y-93700427D01*
X162942983Y-93187783D01*
X162441243Y-92734311D01*
X161961263Y-92338437D01*
X161501534Y-91998586D01*
X161060546Y-91713185D01*
X160636790Y-91480659D01*
X160634000Y-91479273D01*
X160318126Y-91328521D01*
X160049282Y-91215353D01*
X159807775Y-91133216D01*
X159573914Y-91075556D01*
X159328006Y-91035822D01*
X159285759Y-91030635D01*
X158998519Y-91012847D01*
X158712008Y-91024022D01*
X158712008Y-91024022D01*
G37*
X158712008Y-91024022D02*
X158450186Y-91061784D01*
X158237011Y-91123759D01*
X158204495Y-91137838D01*
X158074000Y-91198310D01*
X158194000Y-91178011D01*
X158611646Y-91131171D01*
X159002836Y-91134290D01*
X159349802Y-91187174D01*
X159364128Y-91190730D01*
X159768451Y-91323694D01*
X160189782Y-91522936D01*
X160629558Y-91789625D01*
X161089219Y-92124932D01*
X161570199Y-92530026D01*
X162073937Y-93006076D01*
X162601870Y-93554254D01*
X163155434Y-94175728D01*
X163431277Y-94501138D01*
X163686830Y-94809781D01*
X163930974Y-95110754D01*
X164167534Y-95409587D01*
X164400337Y-95711812D01*
X164633207Y-96022959D01*
X164869972Y-96348558D01*
X165114456Y-96694140D01*
X165370487Y-97065235D01*
X165641889Y-97467374D01*
X165932489Y-97906088D01*
X166246113Y-98386908D01*
X166586586Y-98915362D01*
X166957734Y-99496983D01*
X167363384Y-100137301D01*
X167704280Y-100678000D01*
X168481659Y-101931579D01*
X169229356Y-103174320D01*
X169935351Y-104386163D01*
X170113031Y-104698000D01*
X170273607Y-104979740D01*
X170459639Y-105303781D01*
X170655812Y-105643592D01*
X170846812Y-105972643D01*
X171014400Y-106259425D01*
X171181320Y-106545561D01*
X171364422Y-106862441D01*
X171549575Y-107185410D01*
X171722646Y-107489813D01*
X171869505Y-107750997D01*
X171874204Y-107759425D01*
X172000858Y-107986273D01*
X172121012Y-108200758D01*
X172226670Y-108388665D01*
X172309839Y-108535778D01*
X172362525Y-108627880D01*
X172364184Y-108630732D01*
X172464805Y-108803465D01*
X172620092Y-108390732D01*
X172701540Y-108186609D01*
X172802800Y-107952175D01*
X172918792Y-107697397D01*
X173044437Y-107432240D01*
X173174655Y-107166671D01*
X173304365Y-106910656D01*
X173428488Y-106674161D01*
X173541943Y-106467151D01*
X173639650Y-106299593D01*
X173716530Y-106181452D01*
X173767503Y-106122696D01*
X173778577Y-106118000D01*
X173805454Y-106151442D01*
X173863149Y-106244177D01*
X173945006Y-106384815D01*
X174044370Y-106561970D01*
X174135057Y-106728000D01*
X174281488Y-106998105D01*
X174438507Y-107285897D01*
X174601333Y-107582778D01*
X174765182Y-107880152D01*
X174925274Y-108169425D01*
X175076825Y-108441999D01*
X175215055Y-108689280D01*
X175335181Y-108902670D01*
X175432421Y-109073575D01*
X175501993Y-109193398D01*
X175539114Y-109253544D01*
X175542529Y-109258000D01*
X175545304Y-109240441D01*
X175524042Y-109161577D01*
X175482785Y-109035015D01*
X175441524Y-108918000D01*
X175341317Y-108642664D01*
X175229929Y-108338929D01*
X175110543Y-108015274D01*
X174986342Y-107680180D01*
X174860511Y-107342127D01*
X174736234Y-107009594D01*
X174616694Y-106691062D01*
X174505075Y-106395011D01*
X174404561Y-106129920D01*
X174318336Y-105904270D01*
X174249583Y-105726541D01*
X174201486Y-105605212D01*
X174177229Y-105548764D01*
X174175514Y-105546000D01*
X174141775Y-105561642D01*
X174078495Y-105631662D01*
X173997791Y-105742142D01*
X173975303Y-105776000D01*
X173891869Y-105899312D01*
X173823866Y-105991102D01*
X173783463Y-106035174D01*
X173779302Y-106036856D01*
X173753976Y-106002804D01*
X173697041Y-105908050D01*
X173614188Y-105762664D01*
X173511112Y-105576712D01*
X173393505Y-105360265D01*
X173334000Y-105249312D01*
X173193870Y-104988403D01*
X173026096Y-104678389D01*
X172841998Y-104340040D01*
X172652891Y-103994122D01*
X172470095Y-103661404D01*
X172359139Y-103460456D01*
X172198075Y-103168970D01*
X172008877Y-102825749D01*
X171801714Y-102449292D01*
X171586756Y-102058096D01*
X171374172Y-101670662D01*
X171174132Y-101305487D01*
X171104393Y-101178000D01*
X170780274Y-100589935D01*
X170461913Y-100021471D01*
X170152759Y-99478393D01*
X169856261Y-98966486D01*
X169575867Y-98491535D01*
X169315026Y-98059328D01*
X169077186Y-97675648D01*
X168865796Y-97346281D01*
X168684306Y-97077013D01*
X168547221Y-96888014D01*
X168355200Y-96656477D01*
X168183944Y-96490004D01*
X168036290Y-96390182D01*
X167915076Y-96358593D01*
X167823142Y-96396824D01*
X167780421Y-96459882D01*
X167740822Y-96566731D01*
X167734007Y-96629550D01*
X167756543Y-96637938D01*
X167804996Y-96581499D01*
X167815220Y-96565273D01*
X167892407Y-96471520D01*
X167964121Y-96445317D01*
X167965071Y-96445487D01*
X168040244Y-96493470D01*
X168144357Y-96613286D01*
X168276145Y-96802693D01*
X168434342Y-97059443D01*
X168617685Y-97381294D01*
X168824907Y-97766000D01*
X169054743Y-98211316D01*
X169305930Y-98714998D01*
X169577201Y-99274801D01*
X169674012Y-99478000D01*
X169769354Y-99681159D01*
X169885724Y-99932809D01*
X170020193Y-100226366D01*
X170169834Y-100555247D01*
X170331718Y-100912869D01*
X170502918Y-101292650D01*
X170680505Y-101688005D01*
X170861551Y-102092353D01*
X171043129Y-102499109D01*
X171222310Y-102901691D01*
X171396166Y-103293515D01*
X171561769Y-103667999D01*
X171716191Y-104018560D01*
X171856504Y-104338614D01*
X171979780Y-104621578D01*
X172083090Y-104860869D01*
X172163508Y-105049905D01*
X172218104Y-105182102D01*
X172243951Y-105250876D01*
X172245466Y-105259345D01*
X172220977Y-105230723D01*
X172158266Y-105144473D01*
X172063537Y-105009499D01*
X171942992Y-104834705D01*
X171802836Y-104628994D01*
X171694000Y-104467834D01*
X171512571Y-104199895D01*
X171297775Y-103885501D01*
X171055095Y-103532486D01*
X170790014Y-103148684D01*
X170508015Y-102741927D01*
X170214580Y-102320048D01*
X169915192Y-101890881D01*
X169615333Y-101462258D01*
X169320487Y-101042014D01*
X169036135Y-100637980D01*
X168767761Y-100257990D01*
X168520847Y-99909877D01*
X168300876Y-99601475D01*
X168113331Y-99340616D01*
X167963694Y-99135134D01*
X167921478Y-99078000D01*
X167191298Y-98107070D01*
X166494956Y-97206332D01*
X165830944Y-96374212D01*
X165197752Y-95609136D01*
X164593869Y-94909530D01*
X164017787Y-94273818D01*
X163467995Y-93700427D01*
X162942983Y-93187783D01*
X162441243Y-92734311D01*
X161961263Y-92338437D01*
X161501534Y-91998586D01*
X161060546Y-91713185D01*
X160636790Y-91480659D01*
X160634000Y-91479273D01*
X160318126Y-91328521D01*
X160049282Y-91215353D01*
X159807775Y-91133216D01*
X159573914Y-91075556D01*
X159328006Y-91035822D01*
X159285759Y-91030635D01*
X158998519Y-91012847D01*
X158712008Y-91024022D01*
G36*
X175574000Y-109338000D02*
X175594000Y-109358000D01*
X175614000Y-109338000D01*
X175594000Y-109318000D01*
X175574000Y-109338000D01*
X175574000Y-109338000D01*
G37*
X175574000Y-109338000D02*
X175594000Y-109358000D01*
X175614000Y-109338000D01*
X175594000Y-109318000D01*
X175574000Y-109338000D01*
G36*
X171821220Y-99941799D02*
X171842167Y-99990011D01*
X171910287Y-100092570D01*
X171949369Y-100147907D01*
X172022480Y-100255826D01*
X172094113Y-100374280D01*
X172168763Y-100512743D01*
X172250925Y-100680687D01*
X172345095Y-100887585D01*
X172455766Y-101142909D01*
X172587435Y-101456132D01*
X172704657Y-101739570D01*
X172804350Y-101984307D01*
X172927307Y-102290193D01*
X173068195Y-102643662D01*
X173221684Y-103031147D01*
X173382443Y-103439081D01*
X173545142Y-103853897D01*
X173704449Y-104262030D01*
X173855035Y-104649912D01*
X173991567Y-105003977D01*
X174108717Y-105310658D01*
X174132027Y-105372187D01*
X174175205Y-105486375D01*
X174399567Y-105179152D01*
X174498766Y-105050708D01*
X174582531Y-104955881D01*
X174639270Y-104907091D01*
X174655411Y-104904964D01*
X174677795Y-104945802D01*
X174731900Y-105052650D01*
X174814752Y-105219435D01*
X174923380Y-105440080D01*
X175054811Y-105708511D01*
X175206074Y-106018651D01*
X175374196Y-106364427D01*
X175556206Y-106739762D01*
X175749131Y-107138582D01*
X175826121Y-107298000D01*
X176269371Y-108215694D01*
X176680681Y-109066112D01*
X177062480Y-109854219D01*
X177417195Y-110584980D01*
X177747255Y-111263361D01*
X178055088Y-111894326D01*
X178343124Y-112482842D01*
X178613790Y-113033872D01*
X178869514Y-113552382D01*
X179112725Y-114043338D01*
X179345852Y-114511704D01*
X179571323Y-114962446D01*
X179699666Y-115218000D01*
X179873613Y-115565912D01*
X180022149Y-115864996D01*
X180150556Y-116122118D01*
X180264116Y-116344147D01*
X180368114Y-116537950D01*
X180467830Y-116710394D01*
X180568548Y-116868346D01*
X180675551Y-117018674D01*
X180794121Y-117168246D01*
X180929541Y-117323928D01*
X181087093Y-117492589D01*
X181272061Y-117681096D01*
X181489727Y-117896315D01*
X181745373Y-118145116D01*
X182044282Y-118434364D01*
X182391738Y-118770928D01*
X182554000Y-118928615D01*
X182846678Y-119214996D01*
X183133017Y-119498172D01*
X183405545Y-119770549D01*
X183656792Y-120024532D01*
X183879287Y-120252527D01*
X184065557Y-120446937D01*
X184208131Y-120600169D01*
X184291123Y-120694445D01*
X184516832Y-120959830D01*
X184790528Y-121273635D01*
X185104209Y-121627143D01*
X185449867Y-122011633D01*
X185819500Y-122418388D01*
X186205102Y-122838691D01*
X186598668Y-123263822D01*
X186992194Y-123685063D01*
X187377674Y-124093696D01*
X187747104Y-124481003D01*
X188092480Y-124838265D01*
X188148994Y-124896171D01*
X188340133Y-125092268D01*
X188510797Y-125268426D01*
X188653611Y-125416943D01*
X188761197Y-125530118D01*
X188826181Y-125600250D01*
X188842496Y-125620242D01*
X188793331Y-125637759D01*
X188681937Y-125669807D01*
X188523912Y-125712410D01*
X188334856Y-125761593D01*
X188130370Y-125813377D01*
X187926052Y-125863787D01*
X187737503Y-125908847D01*
X187580322Y-125944579D01*
X187519597Y-125957455D01*
X187262703Y-126005895D01*
X187076007Y-126031406D01*
X186953205Y-126034458D01*
X186887992Y-126015516D01*
X186878335Y-126005013D01*
X186840119Y-125967309D01*
X186753647Y-125892374D01*
X186633432Y-125792578D01*
X186545975Y-125721763D01*
X186234000Y-125471499D01*
X186549673Y-125769233D01*
X186865346Y-126066968D01*
X186729673Y-126091249D01*
X186489197Y-126126031D01*
X186200969Y-126154206D01*
X185875911Y-126175854D01*
X185524943Y-126191055D01*
X185158987Y-126199888D01*
X184788964Y-126202434D01*
X184425794Y-126198772D01*
X184080398Y-126188983D01*
X183763698Y-126173146D01*
X183486615Y-126151341D01*
X183260069Y-126123649D01*
X183094981Y-126090149D01*
X183023451Y-126064118D01*
X182977712Y-126016925D01*
X182896759Y-125907246D01*
X182784904Y-125742149D01*
X182646461Y-125528699D01*
X182485744Y-125273965D01*
X182307066Y-124985012D01*
X182114742Y-124668908D01*
X181913084Y-124332719D01*
X181706407Y-123983511D01*
X181499023Y-123628353D01*
X181295248Y-123274309D01*
X181099393Y-122928447D01*
X180993134Y-122738000D01*
X180824517Y-122439126D01*
X180643422Y-122127091D01*
X180460406Y-121819473D01*
X180286026Y-121533850D01*
X180130839Y-121287799D01*
X180032173Y-121138000D01*
X179884553Y-120912595D01*
X179713115Y-120638739D01*
X179531355Y-120338744D01*
X179352770Y-120034924D01*
X179190856Y-119749592D01*
X179174657Y-119720317D01*
X178975869Y-119369120D01*
X178780389Y-119044532D01*
X178574155Y-118724732D01*
X178343108Y-118387901D01*
X178079099Y-118020317D01*
X177513748Y-117230416D01*
X176979508Y-116449998D01*
X176463960Y-115659815D01*
X175954684Y-114840619D01*
X175439261Y-113973165D01*
X175199753Y-113558000D01*
X175056035Y-113311039D01*
X174925254Y-113097866D01*
X174795622Y-112901778D01*
X174655350Y-112706070D01*
X174492651Y-112494039D01*
X174295737Y-112248980D01*
X174155319Y-112078000D01*
X173961522Y-111842923D01*
X173768754Y-111608441D01*
X173587946Y-111387898D01*
X173430029Y-111194640D01*
X173305934Y-111042009D01*
X173254278Y-110978000D01*
X173129962Y-110824856D01*
X172972563Y-110633363D01*
X172800782Y-110426152D01*
X172633317Y-110225853D01*
X172605629Y-110192939D01*
X172469278Y-110027837D01*
X172353579Y-109881672D01*
X172267571Y-109766346D01*
X172220292Y-109693759D01*
X172214000Y-109677251D01*
X172224672Y-109617184D01*
X172252131Y-109508020D01*
X172289546Y-109373270D01*
X172330084Y-109236446D01*
X172366913Y-109121059D01*
X172393201Y-109050621D01*
X172399039Y-109040494D01*
X172433965Y-109056691D01*
X172509018Y-109116132D01*
X172602097Y-109200494D01*
X172694408Y-109283680D01*
X172737622Y-109311243D01*
X172729243Y-109281637D01*
X172727039Y-109278000D01*
X172671116Y-109180760D01*
X172602316Y-109053047D01*
X172575172Y-109000557D01*
X172520586Y-108897953D01*
X172487108Y-108858112D01*
X172460749Y-108871906D01*
X172437785Y-108910928D01*
X172416257Y-108943656D01*
X172389068Y-108954871D01*
X172345936Y-108938145D01*
X172276579Y-108887048D01*
X172170715Y-108795150D01*
X172018060Y-108656023D01*
X171992395Y-108632434D01*
X171539662Y-108219673D01*
X171136334Y-107859690D01*
X170776452Y-107547516D01*
X170454056Y-107278181D01*
X170163190Y-107046715D01*
X169897893Y-106848148D01*
X169652207Y-106677510D01*
X169634000Y-106665432D01*
X169308363Y-106463799D01*
X169029716Y-106320267D01*
X168799445Y-106235328D01*
X168618935Y-106209474D01*
X168489572Y-106243197D01*
X168474000Y-106253932D01*
X168431300Y-106291334D01*
X168439249Y-106309599D01*
X168509435Y-106315849D01*
X168576169Y-106316727D01*
X168754498Y-106343176D01*
X168931433Y-106427814D01*
X168939312Y-106432770D01*
X169079414Y-106531760D01*
X169260870Y-106674897D01*
X169468938Y-106849294D01*
X169688875Y-107042061D01*
X169905938Y-107240310D01*
X170105384Y-107431154D01*
X170254000Y-107582084D01*
X170377427Y-107713651D01*
X170533784Y-107882329D01*
X170714862Y-108079074D01*
X170912455Y-108294846D01*
X171118354Y-108520602D01*
X171324353Y-108747298D01*
X171522243Y-108965894D01*
X171703818Y-109167346D01*
X171860869Y-109342613D01*
X171985190Y-109482651D01*
X172068572Y-109578419D01*
X172095924Y-109611360D01*
X172184087Y-109723440D01*
X172075899Y-110210720D01*
X171987028Y-110633960D01*
X171917925Y-111021305D01*
X171865976Y-111395367D01*
X171828567Y-111778760D01*
X171803082Y-112194098D01*
X171786907Y-112663996D01*
X171785541Y-112721885D01*
X171780527Y-113372168D01*
X171797958Y-113965773D01*
X171839907Y-114523385D01*
X171908447Y-115065689D01*
X172005651Y-115613371D01*
X172132273Y-116181673D01*
X172409159Y-117156704D01*
X172759199Y-118102823D01*
X173179575Y-119016184D01*
X173667469Y-119892946D01*
X174220066Y-120729265D01*
X174834547Y-121521298D01*
X175508096Y-122265202D01*
X176237896Y-122957133D01*
X177021129Y-123593249D01*
X177854978Y-124169707D01*
X178098207Y-124320545D01*
X178928322Y-124781373D01*
X179796677Y-125184486D01*
X180689968Y-125524873D01*
X181594889Y-125797521D01*
X182498135Y-125997417D01*
X182594000Y-126014266D01*
X182804271Y-126057067D01*
X182939944Y-126101210D01*
X183005383Y-126146962D01*
X183041669Y-126198705D01*
X183116421Y-126306483D01*
X183222800Y-126460394D01*
X183353968Y-126650537D01*
X183503088Y-126867010D01*
X183620746Y-127038000D01*
X184059713Y-127661200D01*
X184472657Y-128215462D01*
X184864081Y-128705794D01*
X185238489Y-129137206D01*
X185600386Y-129514705D01*
X185954276Y-129843300D01*
X186304662Y-130128000D01*
X186569096Y-130316561D01*
X186802154Y-130458859D01*
X187070452Y-130599890D01*
X187348540Y-130727874D01*
X187610968Y-130831031D01*
X187816043Y-130893722D01*
X188144073Y-130951962D01*
X188499032Y-130977861D01*
X188846053Y-130970223D01*
X189101728Y-130937813D01*
X189575745Y-130807339D01*
X190030044Y-130599481D01*
X190464016Y-130314539D01*
X190614238Y-130193919D01*
X190730189Y-130103624D01*
X190824574Y-130056754D01*
X190931882Y-130039658D01*
X191008151Y-130038000D01*
X191544198Y-130006583D01*
X192088116Y-129915855D01*
X192217471Y-129880747D01*
X189261369Y-129880747D01*
X189205992Y-129915480D01*
X189154000Y-129931716D01*
X189078133Y-129940445D01*
X188946909Y-129944723D01*
X188784879Y-129943914D01*
X188734000Y-129942587D01*
X188500668Y-129925740D01*
X188308133Y-129886982D01*
X188142849Y-129829172D01*
X187872466Y-129705718D01*
X187630492Y-129564342D01*
X187395355Y-129390226D01*
X187145483Y-129168551D01*
X187056897Y-129083203D01*
X186926170Y-128952974D01*
X186829005Y-128851635D01*
X186772598Y-128787094D01*
X186764150Y-128767259D01*
X186774000Y-128772435D01*
X187187437Y-129029212D01*
X187544668Y-129233979D01*
X187848740Y-129388480D01*
X187863293Y-129395236D01*
X188077953Y-129487243D01*
X188323801Y-129581267D01*
X188578598Y-129669830D01*
X188820108Y-129745454D01*
X189026089Y-129800660D01*
X189134499Y-129822719D01*
X189237391Y-129849006D01*
X189261369Y-129880747D01*
X192217471Y-129880747D01*
X192621477Y-129771097D01*
X193125852Y-129577594D01*
X193582813Y-129340627D01*
X193701902Y-129265799D01*
X193839643Y-129185655D01*
X193975034Y-129123364D01*
X194054000Y-129098436D01*
X194158153Y-129067494D01*
X194304538Y-129011602D01*
X194464043Y-128942004D01*
X194487308Y-128931074D01*
X194807291Y-128735546D01*
X194807809Y-128735059D01*
X190912501Y-128735059D01*
X190899233Y-128766771D01*
X190861843Y-128809650D01*
X190853020Y-128819043D01*
X190802978Y-128868390D01*
X190753246Y-128898898D01*
X190688356Y-128911035D01*
X190592840Y-128905267D01*
X190451228Y-128882061D01*
X190248053Y-128841885D01*
X190228404Y-128837896D01*
X190064943Y-128801449D01*
X189877676Y-128754563D01*
X189681079Y-128701519D01*
X189489631Y-128646601D01*
X189317807Y-128594089D01*
X189180085Y-128548266D01*
X189090943Y-128513412D01*
X189064857Y-128493810D01*
X189064887Y-128493780D01*
X189108151Y-128493614D01*
X189210981Y-128505757D01*
X189354309Y-128527788D01*
X189415357Y-128538238D01*
X189589862Y-128564788D01*
X189814826Y-128593100D01*
X190060875Y-128619741D01*
X190292617Y-128640795D01*
X190538986Y-128660901D01*
X190714891Y-128677433D01*
X190829599Y-128693338D01*
X190892379Y-128711564D01*
X190912501Y-128735059D01*
X194807809Y-128735059D01*
X195084741Y-128475188D01*
X195316979Y-128154537D01*
X195501330Y-127778129D01*
X195635114Y-127350500D01*
X195715656Y-126876184D01*
X195718911Y-126844591D01*
X195747056Y-126672587D01*
X195796486Y-126468628D01*
X195856995Y-126274299D01*
X195862894Y-126258000D01*
X196019462Y-125776100D01*
X196039607Y-125698000D01*
X195260137Y-125698000D01*
X195242688Y-125984107D01*
X195225009Y-126158336D01*
X195189006Y-126301180D01*
X195123169Y-126450636D01*
X195073028Y-126544107D01*
X194732658Y-127094654D01*
X194363104Y-127572909D01*
X193961826Y-127982014D01*
X193794000Y-128125266D01*
X193554000Y-128319694D01*
X193294000Y-128294902D01*
X193158566Y-128279935D01*
X193058642Y-128265043D01*
X193017334Y-128254054D01*
X193008764Y-128243285D01*
X193016399Y-128229083D01*
X193052813Y-128202545D01*
X193130581Y-128154767D01*
X193262278Y-128076845D01*
X193294000Y-128058154D01*
X193731174Y-127763580D01*
X194123721Y-127419126D01*
X194478033Y-127017663D01*
X194800499Y-126552065D01*
X195061315Y-126086926D01*
X195260137Y-125698000D01*
X196039607Y-125698000D01*
X196161758Y-125224450D01*
X196287856Y-124612339D01*
X196395832Y-123949058D01*
X196480089Y-123278000D01*
X196498467Y-123068564D01*
X196513887Y-122813743D01*
X196526263Y-122525672D01*
X196535512Y-122216487D01*
X196541548Y-121898321D01*
X196544286Y-121583311D01*
X196543641Y-121283591D01*
X196539528Y-121011296D01*
X196531862Y-120778562D01*
X196520559Y-120597524D01*
X196505532Y-120480316D01*
X196499836Y-120458000D01*
X196477788Y-120397489D01*
X196465539Y-120394424D01*
X196459643Y-120456885D01*
X196457211Y-120558000D01*
X196444225Y-120875799D01*
X196416235Y-121253192D01*
X196375607Y-121671680D01*
X196324707Y-122112766D01*
X196265899Y-122557952D01*
X196201550Y-122988738D01*
X196134023Y-123386627D01*
X196065686Y-123733122D01*
X196032599Y-123878629D01*
X195971483Y-124122242D01*
X195906706Y-124362507D01*
X195841968Y-124587535D01*
X195780969Y-124785434D01*
X195727407Y-124944313D01*
X195684984Y-125052282D01*
X195657398Y-125097451D01*
X195653329Y-125097584D01*
X195616587Y-125032833D01*
X195598221Y-124905635D01*
X195598202Y-124731397D01*
X195616501Y-124525528D01*
X195653089Y-124303435D01*
X195654867Y-124294748D01*
X195712808Y-123996618D01*
X195759891Y-123711266D01*
X195797229Y-123425112D01*
X195825935Y-123124575D01*
X195847125Y-122796075D01*
X195861912Y-122426031D01*
X195871409Y-122000862D01*
X195876060Y-121598000D01*
X195882295Y-120819006D01*
X195652043Y-120819006D01*
X195648201Y-120974434D01*
X195640266Y-121167962D01*
X195628934Y-121385705D01*
X195614901Y-121613776D01*
X195598862Y-121838288D01*
X195581514Y-122045354D01*
X195570499Y-122158000D01*
X195548278Y-122345752D01*
X195518754Y-122561044D01*
X195484553Y-122788171D01*
X195448302Y-123011427D01*
X195412627Y-123215107D01*
X195380154Y-123383507D01*
X195353509Y-123500923D01*
X195338111Y-123547673D01*
X195316513Y-123531428D01*
X195276897Y-123451309D01*
X195224677Y-123319936D01*
X195165265Y-123149927D01*
X195157957Y-123127673D01*
X195067967Y-122859314D01*
X194987492Y-122633962D01*
X194919577Y-122459279D01*
X194867265Y-122342930D01*
X194833602Y-122292577D01*
X194826167Y-122292500D01*
X194827511Y-122335811D01*
X194843444Y-122441756D01*
X194871325Y-122594847D01*
X194908514Y-122779597D01*
X194912262Y-122797415D01*
X194963335Y-123049604D01*
X195017732Y-123334968D01*
X195067540Y-123611285D01*
X195093165Y-123762709D01*
X195171036Y-124240024D01*
X195049486Y-124589012D01*
X194947777Y-124856627D01*
X194822007Y-125150087D01*
X194682770Y-125447351D01*
X194540656Y-125726377D01*
X194406260Y-125965127D01*
X194331231Y-126083588D01*
X194140485Y-126336212D01*
X193909011Y-126596454D01*
X193661061Y-126839132D01*
X193420887Y-127039063D01*
X193387612Y-127063394D01*
X193266548Y-127143000D01*
X193117466Y-127230708D01*
X192956340Y-127318439D01*
X192799144Y-127398115D01*
X192661853Y-127461656D01*
X192560443Y-127500986D01*
X192510887Y-127508025D01*
X192509915Y-127507248D01*
X192517279Y-127465662D01*
X192551868Y-127370720D01*
X192606643Y-127241354D01*
X192618812Y-127214312D01*
X192736907Y-126942543D01*
X192869754Y-126617235D01*
X193008656Y-126261335D01*
X193144916Y-125897792D01*
X193269838Y-125549554D01*
X193374724Y-125239567D01*
X193413275Y-125118000D01*
X193479935Y-124895183D01*
X193551857Y-124643352D01*
X193625805Y-124375080D01*
X193698542Y-124102940D01*
X193766831Y-123839503D01*
X193827435Y-123597343D01*
X193877118Y-123389031D01*
X193912644Y-123227141D01*
X193930775Y-123124244D01*
X193932421Y-123101443D01*
X193917837Y-123116769D01*
X193877155Y-123198530D01*
X193813814Y-123338815D01*
X193731253Y-123529710D01*
X193632911Y-123763304D01*
X193522226Y-124031685D01*
X193438442Y-124238000D01*
X193262783Y-124669705D01*
X193108339Y-125040347D01*
X192968586Y-125363900D01*
X192837000Y-125654337D01*
X192707058Y-125925632D01*
X192572235Y-126191759D01*
X192426006Y-126466692D01*
X192261849Y-126764403D01*
X192244113Y-126796114D01*
X192084571Y-127078977D01*
X191957316Y-127298771D01*
X191857057Y-127463053D01*
X191778504Y-127579381D01*
X191716369Y-127655312D01*
X191665361Y-127698403D01*
X191620192Y-127716212D01*
X191598875Y-127718000D01*
X191526380Y-127696693D01*
X191406925Y-127639185D01*
X191259133Y-127555097D01*
X191148044Y-127485084D01*
X190984994Y-127372898D01*
X190783065Y-127226255D01*
X190564814Y-127061938D01*
X190352798Y-126896729D01*
X190293667Y-126849409D01*
X190255324Y-126818000D01*
X187934000Y-126818000D01*
X187914000Y-126838000D01*
X187894000Y-126818000D01*
X187914000Y-126798000D01*
X187934000Y-126818000D01*
X190255324Y-126818000D01*
X190214040Y-126784182D01*
X187854000Y-126784182D01*
X187823424Y-126776605D01*
X187732025Y-126718000D01*
X187580304Y-126608718D01*
X187368758Y-126449111D01*
X187261476Y-126366603D01*
X187126768Y-126259599D01*
X187021965Y-126170693D01*
X186959371Y-126110692D01*
X186947674Y-126090992D01*
X186982906Y-126107941D01*
X187066681Y-126164474D01*
X187185203Y-126250040D01*
X187324675Y-126354087D01*
X187471300Y-126466061D01*
X187611282Y-126575412D01*
X187730824Y-126671587D01*
X187816129Y-126744033D01*
X187853401Y-126782199D01*
X187854000Y-126784182D01*
X190214040Y-126784182D01*
X190121500Y-126708379D01*
X189932472Y-126549736D01*
X189735742Y-126381589D01*
X189540470Y-126212051D01*
X189355813Y-126049231D01*
X189190932Y-125901240D01*
X189054984Y-125776189D01*
X188957130Y-125682189D01*
X188906528Y-125627351D01*
X188901952Y-125616981D01*
X188941964Y-125599447D01*
X189042241Y-125560260D01*
X189187873Y-125505133D01*
X189363950Y-125439780D01*
X189372948Y-125436471D01*
X190304595Y-125053080D01*
X191203936Y-124601144D01*
X192065571Y-124084657D01*
X192884096Y-123507611D01*
X193654111Y-122873996D01*
X194370213Y-122187807D01*
X195027000Y-121453034D01*
X195392229Y-120988000D01*
X195493237Y-120855435D01*
X195576541Y-120751165D01*
X195630786Y-120689138D01*
X195644665Y-120678000D01*
X195651096Y-120715566D01*
X195652043Y-120819006D01*
X195882295Y-120819006D01*
X195886466Y-120298000D01*
X196153911Y-119858000D01*
X196642074Y-118978533D01*
X197058861Y-118063671D01*
X197404420Y-117112970D01*
X197678900Y-116125986D01*
X197882450Y-115102273D01*
X197978951Y-114398000D01*
X197997599Y-114175239D01*
X198011427Y-113890903D01*
X198020435Y-113563271D01*
X198024622Y-113210624D01*
X198023988Y-112851240D01*
X198018533Y-112503400D01*
X198008258Y-112185383D01*
X197993162Y-111915468D01*
X197978951Y-111758000D01*
X197821990Y-110707524D01*
X197593050Y-109691934D01*
X197292056Y-108711047D01*
X196918934Y-107764682D01*
X196473607Y-106852657D01*
X195956003Y-105974789D01*
X195366046Y-105130897D01*
X195138033Y-104838000D01*
X194934396Y-104595398D01*
X194686345Y-104318690D01*
X194410704Y-104025247D01*
X194124292Y-103732444D01*
X193843933Y-103457655D01*
X193586447Y-103218252D01*
X193474000Y-103119363D01*
X192669519Y-102480773D01*
X191823660Y-101910046D01*
X190939459Y-101408504D01*
X190019949Y-100977469D01*
X189068166Y-100618263D01*
X188087144Y-100332210D01*
X187079918Y-100120630D01*
X186354000Y-100016744D01*
X186056323Y-99989809D01*
X185701493Y-99969915D01*
X185310276Y-99957221D01*
X184903433Y-99951889D01*
X184501729Y-99954078D01*
X184125927Y-99963949D01*
X183796790Y-99981662D01*
X183634000Y-99995742D01*
X182598117Y-100140789D01*
X181594433Y-100358972D01*
X180622096Y-100650643D01*
X179680254Y-101016156D01*
X178768053Y-101455860D01*
X177884640Y-101970110D01*
X177029165Y-102559258D01*
X176574000Y-102912314D01*
X176399402Y-103060180D01*
X176191146Y-103247568D01*
X175961371Y-103462504D01*
X175722215Y-103693015D01*
X175485816Y-103927124D01*
X175264312Y-104152858D01*
X175069840Y-104358243D01*
X174914538Y-104531303D01*
X174834000Y-104628897D01*
X174749375Y-104734319D01*
X174684300Y-104808967D01*
X174654000Y-104835951D01*
X174631877Y-104801855D01*
X174578349Y-104704566D01*
X174497779Y-104552452D01*
X174394528Y-104353881D01*
X174272960Y-104117221D01*
X174137437Y-103850838D01*
X174044858Y-103667556D01*
X173757808Y-103103575D01*
X173481743Y-102572733D01*
X173219057Y-102079170D01*
X172972141Y-101627024D01*
X172743387Y-101220436D01*
X172535187Y-100863543D01*
X172349933Y-100560486D01*
X172190015Y-100315403D01*
X172057828Y-100132435D01*
X171955761Y-100015720D01*
X171915592Y-99982720D01*
X171846132Y-99941510D01*
X171821220Y-99941799D01*
X171821220Y-99941799D01*
G37*
X171821220Y-99941799D02*
X171842167Y-99990011D01*
X171910287Y-100092570D01*
X171949369Y-100147907D01*
X172022480Y-100255826D01*
X172094113Y-100374280D01*
X172168763Y-100512743D01*
X172250925Y-100680687D01*
X172345095Y-100887585D01*
X172455766Y-101142909D01*
X172587435Y-101456132D01*
X172704657Y-101739570D01*
X172804350Y-101984307D01*
X172927307Y-102290193D01*
X173068195Y-102643662D01*
X173221684Y-103031147D01*
X173382443Y-103439081D01*
X173545142Y-103853897D01*
X173704449Y-104262030D01*
X173855035Y-104649912D01*
X173991567Y-105003977D01*
X174108717Y-105310658D01*
X174132027Y-105372187D01*
X174175205Y-105486375D01*
X174399567Y-105179152D01*
X174498766Y-105050708D01*
X174582531Y-104955881D01*
X174639270Y-104907091D01*
X174655411Y-104904964D01*
X174677795Y-104945802D01*
X174731900Y-105052650D01*
X174814752Y-105219435D01*
X174923380Y-105440080D01*
X175054811Y-105708511D01*
X175206074Y-106018651D01*
X175374196Y-106364427D01*
X175556206Y-106739762D01*
X175749131Y-107138582D01*
X175826121Y-107298000D01*
X176269371Y-108215694D01*
X176680681Y-109066112D01*
X177062480Y-109854219D01*
X177417195Y-110584980D01*
X177747255Y-111263361D01*
X178055088Y-111894326D01*
X178343124Y-112482842D01*
X178613790Y-113033872D01*
X178869514Y-113552382D01*
X179112725Y-114043338D01*
X179345852Y-114511704D01*
X179571323Y-114962446D01*
X179699666Y-115218000D01*
X179873613Y-115565912D01*
X180022149Y-115864996D01*
X180150556Y-116122118D01*
X180264116Y-116344147D01*
X180368114Y-116537950D01*
X180467830Y-116710394D01*
X180568548Y-116868346D01*
X180675551Y-117018674D01*
X180794121Y-117168246D01*
X180929541Y-117323928D01*
X181087093Y-117492589D01*
X181272061Y-117681096D01*
X181489727Y-117896315D01*
X181745373Y-118145116D01*
X182044282Y-118434364D01*
X182391738Y-118770928D01*
X182554000Y-118928615D01*
X182846678Y-119214996D01*
X183133017Y-119498172D01*
X183405545Y-119770549D01*
X183656792Y-120024532D01*
X183879287Y-120252527D01*
X184065557Y-120446937D01*
X184208131Y-120600169D01*
X184291123Y-120694445D01*
X184516832Y-120959830D01*
X184790528Y-121273635D01*
X185104209Y-121627143D01*
X185449867Y-122011633D01*
X185819500Y-122418388D01*
X186205102Y-122838691D01*
X186598668Y-123263822D01*
X186992194Y-123685063D01*
X187377674Y-124093696D01*
X187747104Y-124481003D01*
X188092480Y-124838265D01*
X188148994Y-124896171D01*
X188340133Y-125092268D01*
X188510797Y-125268426D01*
X188653611Y-125416943D01*
X188761197Y-125530118D01*
X188826181Y-125600250D01*
X188842496Y-125620242D01*
X188793331Y-125637759D01*
X188681937Y-125669807D01*
X188523912Y-125712410D01*
X188334856Y-125761593D01*
X188130370Y-125813377D01*
X187926052Y-125863787D01*
X187737503Y-125908847D01*
X187580322Y-125944579D01*
X187519597Y-125957455D01*
X187262703Y-126005895D01*
X187076007Y-126031406D01*
X186953205Y-126034458D01*
X186887992Y-126015516D01*
X186878335Y-126005013D01*
X186840119Y-125967309D01*
X186753647Y-125892374D01*
X186633432Y-125792578D01*
X186545975Y-125721763D01*
X186234000Y-125471499D01*
X186549673Y-125769233D01*
X186865346Y-126066968D01*
X186729673Y-126091249D01*
X186489197Y-126126031D01*
X186200969Y-126154206D01*
X185875911Y-126175854D01*
X185524943Y-126191055D01*
X185158987Y-126199888D01*
X184788964Y-126202434D01*
X184425794Y-126198772D01*
X184080398Y-126188983D01*
X183763698Y-126173146D01*
X183486615Y-126151341D01*
X183260069Y-126123649D01*
X183094981Y-126090149D01*
X183023451Y-126064118D01*
X182977712Y-126016925D01*
X182896759Y-125907246D01*
X182784904Y-125742149D01*
X182646461Y-125528699D01*
X182485744Y-125273965D01*
X182307066Y-124985012D01*
X182114742Y-124668908D01*
X181913084Y-124332719D01*
X181706407Y-123983511D01*
X181499023Y-123628353D01*
X181295248Y-123274309D01*
X181099393Y-122928447D01*
X180993134Y-122738000D01*
X180824517Y-122439126D01*
X180643422Y-122127091D01*
X180460406Y-121819473D01*
X180286026Y-121533850D01*
X180130839Y-121287799D01*
X180032173Y-121138000D01*
X179884553Y-120912595D01*
X179713115Y-120638739D01*
X179531355Y-120338744D01*
X179352770Y-120034924D01*
X179190856Y-119749592D01*
X179174657Y-119720317D01*
X178975869Y-119369120D01*
X178780389Y-119044532D01*
X178574155Y-118724732D01*
X178343108Y-118387901D01*
X178079099Y-118020317D01*
X177513748Y-117230416D01*
X176979508Y-116449998D01*
X176463960Y-115659815D01*
X175954684Y-114840619D01*
X175439261Y-113973165D01*
X175199753Y-113558000D01*
X175056035Y-113311039D01*
X174925254Y-113097866D01*
X174795622Y-112901778D01*
X174655350Y-112706070D01*
X174492651Y-112494039D01*
X174295737Y-112248980D01*
X174155319Y-112078000D01*
X173961522Y-111842923D01*
X173768754Y-111608441D01*
X173587946Y-111387898D01*
X173430029Y-111194640D01*
X173305934Y-111042009D01*
X173254278Y-110978000D01*
X173129962Y-110824856D01*
X172972563Y-110633363D01*
X172800782Y-110426152D01*
X172633317Y-110225853D01*
X172605629Y-110192939D01*
X172469278Y-110027837D01*
X172353579Y-109881672D01*
X172267571Y-109766346D01*
X172220292Y-109693759D01*
X172214000Y-109677251D01*
X172224672Y-109617184D01*
X172252131Y-109508020D01*
X172289546Y-109373270D01*
X172330084Y-109236446D01*
X172366913Y-109121059D01*
X172393201Y-109050621D01*
X172399039Y-109040494D01*
X172433965Y-109056691D01*
X172509018Y-109116132D01*
X172602097Y-109200494D01*
X172694408Y-109283680D01*
X172737622Y-109311243D01*
X172729243Y-109281637D01*
X172727039Y-109278000D01*
X172671116Y-109180760D01*
X172602316Y-109053047D01*
X172575172Y-109000557D01*
X172520586Y-108897953D01*
X172487108Y-108858112D01*
X172460749Y-108871906D01*
X172437785Y-108910928D01*
X172416257Y-108943656D01*
X172389068Y-108954871D01*
X172345936Y-108938145D01*
X172276579Y-108887048D01*
X172170715Y-108795150D01*
X172018060Y-108656023D01*
X171992395Y-108632434D01*
X171539662Y-108219673D01*
X171136334Y-107859690D01*
X170776452Y-107547516D01*
X170454056Y-107278181D01*
X170163190Y-107046715D01*
X169897893Y-106848148D01*
X169652207Y-106677510D01*
X169634000Y-106665432D01*
X169308363Y-106463799D01*
X169029716Y-106320267D01*
X168799445Y-106235328D01*
X168618935Y-106209474D01*
X168489572Y-106243197D01*
X168474000Y-106253932D01*
X168431300Y-106291334D01*
X168439249Y-106309599D01*
X168509435Y-106315849D01*
X168576169Y-106316727D01*
X168754498Y-106343176D01*
X168931433Y-106427814D01*
X168939312Y-106432770D01*
X169079414Y-106531760D01*
X169260870Y-106674897D01*
X169468938Y-106849294D01*
X169688875Y-107042061D01*
X169905938Y-107240310D01*
X170105384Y-107431154D01*
X170254000Y-107582084D01*
X170377427Y-107713651D01*
X170533784Y-107882329D01*
X170714862Y-108079074D01*
X170912455Y-108294846D01*
X171118354Y-108520602D01*
X171324353Y-108747298D01*
X171522243Y-108965894D01*
X171703818Y-109167346D01*
X171860869Y-109342613D01*
X171985190Y-109482651D01*
X172068572Y-109578419D01*
X172095924Y-109611360D01*
X172184087Y-109723440D01*
X172075899Y-110210720D01*
X171987028Y-110633960D01*
X171917925Y-111021305D01*
X171865976Y-111395367D01*
X171828567Y-111778760D01*
X171803082Y-112194098D01*
X171786907Y-112663996D01*
X171785541Y-112721885D01*
X171780527Y-113372168D01*
X171797958Y-113965773D01*
X171839907Y-114523385D01*
X171908447Y-115065689D01*
X172005651Y-115613371D01*
X172132273Y-116181673D01*
X172409159Y-117156704D01*
X172759199Y-118102823D01*
X173179575Y-119016184D01*
X173667469Y-119892946D01*
X174220066Y-120729265D01*
X174834547Y-121521298D01*
X175508096Y-122265202D01*
X176237896Y-122957133D01*
X177021129Y-123593249D01*
X177854978Y-124169707D01*
X178098207Y-124320545D01*
X178928322Y-124781373D01*
X179796677Y-125184486D01*
X180689968Y-125524873D01*
X181594889Y-125797521D01*
X182498135Y-125997417D01*
X182594000Y-126014266D01*
X182804271Y-126057067D01*
X182939944Y-126101210D01*
X183005383Y-126146962D01*
X183041669Y-126198705D01*
X183116421Y-126306483D01*
X183222800Y-126460394D01*
X183353968Y-126650537D01*
X183503088Y-126867010D01*
X183620746Y-127038000D01*
X184059713Y-127661200D01*
X184472657Y-128215462D01*
X184864081Y-128705794D01*
X185238489Y-129137206D01*
X185600386Y-129514705D01*
X185954276Y-129843300D01*
X186304662Y-130128000D01*
X186569096Y-130316561D01*
X186802154Y-130458859D01*
X187070452Y-130599890D01*
X187348540Y-130727874D01*
X187610968Y-130831031D01*
X187816043Y-130893722D01*
X188144073Y-130951962D01*
X188499032Y-130977861D01*
X188846053Y-130970223D01*
X189101728Y-130937813D01*
X189575745Y-130807339D01*
X190030044Y-130599481D01*
X190464016Y-130314539D01*
X190614238Y-130193919D01*
X190730189Y-130103624D01*
X190824574Y-130056754D01*
X190931882Y-130039658D01*
X191008151Y-130038000D01*
X191544198Y-130006583D01*
X192088116Y-129915855D01*
X192217471Y-129880747D01*
X189261369Y-129880747D01*
X189205992Y-129915480D01*
X189154000Y-129931716D01*
X189078133Y-129940445D01*
X188946909Y-129944723D01*
X188784879Y-129943914D01*
X188734000Y-129942587D01*
X188500668Y-129925740D01*
X188308133Y-129886982D01*
X188142849Y-129829172D01*
X187872466Y-129705718D01*
X187630492Y-129564342D01*
X187395355Y-129390226D01*
X187145483Y-129168551D01*
X187056897Y-129083203D01*
X186926170Y-128952974D01*
X186829005Y-128851635D01*
X186772598Y-128787094D01*
X186764150Y-128767259D01*
X186774000Y-128772435D01*
X187187437Y-129029212D01*
X187544668Y-129233979D01*
X187848740Y-129388480D01*
X187863293Y-129395236D01*
X188077953Y-129487243D01*
X188323801Y-129581267D01*
X188578598Y-129669830D01*
X188820108Y-129745454D01*
X189026089Y-129800660D01*
X189134499Y-129822719D01*
X189237391Y-129849006D01*
X189261369Y-129880747D01*
X192217471Y-129880747D01*
X192621477Y-129771097D01*
X193125852Y-129577594D01*
X193582813Y-129340627D01*
X193701902Y-129265799D01*
X193839643Y-129185655D01*
X193975034Y-129123364D01*
X194054000Y-129098436D01*
X194158153Y-129067494D01*
X194304538Y-129011602D01*
X194464043Y-128942004D01*
X194487308Y-128931074D01*
X194807291Y-128735546D01*
X194807809Y-128735059D01*
X190912501Y-128735059D01*
X190899233Y-128766771D01*
X190861843Y-128809650D01*
X190853020Y-128819043D01*
X190802978Y-128868390D01*
X190753246Y-128898898D01*
X190688356Y-128911035D01*
X190592840Y-128905267D01*
X190451228Y-128882061D01*
X190248053Y-128841885D01*
X190228404Y-128837896D01*
X190064943Y-128801449D01*
X189877676Y-128754563D01*
X189681079Y-128701519D01*
X189489631Y-128646601D01*
X189317807Y-128594089D01*
X189180085Y-128548266D01*
X189090943Y-128513412D01*
X189064857Y-128493810D01*
X189064887Y-128493780D01*
X189108151Y-128493614D01*
X189210981Y-128505757D01*
X189354309Y-128527788D01*
X189415357Y-128538238D01*
X189589862Y-128564788D01*
X189814826Y-128593100D01*
X190060875Y-128619741D01*
X190292617Y-128640795D01*
X190538986Y-128660901D01*
X190714891Y-128677433D01*
X190829599Y-128693338D01*
X190892379Y-128711564D01*
X190912501Y-128735059D01*
X194807809Y-128735059D01*
X195084741Y-128475188D01*
X195316979Y-128154537D01*
X195501330Y-127778129D01*
X195635114Y-127350500D01*
X195715656Y-126876184D01*
X195718911Y-126844591D01*
X195747056Y-126672587D01*
X195796486Y-126468628D01*
X195856995Y-126274299D01*
X195862894Y-126258000D01*
X196019462Y-125776100D01*
X196039607Y-125698000D01*
X195260137Y-125698000D01*
X195242688Y-125984107D01*
X195225009Y-126158336D01*
X195189006Y-126301180D01*
X195123169Y-126450636D01*
X195073028Y-126544107D01*
X194732658Y-127094654D01*
X194363104Y-127572909D01*
X193961826Y-127982014D01*
X193794000Y-128125266D01*
X193554000Y-128319694D01*
X193294000Y-128294902D01*
X193158566Y-128279935D01*
X193058642Y-128265043D01*
X193017334Y-128254054D01*
X193008764Y-128243285D01*
X193016399Y-128229083D01*
X193052813Y-128202545D01*
X193130581Y-128154767D01*
X193262278Y-128076845D01*
X193294000Y-128058154D01*
X193731174Y-127763580D01*
X194123721Y-127419126D01*
X194478033Y-127017663D01*
X194800499Y-126552065D01*
X195061315Y-126086926D01*
X195260137Y-125698000D01*
X196039607Y-125698000D01*
X196161758Y-125224450D01*
X196287856Y-124612339D01*
X196395832Y-123949058D01*
X196480089Y-123278000D01*
X196498467Y-123068564D01*
X196513887Y-122813743D01*
X196526263Y-122525672D01*
X196535512Y-122216487D01*
X196541548Y-121898321D01*
X196544286Y-121583311D01*
X196543641Y-121283591D01*
X196539528Y-121011296D01*
X196531862Y-120778562D01*
X196520559Y-120597524D01*
X196505532Y-120480316D01*
X196499836Y-120458000D01*
X196477788Y-120397489D01*
X196465539Y-120394424D01*
X196459643Y-120456885D01*
X196457211Y-120558000D01*
X196444225Y-120875799D01*
X196416235Y-121253192D01*
X196375607Y-121671680D01*
X196324707Y-122112766D01*
X196265899Y-122557952D01*
X196201550Y-122988738D01*
X196134023Y-123386627D01*
X196065686Y-123733122D01*
X196032599Y-123878629D01*
X195971483Y-124122242D01*
X195906706Y-124362507D01*
X195841968Y-124587535D01*
X195780969Y-124785434D01*
X195727407Y-124944313D01*
X195684984Y-125052282D01*
X195657398Y-125097451D01*
X195653329Y-125097584D01*
X195616587Y-125032833D01*
X195598221Y-124905635D01*
X195598202Y-124731397D01*
X195616501Y-124525528D01*
X195653089Y-124303435D01*
X195654867Y-124294748D01*
X195712808Y-123996618D01*
X195759891Y-123711266D01*
X195797229Y-123425112D01*
X195825935Y-123124575D01*
X195847125Y-122796075D01*
X195861912Y-122426031D01*
X195871409Y-122000862D01*
X195876060Y-121598000D01*
X195882295Y-120819006D01*
X195652043Y-120819006D01*
X195648201Y-120974434D01*
X195640266Y-121167962D01*
X195628934Y-121385705D01*
X195614901Y-121613776D01*
X195598862Y-121838288D01*
X195581514Y-122045354D01*
X195570499Y-122158000D01*
X195548278Y-122345752D01*
X195518754Y-122561044D01*
X195484553Y-122788171D01*
X195448302Y-123011427D01*
X195412627Y-123215107D01*
X195380154Y-123383507D01*
X195353509Y-123500923D01*
X195338111Y-123547673D01*
X195316513Y-123531428D01*
X195276897Y-123451309D01*
X195224677Y-123319936D01*
X195165265Y-123149927D01*
X195157957Y-123127673D01*
X195067967Y-122859314D01*
X194987492Y-122633962D01*
X194919577Y-122459279D01*
X194867265Y-122342930D01*
X194833602Y-122292577D01*
X194826167Y-122292500D01*
X194827511Y-122335811D01*
X194843444Y-122441756D01*
X194871325Y-122594847D01*
X194908514Y-122779597D01*
X194912262Y-122797415D01*
X194963335Y-123049604D01*
X195017732Y-123334968D01*
X195067540Y-123611285D01*
X195093165Y-123762709D01*
X195171036Y-124240024D01*
X195049486Y-124589012D01*
X194947777Y-124856627D01*
X194822007Y-125150087D01*
X194682770Y-125447351D01*
X194540656Y-125726377D01*
X194406260Y-125965127D01*
X194331231Y-126083588D01*
X194140485Y-126336212D01*
X193909011Y-126596454D01*
X193661061Y-126839132D01*
X193420887Y-127039063D01*
X193387612Y-127063394D01*
X193266548Y-127143000D01*
X193117466Y-127230708D01*
X192956340Y-127318439D01*
X192799144Y-127398115D01*
X192661853Y-127461656D01*
X192560443Y-127500986D01*
X192510887Y-127508025D01*
X192509915Y-127507248D01*
X192517279Y-127465662D01*
X192551868Y-127370720D01*
X192606643Y-127241354D01*
X192618812Y-127214312D01*
X192736907Y-126942543D01*
X192869754Y-126617235D01*
X193008656Y-126261335D01*
X193144916Y-125897792D01*
X193269838Y-125549554D01*
X193374724Y-125239567D01*
X193413275Y-125118000D01*
X193479935Y-124895183D01*
X193551857Y-124643352D01*
X193625805Y-124375080D01*
X193698542Y-124102940D01*
X193766831Y-123839503D01*
X193827435Y-123597343D01*
X193877118Y-123389031D01*
X193912644Y-123227141D01*
X193930775Y-123124244D01*
X193932421Y-123101443D01*
X193917837Y-123116769D01*
X193877155Y-123198530D01*
X193813814Y-123338815D01*
X193731253Y-123529710D01*
X193632911Y-123763304D01*
X193522226Y-124031685D01*
X193438442Y-124238000D01*
X193262783Y-124669705D01*
X193108339Y-125040347D01*
X192968586Y-125363900D01*
X192837000Y-125654337D01*
X192707058Y-125925632D01*
X192572235Y-126191759D01*
X192426006Y-126466692D01*
X192261849Y-126764403D01*
X192244113Y-126796114D01*
X192084571Y-127078977D01*
X191957316Y-127298771D01*
X191857057Y-127463053D01*
X191778504Y-127579381D01*
X191716369Y-127655312D01*
X191665361Y-127698403D01*
X191620192Y-127716212D01*
X191598875Y-127718000D01*
X191526380Y-127696693D01*
X191406925Y-127639185D01*
X191259133Y-127555097D01*
X191148044Y-127485084D01*
X190984994Y-127372898D01*
X190783065Y-127226255D01*
X190564814Y-127061938D01*
X190352798Y-126896729D01*
X190293667Y-126849409D01*
X190255324Y-126818000D01*
X187934000Y-126818000D01*
X187914000Y-126838000D01*
X187894000Y-126818000D01*
X187914000Y-126798000D01*
X187934000Y-126818000D01*
X190255324Y-126818000D01*
X190214040Y-126784182D01*
X187854000Y-126784182D01*
X187823424Y-126776605D01*
X187732025Y-126718000D01*
X187580304Y-126608718D01*
X187368758Y-126449111D01*
X187261476Y-126366603D01*
X187126768Y-126259599D01*
X187021965Y-126170693D01*
X186959371Y-126110692D01*
X186947674Y-126090992D01*
X186982906Y-126107941D01*
X187066681Y-126164474D01*
X187185203Y-126250040D01*
X187324675Y-126354087D01*
X187471300Y-126466061D01*
X187611282Y-126575412D01*
X187730824Y-126671587D01*
X187816129Y-126744033D01*
X187853401Y-126782199D01*
X187854000Y-126784182D01*
X190214040Y-126784182D01*
X190121500Y-126708379D01*
X189932472Y-126549736D01*
X189735742Y-126381589D01*
X189540470Y-126212051D01*
X189355813Y-126049231D01*
X189190932Y-125901240D01*
X189054984Y-125776189D01*
X188957130Y-125682189D01*
X188906528Y-125627351D01*
X188901952Y-125616981D01*
X188941964Y-125599447D01*
X189042241Y-125560260D01*
X189187873Y-125505133D01*
X189363950Y-125439780D01*
X189372948Y-125436471D01*
X190304595Y-125053080D01*
X191203936Y-124601144D01*
X192065571Y-124084657D01*
X192884096Y-123507611D01*
X193654111Y-122873996D01*
X194370213Y-122187807D01*
X195027000Y-121453034D01*
X195392229Y-120988000D01*
X195493237Y-120855435D01*
X195576541Y-120751165D01*
X195630786Y-120689138D01*
X195644665Y-120678000D01*
X195651096Y-120715566D01*
X195652043Y-120819006D01*
X195882295Y-120819006D01*
X195886466Y-120298000D01*
X196153911Y-119858000D01*
X196642074Y-118978533D01*
X197058861Y-118063671D01*
X197404420Y-117112970D01*
X197678900Y-116125986D01*
X197882450Y-115102273D01*
X197978951Y-114398000D01*
X197997599Y-114175239D01*
X198011427Y-113890903D01*
X198020435Y-113563271D01*
X198024622Y-113210624D01*
X198023988Y-112851240D01*
X198018533Y-112503400D01*
X198008258Y-112185383D01*
X197993162Y-111915468D01*
X197978951Y-111758000D01*
X197821990Y-110707524D01*
X197593050Y-109691934D01*
X197292056Y-108711047D01*
X196918934Y-107764682D01*
X196473607Y-106852657D01*
X195956003Y-105974789D01*
X195366046Y-105130897D01*
X195138033Y-104838000D01*
X194934396Y-104595398D01*
X194686345Y-104318690D01*
X194410704Y-104025247D01*
X194124292Y-103732444D01*
X193843933Y-103457655D01*
X193586447Y-103218252D01*
X193474000Y-103119363D01*
X192669519Y-102480773D01*
X191823660Y-101910046D01*
X190939459Y-101408504D01*
X190019949Y-100977469D01*
X189068166Y-100618263D01*
X188087144Y-100332210D01*
X187079918Y-100120630D01*
X186354000Y-100016744D01*
X186056323Y-99989809D01*
X185701493Y-99969915D01*
X185310276Y-99957221D01*
X184903433Y-99951889D01*
X184501729Y-99954078D01*
X184125927Y-99963949D01*
X183796790Y-99981662D01*
X183634000Y-99995742D01*
X182598117Y-100140789D01*
X181594433Y-100358972D01*
X180622096Y-100650643D01*
X179680254Y-101016156D01*
X178768053Y-101455860D01*
X177884640Y-101970110D01*
X177029165Y-102559258D01*
X176574000Y-102912314D01*
X176399402Y-103060180D01*
X176191146Y-103247568D01*
X175961371Y-103462504D01*
X175722215Y-103693015D01*
X175485816Y-103927124D01*
X175264312Y-104152858D01*
X175069840Y-104358243D01*
X174914538Y-104531303D01*
X174834000Y-104628897D01*
X174749375Y-104734319D01*
X174684300Y-104808967D01*
X174654000Y-104835951D01*
X174631877Y-104801855D01*
X174578349Y-104704566D01*
X174497779Y-104552452D01*
X174394528Y-104353881D01*
X174272960Y-104117221D01*
X174137437Y-103850838D01*
X174044858Y-103667556D01*
X173757808Y-103103575D01*
X173481743Y-102572733D01*
X173219057Y-102079170D01*
X172972141Y-101627024D01*
X172743387Y-101220436D01*
X172535187Y-100863543D01*
X172349933Y-100560486D01*
X172190015Y-100315403D01*
X172057828Y-100132435D01*
X171955761Y-100015720D01*
X171915592Y-99982720D01*
X171846132Y-99941510D01*
X171821220Y-99941799D01*
G04 #@! TD*
M02*
